<svg width="124" height="34" viewBox="0 0 124 34" fill="none" xmlns="http://www.w3.org/2000/svg">
<path d="M122.347 18.9409L120.018 20.1858C119.748 20.3317 119.41 20.2379 119.249 19.9775C118.771 19.217 118.204 18.8315 117.554 18.8315C117.18 18.8315 116.863 18.9565 116.603 19.2013C116.338 19.4462 116.208 19.7639 116.208 20.1494C116.208 20.8213 116.987 21.4881 118.547 22.1496C120.694 23.0768 122.139 23.9259 122.882 24.7072C123.626 25.4886 124 26.5408 124 27.8639C124 29.5568 123.376 30.9736 122.129 32.1196C120.917 33.203 119.457 33.7396 117.741 33.7396C115.002 33.7396 113.006 32.4894 111.758 29.9943C111.607 29.6922 111.727 29.3276 112.028 29.1869L114.472 28.0514C114.742 27.9264 115.064 28.0253 115.22 28.2806C115.568 28.864 115.849 29.2442 116.052 29.4318C116.546 29.8901 117.133 30.1141 117.814 30.1141C119.181 30.1141 119.862 29.4891 119.862 28.2389C119.862 27.5201 119.337 26.8429 118.282 26.2178C117.876 26.0147 117.466 25.8167 117.06 25.624C116.65 25.4313 116.239 25.2333 115.818 25.0302C114.643 24.452 113.817 23.879 113.333 23.3008C112.72 22.5663 112.418 21.6235 112.418 20.4723C112.418 18.9461 112.938 17.6855 113.983 16.6854C115.049 15.6905 116.343 15.1904 117.866 15.1904C119.925 15.1904 121.5 16.1697 122.586 18.1231C122.742 18.4148 122.643 18.7846 122.347 18.9409Z" fill="#24282A"/>
<path d="M91.7861 24.327C91.7861 21.7902 92.6906 19.6337 94.4997 17.8574C96.3087 16.0812 98.518 15.1904 101.117 15.1904C103.732 15.1904 105.952 16.0864 107.771 17.8783C109.57 19.6701 110.469 21.8683 110.469 24.478C110.469 27.1086 109.564 29.3172 107.75 31.0934C105.926 32.8593 103.69 33.7448 101.039 33.7448C98.414 33.7448 96.2099 32.8436 94.4373 31.0413C92.675 29.2546 91.7861 27.02 91.7861 24.327ZM95.924 24.3999C95.924 26.1553 96.3918 27.5409 97.3275 28.5619C98.2892 29.5932 99.5524 30.1141 101.122 30.1141C102.703 30.1141 103.971 29.6036 104.917 28.5827C105.863 27.5617 106.336 26.197 106.336 24.4936C106.336 22.7903 105.863 21.4256 104.917 20.4046C103.955 19.3732 102.692 18.8523 101.122 18.8523C99.5732 18.8523 98.3204 19.368 97.3639 20.4046C96.4022 21.4308 95.924 22.7695 95.924 24.3999Z" fill="#24282A"/>
<path d="M66.1376 15.6747H69.1162C69.3813 15.6747 69.5997 15.8883 69.5997 16.1591C69.5997 16.5759 70.0935 16.7894 70.4054 16.5133C70.8473 16.1175 71.2475 15.8258 71.5958 15.6382C72.1832 15.3361 72.9214 15.1851 73.8103 15.1851C75.557 15.1851 76.9761 15.857 78.0781 17.2009C78.3017 17.477 78.7175 17.4874 78.9567 17.2218C80.1731 15.8622 81.743 15.1851 83.6663 15.1851C87.6119 15.1851 89.582 17.5812 89.582 22.3786V32.6455C89.582 32.9685 89.3221 33.2341 88.9946 33.2341H86.0991C85.7769 33.2341 85.5117 32.9737 85.5117 32.6455V23.4829C85.5117 21.8005 85.309 20.6128 84.8983 19.9148C84.4773 19.2064 83.7911 18.8522 82.8294 18.8522C81.7118 18.8522 80.9008 19.2741 80.3914 20.1127C79.882 20.9514 79.6272 22.3057 79.6272 24.1705V32.6507C79.6272 32.9737 79.3673 33.2393 79.0398 33.2393H76.1444C75.8221 33.2393 75.557 32.9789 75.557 32.6507V23.535C75.557 20.4097 74.6576 18.847 72.859 18.847C71.7206 18.847 70.8889 19.2741 70.369 20.1284C69.8492 20.9826 69.5893 22.3266 69.5893 24.1653V32.6455C69.5893 32.9685 69.3294 33.2341 69.0019 33.2341H66.1272C65.8049 33.2341 65.5398 32.9737 65.5398 32.6455V16.2633C65.5554 15.9404 65.8153 15.6747 66.1376 15.6747Z" fill="#24282A"/>
<path d="M59.047 15.6749H61.9425C62.2648 15.6749 62.5299 15.9353 62.5299 16.2635V32.6457C62.5299 32.9686 62.27 33.2343 61.9425 33.2343H59.047C58.7247 33.2343 58.4596 32.9739 58.4596 32.6457C58.4596 32.1665 57.9138 31.8852 57.5343 32.1717C56.136 33.2135 54.6493 33.7344 53.0846 33.7344C50.6621 33.7344 48.6608 32.8593 47.0753 31.1038C45.5054 29.3119 44.7205 27.0773 44.7205 24.3999C44.7205 21.7694 45.5054 19.5764 47.0753 17.821C48.6452 16.0655 50.6102 15.1904 52.9754 15.1904C54.6285 15.1904 56.1412 15.7426 57.5187 16.8469C57.8982 17.1542 58.4648 16.8781 58.4648 16.3885V16.2635C58.4596 15.9405 58.7195 15.6749 59.047 15.6749ZM48.8531 24.3999C48.8531 26.0824 49.3054 27.4523 50.2047 28.5098C51.13 29.5776 52.2892 30.1141 53.6928 30.1141C55.1899 30.1141 56.4011 29.5984 57.3264 28.5619C58.2517 27.494 58.7143 26.1345 58.7143 24.4884C58.7143 22.8424 58.2517 21.4829 57.3264 20.415C56.4011 19.368 55.2055 18.8471 53.7291 18.8471C52.336 18.8471 51.1768 19.3784 50.2411 20.4359C49.3158 21.5037 48.8531 22.8268 48.8531 24.3999Z" fill="#24282A"/>
<path d="M26.6145 31.9165V6.7207C26.6145 5.99145 27.2019 5.40283 27.9297 5.40283H30.7888C32.6498 5.40283 34.1261 5.54868 35.2333 5.83518C36.3458 6.12167 37.2918 6.61131 38.056 7.29369C38.8357 8.00211 39.4544 8.88763 39.9066 9.94505C40.3745 11.0129 40.6084 12.0964 40.6084 13.1902C40.6084 14.6488 40.2029 15.9406 39.392 17.0709C38.9605 17.6752 39.1217 18.5346 39.7559 18.9201C40.572 19.4202 41.2582 20.0817 41.8144 20.9047C42.6773 22.1549 43.1088 23.6082 43.1088 25.2646C43.1088 27.4368 42.3394 29.2808 40.8059 30.7809C39.8806 31.7081 38.8461 32.3488 37.6921 32.7083C36.4341 33.0573 34.8538 33.2291 32.9617 33.2291H27.9245C27.2019 33.2344 26.6145 32.6457 26.6145 31.9165ZM30.8043 16.0395C30.8043 16.7688 31.3918 17.3574 32.1195 17.3574C33.679 17.3574 34.8226 17.0136 35.5452 16.3208C36.273 15.628 36.6317 14.6123 36.6317 13.2632C36.6317 11.9557 36.2626 10.9608 35.514 10.2784C34.7707 9.60126 33.6894 9.25747 32.2755 9.25747H32.1143C31.3866 9.25747 30.7991 9.84608 30.7991 10.5753V16.0395H30.8043ZM30.8043 27.9681C30.8043 28.6973 31.3918 29.286 32.1195 29.286H33.3983C35.2905 29.286 36.6836 28.9161 37.5726 28.166C38.5083 27.3638 38.9761 26.3377 38.9761 25.1032C38.9761 23.8999 38.5239 22.8946 37.6245 22.0767C36.7512 21.2746 35.1865 20.8683 32.9305 20.8683H32.1195C31.3918 20.8683 30.8043 21.4569 30.8043 22.1861V27.9681Z" fill="#24282A"/>
<path d="M16.4831 10.1118L14.0919 11.5338C13.8216 11.6953 13.4733 11.612 13.3018 11.3463C12.7715 10.5129 12.2621 9.9503 11.7787 9.66901C11.1808 9.28355 10.4063 9.09082 9.4602 9.09082C8.29578 9.09082 7.32889 9.41898 6.56474 10.0805C5.79538 10.7316 5.41591 11.5495 5.41591 12.5339C5.41591 13.8935 6.42438 14.9874 8.43613 15.8156L11.2068 16.9512C13.4629 17.8627 15.1108 18.9774 16.1556 20.2953C17.2005 21.6132 17.7203 23.2228 17.7203 25.1344C17.7203 27.692 16.8678 29.8069 15.168 31.479C13.4525 33.1615 11.3264 34.0001 8.78442 34.0001C6.3724 34.0001 4.38144 33.2865 2.81155 31.854C1.37681 30.5257 0.441114 28.6974 0.00965353 26.369C-0.047528 26.0616 0.155206 25.7647 0.461907 25.697L3.54451 25.0146C3.87201 24.9417 4.1943 25.1605 4.24628 25.4939C4.44382 26.7961 4.75572 27.7233 5.17159 28.265C6.03451 29.4683 7.2925 30.0673 8.95077 30.0673C10.2555 30.0673 11.342 29.6298 12.2049 28.7495C13.0678 27.8744 13.4993 26.7596 13.4993 25.4157C13.4993 24.874 13.4265 24.3791 13.2758 23.9312C13.125 23.478 12.8911 23.0665 12.574 22.6862C12.2569 22.306 11.8462 21.9518 11.342 21.6236C10.8378 21.2954 10.2399 20.9777 9.54337 20.6756L6.86104 19.5556C3.04547 17.9513 1.14809 15.5968 1.14809 12.4923C1.14809 10.4035 1.94343 8.65326 3.53931 7.24684C5.1352 5.83 7.12096 5.12158 9.49139 5.12158C12.5168 5.12158 14.9132 6.51238 16.6859 9.29918C16.8626 9.57525 16.7638 9.94509 16.4831 10.1118Z" fill="#24282A"/>
<path d="M19.784 12.4401C19.7008 12.4401 19.6125 12.4192 19.5293 12.3776C19.4877 12.3567 19.4565 12.3359 19.4305 12.3099C19.4201 12.2994 19.4045 12.289 19.3941 12.2786C19.3837 12.2682 19.3733 12.2578 19.3577 12.2421L18.8015 11.6431C18.4064 11.216 18.4324 10.5388 18.8639 10.1429C19.2902 9.75225 19.6177 9.35637 19.8412 8.97091C19.5605 8.86673 19.311 8.77297 19.0718 8.66358C17.9802 8.16352 17.1485 7.26237 16.7326 6.12681C16.3167 4.99126 16.3687 3.76194 16.8677 2.65764C17.9074 0.38132 20.5897 -0.62922 22.8458 0.407365C24.5405 1.1835 25.6269 2.73577 25.6841 4.45994C25.7361 6.04868 24.8264 7.8614 22.981 9.85123C22.955 9.87727 20.413 12.4245 19.7892 12.4349C19.7892 12.4401 19.7892 12.4401 19.784 12.4401ZM20.1323 11.5441C20.1323 11.5441 20.1323 11.5493 20.1323 11.5441C20.1323 11.5493 20.1323 11.5441 20.1323 11.5441ZM20.9952 1.04807C19.6748 1.04807 18.4064 1.80858 17.819 3.1004C17.4292 3.94946 17.3928 4.90271 17.7151 5.7726C18.0322 6.6425 18.6716 7.33529 19.5137 7.72076C19.6956 7.8041 19.888 7.87182 20.0855 7.92391C20.4234 8.01246 20.6885 8.24165 20.8185 8.5594C20.9484 8.86673 20.9224 9.21573 20.7509 9.50222C20.4754 9.97103 20.0803 10.445 19.5813 10.9086L19.8828 11.2576C20.5326 10.7524 22.0141 9.38242 22.2324 9.14802C23.8595 7.39259 24.7016 5.78302 24.6548 4.49641C24.6132 3.17333 23.7555 1.97006 22.4195 1.3554C21.9569 1.14704 21.4735 1.04807 20.9952 1.04807Z" fill="url(#paint0_linear_129_712)"/>
<defs>
<linearGradient id="paint0_linear_129_712" x1="17.075" y1="2.05689" x2="23.9384" y2="8.90629" gradientUnits="userSpaceOnUse">
<stop stop-color="#007CAB"/>
<stop offset="1" stop-color="#EE2A63"/>
</linearGradient>
</defs>
</svg>
