<svg width="18" height="13" viewBox="0 0 18 13" fill="none" xmlns="http://www.w3.org/2000/svg">
<path d="M15.1522 5.69912C15.0856 5.69912 15.019 5.69912 14.9473 5.69912C10.2699 5.69912 5.59255 5.69912 0.915182 5.69912C0.397751 5.69912 0.0749969 5.95373 0.00839615 6.41201C-0.0582047 6.84483 0.279919 7.27257 0.720503 7.3133C0.807596 7.32349 0.899811 7.31839 0.986904 7.31839C5.63866 7.31839 10.2904 7.31839 14.9422 7.31839C15.0088 7.31839 15.0805 7.31839 15.1676 7.31839C15.142 7.40496 15.0805 7.4406 15.0395 7.48643C13.6768 8.84092 12.314 10.2005 10.9462 11.555C10.7054 11.7943 10.5875 12.0591 10.6798 12.3952C10.8386 12.9858 11.5456 13.1946 12.0066 12.7923C12.0476 12.7567 12.0886 12.7109 12.1296 12.6752C13.9739 10.8421 15.8182 9.00895 17.6574 7.18091C18.1133 6.72772 18.1133 6.29489 17.6625 5.84679C15.8028 3.99838 13.938 2.14997 12.0784 0.296466C11.8325 0.0520482 11.5558 -0.0650687 11.2126 0.0367721C10.6541 0.194625 10.439 0.876959 10.8078 1.32506C10.8642 1.39126 10.9308 1.45745 10.9923 1.51856C12.3345 2.85267 13.6768 4.18679 15.019 5.5209C15.0702 5.57182 15.1317 5.60747 15.1829 5.6482C15.1727 5.65839 15.1625 5.67876 15.1522 5.69912Z" fill="#9A9A9A"/>
</svg>
