<svg width="40" height="40" viewBox="0 0 40 40" fill="none" xmlns="http://www.w3.org/2000/svg">
<circle cx="20" cy="20" r="20" fill="white"/>
<path d="M21.5059 24.938C21.5059 26.0667 21.5059 27.1953 21.5059 28.324C21.5059 28.4239 21.5059 28.5297 21.4942 28.6297C21.4824 28.8236 21.3884 28.9471 21.1885 28.9765C21.1003 28.9882 21.0122 29 20.9299 29C20.0363 29 19.1428 29 18.2493 29C17.8202 29 17.7085 28.8883 17.7085 28.4474C17.7085 26.1019 17.7026 23.7564 17.7144 21.411C17.7144 21.1934 17.6497 21.1523 17.4498 21.1523C16.815 21.1641 16.1742 21.1582 15.5393 21.1582C15.1161 21.1582 15.0044 21.0524 15.0044 20.6232C14.9985 19.7591 14.9985 18.895 15.0044 18.0309C15.0044 17.59 15.1161 17.49 15.5511 17.4842C16.2036 17.4842 16.8561 17.4783 17.5086 17.49C17.6673 17.49 17.7202 17.4606 17.7144 17.2902C17.7026 16.6024 17.6908 15.9146 17.7202 15.221C17.7673 13.9336 18.1611 12.7873 19.184 11.9408C19.8953 11.3471 20.7359 11.0649 21.647 11.0238C22.5229 10.9826 23.4047 11.0061 24.2864 11.012C24.5804 11.012 24.7097 11.1355 24.7097 11.4235C24.7156 12.2935 24.7156 13.1694 24.7097 14.0394C24.7097 14.3451 24.5862 14.4627 24.2512 14.4685C23.6575 14.4803 23.0637 14.4803 22.47 14.492C21.7999 14.5038 21.5236 14.7683 21.5118 15.4443C21.5001 16.0498 21.5118 16.6612 21.5059 17.2667C21.5059 17.4195 21.5589 17.443 21.6941 17.443C22.4759 17.4371 23.2636 17.4371 24.0454 17.443C24.5039 17.443 24.6215 17.5547 24.6215 18.0132C24.6215 18.8832 24.6215 19.7591 24.6215 20.6291C24.6215 21.0347 24.5216 21.1347 24.116 21.1347C23.34 21.1405 22.5641 21.1405 21.7881 21.1288C21.5765 21.1229 21.5059 21.1641 21.5059 21.3992C21.5118 22.5749 21.5059 23.7564 21.5059 24.938Z" fill="#017DA9"/>
</svg>
