<svg width="18" height="18" viewBox="0 0 18 18" fill="none" xmlns="http://www.w3.org/2000/svg">
<path d="M17.9953 6.78458C17.9953 6.93462 17.9953 7.08935 17.9953 7.23939C17.8734 7.27221 17.8546 7.40349 17.7749 7.47851C17.3108 7.94738 16.8419 8.41157 16.3824 8.8945C15.5712 9.74785 14.7366 10.5731 13.9114 11.4123C13.8927 11.4311 13.8786 11.4452 13.8599 11.4639C13.8223 11.4967 13.813 11.5343 13.8177 11.5905C13.8786 11.9516 13.9349 12.3126 13.9958 12.6736C14.1084 13.3629 14.2209 14.0521 14.3334 14.7413C14.4459 15.4353 14.5585 16.1292 14.6757 16.8231C14.7507 17.2498 14.8726 17.6765 14.4366 18C14.2865 18 14.1318 18 13.9818 18C13.9724 17.9109 13.888 17.9062 13.8317 17.8734C13.4519 17.6624 13.0721 17.4608 12.697 17.2498C11.8531 16.7856 11.0138 16.3167 10.1698 15.8479C9.77597 15.6275 9.38681 15.4071 8.99296 15.1915C8.99296 15.1164 8.99296 15.0414 8.99296 14.9617C8.99296 9.98698 8.99296 5.01224 8.99296 0.0375098C9.00234 0.0234436 9.0164 0.0140662 9.02578 0C9.08204 0 9.143 0 9.19926 0C9.20395 0.0375098 9.22271 0.0656421 9.25553 0.0797083C9.41025 0.150039 9.48527 0.286012 9.5556 0.431362C9.72909 0.80646 9.90726 1.18156 10.0854 1.55666C10.2777 1.96926 10.4746 2.38187 10.6668 2.79448C11.0888 3.6994 11.5155 4.60432 11.9375 5.50925C11.9703 5.57489 12.0078 5.6124 12.0922 5.62647C12.7627 5.72493 13.4379 5.83277 14.1084 5.93592C15.1492 6.09065 16.1901 6.24069 17.231 6.4001C17.4233 6.42824 17.6202 6.44699 17.7937 6.57359C17.8828 6.63454 17.8828 6.76114 17.9953 6.78458Z" fill="#FEC007"/>
<path d="M8.99766 0.0328149C8.99766 5.00755 8.99766 9.98228 8.99766 14.957C8.99766 15.032 8.99766 15.1071 8.99766 15.1868C8.91795 15.2336 8.83824 15.2805 8.75384 15.3274C7.14561 16.2183 5.54207 17.1091 3.93384 18C3.84006 18 3.74629 18 3.65251 18C3.28679 17.8171 3.18364 17.639 3.23522 17.2873C3.2821 16.9825 3.33368 16.6778 3.38526 16.3683C3.63845 14.8023 3.89164 13.2409 4.14952 11.6749C4.16827 11.553 4.14014 11.4827 4.06043 11.3983C2.80386 10.1136 1.55197 8.82417 0.295389 7.54415C0.173483 7.42224 0.0656421 7.29564 0 7.13623C0 7.05652 0 6.97212 0 6.89241C0.0937744 6.64391 0.25788 6.47981 0.529825 6.4423C0.773639 6.40948 1.01745 6.37197 1.25658 6.33446C2.78041 6.10471 4.30893 5.87027 5.83746 5.64053C5.97343 5.62177 6.03438 5.56082 6.08596 5.4436C6.87366 3.76035 7.66606 2.0771 8.45376 0.393846C8.56629 0.154722 8.72571 0.0140601 8.99766 0.0328149Z" fill="#FEC007"/>
</svg>
