<svg width="16" height="16" viewBox="0 0 16 16" fill="none" xmlns="http://www.w3.org/2000/svg">
<path d="M0 14.5562C0 11.0385 0 7.52073 0 4.00301C0.0542939 3.97797 0.0375881 3.91955 0.0501175 3.88199C0.263117 3.0808 0.91882 2.56754 1.74993 2.56754C4.49387 2.56754 7.2378 2.56754 9.98173 2.56754C10.0151 2.56754 10.0653 2.5425 10.0945 2.60509C10.0486 2.64682 10.0026 2.68438 9.95667 2.73028C8.59932 4.08646 7.2378 5.44682 5.88045 6.803C5.68415 6.99912 5.54633 7.22029 5.45863 7.48318C5.25816 8.09242 5.04933 8.70165 4.84886 9.31089C4.79875 9.46529 4.75698 9.61969 4.74863 9.78243C4.71522 10.7714 5.65492 11.4766 6.60715 11.1678C7.2378 10.9633 7.86844 10.7464 8.49909 10.5419C8.77891 10.4501 9.01279 10.2999 9.21744 10.0954C10.5748 8.73504 11.9321 7.37886 13.2895 6.02267C13.3271 5.98512 13.3521 5.93087 13.3814 5.88497C13.4231 5.93087 13.4273 5.94339 13.4273 5.96008C13.4273 8.7559 13.4315 11.5476 13.4231 14.3434C13.419 15.0945 12.876 15.7496 12.1451 15.9458C12.0741 15.9666 11.9906 15.9458 11.928 16C8.42809 16 4.92822 16 1.42835 16C1.39076 15.9458 1.32811 15.9583 1.278 15.9416C0.672409 15.7663 0.275646 15.3824 0.0668233 14.7899C0.0501175 14.7064 0.0542939 14.623 0 14.5562Z" fill="#017DA9"/>
<path d="M6.16445 10.3082C5.85539 10.3082 5.61315 10.0161 5.70504 9.73235C5.92221 9.04383 6.15609 8.36365 6.3858 7.6793C6.41086 7.60419 6.46515 7.54577 6.51945 7.49152C8.43226 5.58452 10.3409 3.67335 12.2495 1.76217C12.3247 1.68289 12.3665 1.68706 12.4417 1.76217C13.0389 2.36307 13.6361 2.96396 14.2417 3.56068C14.3211 3.63997 14.3127 3.67752 14.2375 3.75263C12.3289 5.65546 10.4203 7.56246 8.51579 9.46529C8.43644 9.54457 8.34873 9.60299 8.24014 9.63638C7.6095 9.84502 6.97886 10.0578 6.34821 10.2623C6.28974 10.2873 6.22292 10.3124 6.16445 10.3082Z" fill="#017DA9"/>
<path d="M16 1.67037C15.9958 1.87067 15.929 2.05428 15.787 2.2045C15.5489 2.44653 15.3067 2.68021 15.0728 2.92641C15.0144 2.989 14.9809 2.98065 14.9267 2.92223C14.3127 2.30465 13.6988 1.69124 13.0807 1.07782C13.018 1.01523 13.0305 0.986021 13.0848 0.931774C13.3229 0.698094 13.5526 0.46024 13.7948 0.226559C14.0955 -0.0655413 14.5466 -0.0780599 14.8556 0.205695C15.1814 0.510314 15.4946 0.831625 15.8037 1.15294C15.9374 1.29481 15.9958 1.47425 16 1.67037Z" fill="#017DA9"/>
</svg>
