<svg width="100" height="100" viewBox="0 0 100 100" fill="none" xmlns="http://www.w3.org/2000/svg">
<circle cx="50" cy="50" r="49.5" fill="#F5F5EB" stroke="#D9D9D9"/>
<mask id="mask0_186_603" style="mask-type:alpha" maskUnits="userSpaceOnUse" x="0" y="0" width="100" height="100">
<circle cx="50" cy="50" r="50" fill="#D9D9D9"/>
</mask>
<g mask="url(#mask0_186_603)">
<path d="M51.774 15C52.8578 15.3815 53.9417 15.7629 54.8248 16.5058C57.0929 18.4131 57.5545 20.9027 57.1933 23.6733C57.1531 23.9745 57.113 24.2556 57.0728 24.5567C56.9524 24.9181 56.852 25.2795 56.7316 25.6208C56.6915 25.7011 56.5911 25.8216 56.5108 25.8216C56.3302 25.8216 56.3302 25.6811 56.3302 25.5405C56.3703 24.9984 56.5108 24.4564 56.4305 23.9343C56.2298 22.4486 56.0492 20.9428 56.1094 19.4371C56.1094 19.3367 56.0693 19.2162 56.0291 19.1158C55.8284 18.4934 55.4872 18.1923 54.7646 18.3328C54.1625 18.4533 53.5202 18.4332 52.918 18.393C50.931 18.2927 48.9439 18.1521 46.9568 18.0317C46.1138 17.9915 45.331 18.4131 45.331 19.1359C45.3109 21.4448 43.6651 23.4324 44.1267 25.8216C44.1267 25.8618 44.0464 25.922 43.9661 26.0224C43.5848 25.5004 43.7052 24.9181 43.5848 24.3961C43.5647 22.9506 43.6049 21.505 43.9059 20.0594C44.4479 17.4093 46.3747 16.1645 48.6829 15.3212C49.0041 15.2008 49.3654 15.2409 49.6464 15C50.369 15 51.0715 15 51.774 15Z" fill="#455D6C"/>
<path d="M85.2933 78.3636C85.7148 82.118 85.4539 85.8524 85.0726 89.5867C84.8116 92.0562 84.3901 94.5056 84.0288 96.955C83.9084 97.718 83.7077 98.0191 82.8647 97.9991C77.3651 97.9388 71.8655 97.9589 66.3659 97.9388C66.6871 96.2323 66.6269 94.4856 66.4663 92.7991C66.2054 90.2693 65.4627 87.8199 64.7201 85.3906C64.3588 84.186 63.8369 83.0215 63.6362 81.7767C64.8606 79.0462 65.6233 76.1752 65.9444 73.2037C67.2089 73.3844 68.2125 73.0431 68.8347 71.8385C69.1358 71.2362 69.4569 70.674 69.7781 70.0918C70.4204 70.152 71.0827 70.2122 71.725 70.2725C71.8454 72.9227 71.9458 75.5929 72.0863 78.2431C72.1465 79.508 72.9694 80.2709 74.2139 80.3311C75.4784 80.3914 76.7429 80.2308 77.9873 80.0701C80.436 79.7288 82.9048 79.1466 85.2933 78.3636Z" fill="#344A5E"/>
<path d="M63.5961 81.7767C63.8168 83.0215 64.3186 84.186 64.6799 85.3906C65.4226 87.8199 66.1853 90.2693 66.4261 92.7991C66.6068 94.4856 66.6469 96.2323 66.3258 97.9388C61.2477 97.9188 56.1897 97.8987 51.1116 97.8786C47.4385 97.8585 43.7654 97.718 40.1124 97.8585C38.0451 97.9388 35.9777 97.9388 33.9103 97.9388C33.8702 95.8508 33.8702 93.7427 34.3118 91.6948C34.8938 88.9443 35.3555 86.1937 35.7368 83.423C35.8171 82.8809 35.6566 82.2385 36.0781 81.7566C36.9813 82.4995 37.9848 83.0616 39.0085 83.6238C46.2142 87.6192 53.4198 87.7396 60.6054 83.5636C61.6291 82.9813 62.6126 82.3589 63.5961 81.7767Z" fill="#415A6B"/>
<path d="M36.1182 81.7365C35.6967 82.2184 35.8372 82.8609 35.777 83.403C35.4157 86.1736 34.9541 88.9443 34.3519 91.6748C33.9103 93.7226 33.9103 95.8307 33.9505 97.9188C28.0093 97.9188 22.0682 97.9388 16.1471 97.9589C15.7456 97.9589 15.6654 97.7983 15.5851 97.457C14.2202 91.7751 13.5177 86.0531 14.4611 80.2107C14.5414 79.7087 14.5815 79.1867 14.6216 78.6848C15.4044 78.9659 16.1671 79.3072 16.9901 79.4076C18.5356 79.5682 20.0008 79.5281 20.9843 78.0223C21.5864 77.1188 22.0882 76.1752 22.4696 75.1713C23.3327 75.1914 24.1757 75.1914 25.0387 75.2115C25.2796 75.5528 25.2997 75.9543 25.3599 76.3559C25.5004 77.3798 25.962 78.2431 26.785 78.8856C28.2903 80.0701 30.0165 80.7126 31.9032 80.7728C33.1878 80.813 34.4723 80.6524 35.7569 80.5721C35.8773 80.9736 35.9978 81.3551 36.1182 81.7365Z" fill="#344A5E"/>
<path d="M71.6849 70.2524C71.0426 70.1922 70.3802 70.1319 69.7379 70.0717C70.1795 69.0076 70.6211 67.9235 70.8419 66.7991C71.0225 65.8555 71.1831 64.8918 71.3637 63.9482C72.4275 63.8679 73.4512 64.1489 74.4146 63.0848C75.5988 61.7798 76.5221 60.3544 77.4253 58.8686C78.1077 57.664 78.4891 56.3188 78.8905 55.0138C79.3923 53.8293 79.7938 52.6046 79.9744 51.3397C80.3558 48.7096 81.6002 46.5413 83.4468 44.7142C84.7313 43.4494 86.0962 42.2247 87.9227 41.7428C88.1836 41.783 88.4446 41.8432 88.7256 41.8833C90.3514 42.064 90.9334 42.6864 90.9936 44.3729C91.0539 46.1598 90.6725 47.9065 90.4316 49.6532C90.3112 50.4764 90.1707 51.2995 90.1105 52.1227C89.9901 54.3111 88.6252 55.9374 87.6417 57.7443C86.9191 59.0694 86.1765 60.3744 85.4539 61.6995C84.9321 62.342 84.3901 62.9644 83.8683 63.6069C82.5034 65.2532 81.2389 66.9999 79.7135 68.5057C78.5292 69.6702 77.1845 70.4331 75.4182 70.2926C74.1537 70.1721 72.9092 70.2524 71.6849 70.2524Z" fill="#FF4A86"/>
<path d="M56.4707 37.5065C59.642 38.7915 62.9738 39.5343 66.1652 40.759C66.3659 41.0803 66.7272 41.1003 67.0283 41.2409C67.1286 41.261 67.229 41.3011 67.3294 41.3212C67.2892 41.4818 67.2691 41.6424 67.2089 41.783C65.8441 44.7945 64.6599 47.8864 63.7566 51.0787C63.014 53.7088 62.4921 56.3992 62.1308 59.1096C60.9868 59.7119 59.7624 60.0933 58.518 60.4547C56.6313 60.9968 54.7445 61.4787 52.7976 61.7999C52.2155 61.9204 51.6736 62.2215 51.0514 62.1412C51.1718 59.5713 51.2922 56.9814 51.4127 54.4115C51.4729 53.1466 51.5732 51.8818 51.513 50.6169C51.4528 49.071 51.232 47.525 51.0915 45.959C51.0715 45.8185 50.951 45.6378 51.1116 45.4972C51.6937 44.9953 51.8743 44.2123 52.4162 43.6702C52.4564 43.7304 52.5367 43.7907 52.5567 43.8509C52.7374 44.5335 52.9381 44.5737 53.3596 43.9714C54.1022 42.8872 54.8248 41.783 55.5474 40.6988C56.1897 39.715 56.4506 38.6509 56.4707 37.5065Z" fill="#9A9A9A"/>
<path d="M15.3442 69.4292C13.9994 69.3289 12.6546 69.2285 11.3098 69.108C10.4869 69.0277 10.0052 68.4455 9.72419 67.7628C8.92133 65.8756 8.94141 63.8879 9.06184 61.8802C9.22241 59.3706 9.94498 57.0015 10.7679 54.6725C11.4905 52.6246 11.5306 50.4362 12.2331 48.3883C12.8553 46.5412 13.3571 44.6741 14.2604 42.9474C14.7019 42.0841 15.3041 41.3212 16.1471 40.7791C15.8259 41.6826 15.8059 42.6061 15.8059 43.5498C15.8259 44.7945 15.8059 46.0192 15.8059 47.264C15.4446 48.569 15.7055 49.8941 15.5048 51.2192C15.3241 52.4841 15.7456 53.769 15.6453 55.054C15.5249 57.1621 15.9062 59.2501 15.7858 61.3381C15.7456 62.0208 15.9664 62.2215 16.6489 62.2015C18.4151 62.1613 20.2015 62.1412 21.9879 62.2215C23.1922 62.2818 23.1922 62.342 22.9112 61.1775C22.8911 61.0771 22.8309 60.9767 22.8108 60.8764C22.0481 58.3868 21.2653 55.9173 20.5026 53.4076C20.0409 51.8617 19.8603 50.2756 19.9205 48.6494C20.4424 49.7335 20.8438 50.8578 21.6667 52.0022C21.3857 48.7297 21.6667 45.7181 23.5735 43.1081C23.5133 43.7304 23.4732 44.3528 23.4129 44.9752C22.8309 47.1436 22.7506 49.3721 22.6502 51.6007C22.5097 54.7127 23.1119 57.7644 23.4932 60.8362C23.6137 61.7397 23.6939 62.5227 24.8782 62.4424C24.8982 62.4424 24.9183 62.4825 24.9384 62.5026C23.8144 64.0887 23.8947 65.9358 23.7943 67.7628C23.6337 68.5659 23.9749 69.4092 23.5735 70.1721C23.1721 70.152 22.7707 70.152 22.3692 70.1119C20.0008 69.8709 17.6725 69.6501 15.3442 69.4292Z" fill="#FF4A86"/>
<path d="M23.5735 43.0679C21.6467 45.698 21.3857 48.6895 21.6667 51.9621C20.8438 50.8177 20.4223 49.6934 19.9205 48.6092C19.78 47.7459 19.5994 46.8826 19.6596 45.9992C19.7599 43.7706 20.1012 41.522 19.5191 39.2934C19.1578 37.0648 18.5958 34.8363 18.7764 32.5675C19.0976 28.0702 20.2015 23.7737 23.152 20.2C24.557 18.4734 26.4437 17.7305 28.7118 18.2123C28.9527 18.2726 29.1935 18.3328 29.4344 18.2927C31.0401 17.9915 32.0437 18.8147 32.706 20.1197C34.5928 23.854 35.9777 27.7289 35.9175 32.0054C35.8773 33.8726 35.9576 35.7197 35.9978 37.5868C35.9978 37.9281 36.0781 38.2895 36.1182 38.6308C36.058 39.7351 36.1784 40.8193 36.4193 41.8833C35.9576 42.1243 35.4759 42.3451 35.0143 42.586C34.5928 42.044 34.4121 41.4015 34.1713 40.7791C33.6293 39.3737 33.0874 37.9884 32.5655 36.583C32.5655 35.9405 31.9032 35.4185 32.124 34.7359C32.6458 33.1498 32.9469 31.5235 33.1275 29.8571C33.248 28.7328 33.2279 27.6888 32.6659 26.6648C32.0437 25.5204 31.2208 24.5367 30.3577 23.573C29.4344 22.5691 28.3907 21.9668 26.9255 22.4486C25.8817 22.7899 25.1592 23.4525 24.6975 24.4162C23.7542 26.3838 23.3527 28.4919 23.0115 30.62C22.9513 30.9614 23.0316 31.3027 23.1119 31.644C23.4932 33.3505 24.2961 34.8764 25.119 36.3822C25.1592 36.4424 25.2194 36.5027 25.2595 36.5629C25.2595 36.603 25.2595 36.6633 25.2796 36.7034C25.8617 38.2895 25.6208 39.8154 24.7979 41.2409C24.3362 41.8432 23.9549 42.4656 23.5735 43.0679Z" fill="#F2715B"/>
<path d="M34.934 42.586C35.3956 42.3451 35.8773 42.1243 36.339 41.8833C37.6838 41.3613 38.9683 40.6988 40.2128 39.9961C41.4171 39.5544 42.521 38.8718 43.6651 38.3297C43.926 38.2092 44.207 38.1088 44.4679 38.0084C44.2271 39.2532 44.488 40.3976 45.1102 41.4617C45.5919 42.2648 46.2142 42.9675 46.7561 43.7304C47.4987 44.7544 47.4987 44.7544 48.0607 43.6301C48.0808 43.5899 48.141 43.5498 48.1611 43.5096C48.7231 44.0517 48.6428 44.8748 48.8435 45.5374C48.9238 45.8185 48.5424 46.4208 48.5023 46.9227C48.2614 49.6131 47.9804 52.2833 47.7797 54.9737C47.579 57.6239 47.2579 60.2941 47.2177 62.9443C45.893 62.5026 44.5482 62.5628 43.1834 62.7837C43.2235 62.4825 43.0027 62.2818 42.8823 62.0609C41.8988 60.2138 40.5139 58.7482 38.7877 57.6038C38.8278 56.7405 38.7074 55.8972 38.5067 55.054C38.306 54.1706 38.0049 53.2671 38.0451 52.3837C38.1253 50.8578 38.2458 49.332 37.9447 47.8262C37.5031 45.5374 36.2587 43.6702 33.7096 43.4694C34.0308 43.0277 34.6128 42.9876 34.934 42.586Z" fill="#9A9A9A"/>
<path d="M43.6049 24.3961C43.7253 24.9181 43.6049 25.5204 43.9862 26.0224C44.0665 25.922 44.1468 25.8618 44.1468 25.8216C43.6852 23.4525 45.331 21.4448 45.3511 19.1359C45.3511 18.4131 46.1339 17.9714 46.9769 18.0317C48.9639 18.132 50.951 18.2927 52.9381 18.393C53.5603 18.4332 54.1825 18.4332 54.7847 18.3328C55.5073 18.1923 55.8485 18.4934 56.0492 19.1158C56.0893 19.2162 56.1295 19.3166 56.1295 19.4371C56.0693 20.9428 56.2499 22.4286 56.4506 23.9343C56.5309 24.4564 56.3904 24.9984 56.3503 25.5405C56.3302 25.6811 56.3503 25.8417 56.5309 25.8216C56.6112 25.8216 56.7115 25.7011 56.7517 25.6208C56.8721 25.2795 56.9725 24.9181 57.0929 24.5567C58.1768 25.3397 57.7954 28.6926 56.8721 29.2347C55.447 30.0579 55.728 31.5436 55.1259 32.6679C54.7847 32.8085 54.584 33.1297 54.4234 33.4108C53.8815 34.3946 53.0385 35.0571 52.1152 35.5992C51.3123 36.081 50.4292 36.342 49.4256 36.081C48.2614 35.7799 47.3382 35.1374 46.455 34.3745C46.0134 33.993 45.7324 33.4108 45.0902 33.2903C44.8292 32.1459 44.5884 31.0015 44.3274 29.837C44.2873 29.6764 44.207 29.556 44.0665 29.4556C42.8823 28.532 42.4006 26.1428 43.1031 24.8378C43.2034 24.637 43.3439 24.4363 43.6049 24.3961Z" fill="#FED05C"/>
<path d="M71.6849 70.2524C72.9293 70.2524 74.1737 70.1721 75.3981 70.2725C77.1644 70.413 78.5293 69.6501 79.6934 68.4856C81.2188 66.9798 82.4833 65.2331 83.8482 63.5868C84.37 62.9443 84.912 62.3219 85.4338 61.6794C85.2733 64.1489 86.2768 66.3775 86.8388 68.6864C87.4611 71.2763 87.7822 73.9265 88.0431 76.5767C88.1033 77.1389 87.9227 77.3999 87.3808 77.5605C86.6582 77.7813 85.9758 78.0825 85.2733 78.3636C82.8647 79.1466 80.416 79.7288 77.907 80.0701C76.6626 80.2308 75.3981 80.3713 74.1336 80.3311C72.8892 80.2709 72.0662 79.508 72.006 78.2431C71.9057 75.5729 71.8053 72.9227 71.6849 70.2524Z" fill="#F02A64"/>
<path d="M69.9989 31.7243C70.039 29.556 69.6978 27.3876 69.8985 25.2193C70.7817 23.4726 72.1264 22.4888 74.1336 22.6093C75.1572 22.6695 76.0805 23.2116 77.0239 23.5529C78.73 24.1552 79.6332 25.3197 79.7938 27.1266C79.8339 27.5482 79.8138 28.0903 80.2955 28.4316C80.4561 28.2108 80.5966 28.0502 80.697 27.8695C80.9378 27.4479 81.3192 27.2471 81.7808 27.3274C82.2626 27.4077 82.4633 27.7691 82.5636 28.2509C82.7242 29.0942 82.4633 29.7969 82.0217 30.5197C81.4195 31.5436 80.5364 32.3467 80.0145 33.4309C79.292 34.9366 79.1314 36.5629 78.8102 38.1691C77.044 40.5583 75.4784 43.0679 73.8325 45.5374C72.9293 46.8826 72.2669 48.288 72.1064 49.9142C72.0662 50.3358 71.9257 50.7575 71.8454 51.1791C71.5243 49.332 71.444 47.4447 70.8619 45.6378C71.0827 44.6741 71.3838 43.7104 71.3437 42.7065C71.6648 42.0038 71.9859 41.281 72.3071 40.5783C74.0332 40.1166 75.4985 39.1528 76.783 37.9683C77.5859 37.2254 78.4088 36.4826 78.7902 35.3984C78.5092 35.3984 78.3687 35.6193 78.188 35.7598C76.6024 36.9644 75.097 38.3899 72.8289 37.8278C72.8289 37.5668 72.6884 37.3861 72.568 37.1853C71.4842 35.4787 70.4204 33.7521 69.9989 31.7243Z" fill="#FED05C"/>
<path d="M78.8102 38.1691C79.1314 36.5629 79.312 34.9366 80.0145 33.4309C80.5364 32.3467 81.4195 31.5436 82.0217 30.5197C82.4432 29.7969 82.7242 29.0942 82.5636 28.2509C82.4833 27.7892 82.2626 27.4278 81.7808 27.3274C81.3192 27.2471 80.9579 27.4479 80.697 27.8695C80.5966 28.0502 80.4561 28.2108 80.2955 28.4316C79.8339 28.0903 79.8339 27.5683 79.7938 27.1266C79.6332 25.3197 78.73 24.1552 77.0239 23.5529C76.0605 23.2116 75.1572 22.6896 74.1336 22.6093C72.1264 22.4687 70.7817 23.4726 69.8985 25.2193C70.0792 22.5089 72.3472 19.5575 74.816 19.2764C76.5622 19.0757 78.449 19.0355 80.0748 19.9992C81.6805 20.9629 82.7041 22.4085 83.1658 24.1953C84.4503 29.3552 84.9521 34.5351 83.5471 39.7752C82.4833 42.9474 80.9178 45.8988 79.292 48.81C78.6698 49.9343 78.2483 51.1188 78.5694 52.4239C78.7902 53.2671 78.8705 54.1103 78.8705 54.9737C78.449 56.2988 78.0877 57.6239 77.4052 58.8285C77.4655 57.3829 77.2447 55.9775 76.7027 54.6324C76.3214 53.7088 76.0605 52.7451 75.8597 51.7613C75.5787 50.3961 75.4985 49.0509 76.0805 47.7258C76.8232 46.0192 77.4855 44.2725 78.4088 42.6463C78.6497 42.2046 78.8102 41.7629 78.8102 41.261C78.7902 40.2772 78.8102 39.2131 78.8102 38.1691Z" fill="#F2715B"/>
<path d="M19.499 39.2934C20.061 41.522 19.7399 43.7706 19.6395 45.9992C19.5994 46.9026 19.7599 47.7459 19.9004 48.6092C19.8402 50.2355 20.0008 51.8216 20.4825 53.3675C21.2452 55.8571 22.028 58.3466 22.7907 60.8362C22.8309 60.9366 22.871 61.037 22.8911 61.1374C23.1721 62.3018 23.1721 62.2215 21.9678 62.1814C20.2015 62.1011 18.4151 62.1211 16.6288 62.1613C15.9664 62.1814 15.7256 61.9806 15.7657 61.298C15.8861 59.21 15.5048 57.1219 15.6252 55.0138C15.8861 54.7729 15.7858 54.4517 15.7858 54.1706C15.7858 51.8617 15.7858 49.5328 15.7858 47.2239C15.7858 45.9791 15.8059 44.7544 15.7858 43.5096C15.7657 42.566 15.7858 41.6424 16.127 40.7389C16.1872 40.6787 16.2474 40.6386 16.3076 40.5783C16.3478 40.5181 16.408 40.4779 16.4481 40.4177C17.0302 39.8555 17.813 39.7953 18.5155 39.5544C18.8366 39.454 19.1779 39.3737 19.499 39.2934Z" fill="#F02A64"/>
<path d="M15.3442 69.4292C17.6725 69.63 20.0008 69.8509 22.3492 70.0516C22.7506 70.0918 23.152 70.0918 23.5534 70.1119C23.3929 71.8385 23.0918 73.5451 22.4897 75.1914C22.1083 76.1952 21.5864 77.1389 21.0044 78.0423C20.0209 79.5481 18.5556 79.5883 17.0101 79.4277C16.1671 79.3474 15.4044 79.0061 14.6417 78.7049C13.6983 78.2632 13.6983 77.5806 13.8991 76.657C14.4209 74.2678 15.1034 71.8987 15.3442 69.4292Z" fill="#F02A64"/>
<path d="M72.3272 40.5984C72.006 41.3011 71.6849 42.0239 71.3637 42.7266C70.9021 43.088 70.8218 43.7505 70.2598 44.0316C69.8985 43.4494 69.5974 42.8069 69.1759 42.2648C68.7344 41.6826 68.2326 41.0602 67.3294 41.3212C67.229 41.3011 67.1286 41.261 67.0283 41.2409C67.1086 40.9397 67.3494 40.6586 67.2089 40.2972C67.6104 39.454 67.9917 38.5907 68.4333 37.7675C69.3566 36.0208 69.5974 34.1135 69.8985 32.2061C69.9186 32.0455 69.9587 31.8849 69.9788 31.7243C70.4003 33.7521 71.4641 35.4787 72.568 37.1853C72.7085 37.3861 72.849 37.5868 72.8289 37.8278C72.849 38.7915 72.5279 39.6749 72.3272 40.5984Z" fill="#F2715B"/>
<path d="M78.8504 55.0138C78.8504 54.1505 78.7701 53.3073 78.5493 52.464C78.2282 51.159 78.6497 49.9744 79.2719 48.8501C80.8977 45.9389 82.4633 42.9876 83.527 39.8154C84.9923 40.4177 86.4976 40.9598 87.8826 41.7428C86.0561 42.2247 84.6912 43.4494 83.4066 44.7142C81.56 46.5413 80.3156 48.7297 79.9342 51.3397C79.7737 52.6046 79.3723 53.8293 78.8504 55.0138Z" fill="#F02A64"/>
<path d="M56.4707 37.5065C56.4506 38.6509 56.2098 39.715 55.5675 40.6988C54.8449 41.803 54.1424 42.9073 53.3797 43.9714C52.9582 44.5938 52.7575 44.5536 52.5768 43.8509C52.5567 43.7907 52.4765 43.7304 52.4363 43.6702C52.2557 42.9073 51.8141 42.2849 51.2922 41.7027C51.0514 41.4416 50.951 41.0602 50.6098 40.8996C50.7503 40.3776 51.2722 40.237 51.6335 39.9559C53.0786 38.8316 54.4635 37.6671 55.146 35.9003C55.7481 36.3019 56.2499 36.7837 56.4707 37.5065Z" fill="#F2F2F1"/>
<path d="M45.0701 33.2903C45.7124 33.4108 45.9934 33.993 46.4349 34.3745C47.3181 35.1374 48.2414 35.7799 49.4055 36.081C50.4091 36.342 51.2922 36.081 52.0951 35.5992C53.0184 35.0571 53.8614 34.3946 54.4033 33.4108C54.5639 33.1297 54.7646 32.8085 55.1058 32.6679C55.1058 32.8285 55.0858 32.9691 55.0858 33.1297C54.9453 33.1899 54.9051 33.2903 54.865 33.4309C54.4033 34.9969 53.5202 36.2617 52.1152 37.1451C50.4091 38.2092 48.5224 38.4702 46.5754 38.5104C45.8729 37.9683 45.5919 37.1251 45.0299 36.5027C45.0099 35.4185 45.05 34.3544 45.0701 33.2903Z" fill="#F6B64C"/>
<path d="M44.9898 36.5027C45.5518 37.1451 45.8529 37.9884 46.5353 38.5104C47.3582 39.5945 48.5424 40.2169 49.6865 40.8996C49.5661 41.1606 49.4457 41.4416 49.3252 41.7027C48.7632 42.1845 48.422 42.827 48.1812 43.5096C48.141 43.5498 48.1009 43.5899 48.0808 43.6301C47.5188 44.7544 47.5188 44.7544 46.7762 43.7304C46.2342 42.9675 45.612 42.2648 45.1303 41.4617C44.5081 40.4177 44.2472 39.2532 44.488 38.0084C44.6486 37.5065 44.8292 37.0046 44.9898 36.5027Z" fill="#F2F2F1"/>
<path d="M49.6865 40.8996C48.5424 40.2169 47.3582 39.6146 46.5353 38.5104C48.4822 38.4501 50.369 38.2092 52.075 37.1451C53.5001 36.2617 54.3632 34.9969 54.8248 33.4309C54.865 33.2903 54.9252 33.1899 55.0456 33.1297C55.2062 34.0532 55.0858 34.9768 55.1058 35.9003C54.4234 37.6671 53.0184 38.8316 51.5933 39.9559C51.232 40.237 50.7102 40.3776 50.5697 40.8996C50.2887 40.8996 49.9876 40.8996 49.6865 40.8996Z" fill="#FED15E"/>
<path d="M40.2128 39.9961C38.9683 40.7189 37.6838 41.3613 36.339 41.8833C36.0981 40.8193 35.9777 39.7351 36.0379 38.6308C37.4228 39.0725 38.8278 39.5343 40.2128 39.9961Z" fill="#F02A64"/>
<path d="M67.2089 40.2972C67.3494 40.6586 67.1086 40.9196 67.0283 41.2409C66.7272 41.1003 66.3659 41.0803 66.1451 40.759C66.5064 40.5984 66.8677 40.4378 67.2089 40.2972Z" fill="#F02A64"/>
<path d="M16.4481 40.4378C16.408 40.498 16.3478 40.5382 16.3076 40.5984C16.3478 40.5382 16.3879 40.498 16.4481 40.4378Z" fill="#67C5B8"/>
<path d="M43.2034 62.8038C44.5482 62.5628 45.893 62.5227 47.2378 62.9644C48.6227 63.1652 49.827 62.6231 51.0715 62.1412C51.6937 62.2416 52.2356 61.9204 52.8177 61.7999C53.0184 61.82 53.0585 61.9605 53.0786 62.1412C53.2592 63.4864 53.8012 64.7111 54.2628 65.976C54.4435 66.498 54.7044 66.6385 55.2263 66.3574C56.0693 65.9157 56.9323 65.5343 57.8958 65.5142C60.8864 65.4941 63.7968 64.9721 66.7473 64.5505C67.5702 64.43 68.4132 64.4501 69.2362 64.4099C69.477 64.3899 69.8584 64.4099 69.8584 64.1489C69.8584 63.2655 70.3802 63.4864 70.9021 63.5667C71.0426 63.5868 71.2032 63.4864 71.3637 63.4462C71.3637 63.6069 71.3637 63.7675 71.3637 63.908C71.1831 64.8516 71.0225 65.8153 70.8419 66.759C70.6211 67.9034 70.1795 68.9675 69.7379 70.0316C69.4168 70.6138 69.0956 71.196 68.7946 71.7783C68.1924 72.9829 67.1688 73.3242 65.9043 73.1435C62.7531 73.0431 59.6018 72.742 56.4506 73.3844C55.427 73.5852 54.2427 73.7057 53.2392 73.0231C52.4564 72.481 51.513 72.3203 50.5897 72.1597C49.9675 71.7783 49.2249 71.6779 48.5424 71.4771C48.0607 71.3366 47.6392 71.1759 47.6794 70.4933C47.2579 70.6941 46.9167 70.8346 46.5955 70.9953C42.8622 72.3003 38.9683 72.7821 35.0544 73.1234C33.4286 73.2037 32.405 72.3404 31.6824 70.9953C30.8795 69.5095 30.5383 67.9034 30.0968 66.2972C29.9362 64.7111 29.7555 63.1451 29.595 61.559C29.5147 57.7644 29.8358 54.01 30.177 50.2555C30.5183 48.4486 30.6588 46.5814 31.5018 44.8949C31.9835 43.9714 32.6258 43.3289 33.7698 43.3891C36.3189 43.5899 37.5834 45.4571 38.0049 47.7459C38.2859 49.2517 38.1856 50.7775 38.1053 52.3034C38.0651 53.1868 38.3461 54.0903 38.5669 54.9737C38.7676 55.8169 38.8881 56.6601 38.8479 57.5235C37.2422 56.4393 35.4358 56.3389 33.5892 56.3791C33.2078 56.3791 33.1275 56.5798 33.1677 56.9011C33.2078 57.4432 33.5691 57.6239 34.0308 57.6841C34.4121 57.7242 34.7734 57.7242 35.1347 57.8849C35.1347 57.9652 35.1347 58.0455 35.1347 58.1258C34.1913 58.1659 33.2881 57.8447 32.3448 58.0053C31.9634 58.0656 31.5018 58.1057 31.4817 58.5675C31.4616 59.0895 31.8831 59.2702 32.3448 59.3505C33.0874 59.4509 33.83 59.5312 34.5727 59.6516C35.1949 59.752 35.8573 59.6918 36.3791 60.2138C36.0981 60.3744 35.8773 60.254 35.6365 60.2339C34.5325 60.1536 33.4487 60.0532 32.3448 59.993C31.9032 59.9528 31.5018 60.0933 31.4415 60.5752C31.3613 61.0972 31.7828 61.2779 32.1842 61.3783C32.7261 61.5188 33.2881 61.559 33.8501 61.6192C33.8501 61.6995 33.8501 61.7798 33.8501 61.8601C33.549 61.9404 33.0874 61.7196 33.0272 62.2617C32.987 62.603 33.0673 62.9242 33.4487 63.0246C34.4924 63.3057 35.496 63.6269 36.62 63.4262C38.7676 63.1451 40.9956 63.0246 43.2034 62.8038Z" fill="#F2F2F1"/>
<path d="M50.5897 72.22C51.513 72.3605 52.4363 72.5211 53.2392 73.0833C54.2427 73.786 55.427 73.6655 56.4506 73.4447C59.6018 72.8022 62.7531 73.0833 65.9043 73.2037C65.5831 76.1752 64.8204 79.0462 63.5961 81.7767C62.6126 82.379 61.6291 83.0014 60.6255 83.5836C53.4399 87.7597 46.2342 87.6192 39.0286 83.6439C38.025 83.0817 37.0013 82.5196 36.0981 81.7767C35.9777 81.3952 35.8773 81.0138 35.7569 80.6323C35.6365 79.9296 35.5361 79.2068 35.3756 78.5041C35.0143 76.7574 35.1146 74.9906 35.0343 73.2238C38.9483 72.8825 42.8421 72.4007 46.5754 71.0956C46.5152 72.0593 46.4751 73.0231 46.3948 74.0068C46.1941 76.7976 45.9733 79.5883 45.8127 82.379C45.7726 83.1219 45.4916 83.945 46.174 84.5875C46.7159 85.0894 46.8765 86.2338 47.5589 86.1736C48.1611 86.1335 48.703 85.2902 49.2851 84.8084C49.7066 84.447 49.9876 84.0856 50.0077 83.4632C50.1883 79.6887 50.389 75.9543 50.5897 72.22Z" fill="#9A9A9A"/>
<path d="M35.0544 73.2037C35.1347 74.9705 35.0343 76.7373 35.3956 78.484C35.5361 79.1867 35.6566 79.9095 35.777 80.6122C34.4924 80.6925 33.2078 80.8331 31.9233 80.813C30.0365 80.7528 28.3104 80.1103 26.805 78.9257C25.9821 78.2833 25.5405 77.44 25.38 76.396C25.3197 76.0145 25.2997 75.5929 25.0588 75.2516C24.8581 72.742 24.5972 70.2122 24.6975 67.6825C26.504 67.2408 28.3104 66.8192 30.1168 66.3775C30.5584 67.9636 30.8996 69.5899 31.7025 71.0756C32.405 72.4207 33.4286 73.264 35.0544 73.2037Z" fill="#F02A64"/>
<path d="M24.6775 67.6825C24.5771 70.2122 24.838 72.742 25.0387 75.2516C24.1757 75.2315 23.3327 75.2315 22.4696 75.2115C23.0717 73.5651 23.3728 71.8787 23.5334 70.1319C23.9348 69.369 23.6137 68.5258 23.7742 67.7227C24.0753 67.7026 24.3764 67.6825 24.6775 67.6825Z" fill="#F0F1F1"/>
<path d="M71.3437 63.9482C71.3437 63.7875 71.3437 63.6269 71.3437 63.4864C71.5644 63.1451 71.5845 62.7837 71.4842 62.4022C71.5042 62.2215 71.5042 62.0408 71.5243 61.8601C71.9859 61.4787 71.9257 61.037 71.6447 60.5953C71.725 59.1497 71.8254 57.7042 71.8454 56.2586C71.8856 54.5721 71.8454 52.8856 71.8454 51.1992C71.9257 50.7775 72.0662 50.3559 72.1064 49.9343C72.2669 48.308 72.9293 46.8826 73.8325 45.5575C75.4784 43.088 77.044 40.5783 78.8102 38.1891C78.7902 39.2332 78.7902 40.2973 78.7902 41.3413C78.7902 41.8432 78.6296 42.2849 78.3887 42.7266C77.4655 44.3528 76.8232 46.0996 76.0605 47.8061C75.4784 49.1312 75.5386 50.4764 75.8397 51.8416C76.0404 52.8254 76.3013 53.7891 76.6827 54.7127C77.2246 56.0578 77.4454 57.4632 77.3852 58.9088C76.502 60.3945 75.5587 61.82 74.3745 63.125C73.4311 64.1289 72.4074 63.8478 71.3437 63.9482Z" fill="#F02A64"/>
<path d="M71.8655 51.1791C71.8655 52.8656 71.8856 54.552 71.8655 56.2385C71.8254 57.6841 71.725 59.1296 71.6648 60.5752C69.8383 59.9528 67.9315 59.8725 66.0247 59.8123C66.9681 59.2702 67.9716 59.2099 68.9953 59.2099C69.4369 59.2099 69.8584 59.23 70.2598 59.0493C70.5809 58.9088 70.9222 58.6879 70.8619 58.2864C70.8218 57.9049 70.4806 57.8046 70.1394 57.7644C68.3129 57.5636 66.5064 57.3829 64.7803 58.2864C63.9774 58.708 63.0742 58.9088 62.171 59.0895C62.5122 56.3791 63.0541 53.6887 63.7968 51.0586C64.6799 47.8663 65.8842 44.7945 67.2491 41.7629C67.3093 41.6223 67.3294 41.4617 67.3695 41.3011C68.2727 41.0401 68.7745 41.6625 69.2161 42.2447C69.6376 42.7868 69.9387 43.4092 70.2999 44.0115C70.5007 44.5536 70.7214 45.0957 70.9222 45.6378C71.444 47.4447 71.5243 49.332 71.8655 51.1791Z" fill="#F2F2F1"/>
<path d="M62.1509 59.1096C63.0541 58.9289 63.9573 58.7281 64.7602 58.3065C66.4864 57.403 68.2928 57.5636 70.1193 57.7845C70.4605 57.8246 70.8017 57.925 70.8419 58.3065C70.882 58.708 70.5609 58.9289 70.2397 59.0694C69.8383 59.2501 69.3967 59.23 68.9752 59.23C67.9516 59.23 66.948 59.2903 66.0046 59.8323C67.9114 59.8725 69.8182 59.9528 71.6447 60.5953C71.9257 61.0571 71.9859 61.4787 71.5243 61.8601C70.4404 61.8601 69.4168 61.298 68.2928 61.5791C69.3365 62.0408 70.4806 61.9204 71.4842 62.4022C71.5845 62.7837 71.5644 63.1451 71.3437 63.4864C71.1831 63.5265 71.0225 63.6269 70.882 63.6069C70.3602 63.5265 69.8383 63.3057 69.8383 64.1891C69.8383 64.43 69.4569 64.43 69.2161 64.4501C68.3932 64.4902 67.5501 64.4702 66.7272 64.5906C63.7968 65.0123 60.8663 65.5343 57.8757 65.5543C56.9123 65.5543 56.0492 65.9559 55.2062 66.3976C54.6843 66.6787 54.4435 66.5381 54.2427 66.0161C53.7811 64.7513 53.2392 63.5265 53.0585 62.1814C53.0385 62.0007 52.9983 61.8601 52.7976 61.8401C54.7245 61.5188 56.6313 61.037 58.518 60.4949C59.7624 60.0733 60.9868 59.7119 62.1509 59.1096Z" fill="#FED15E"/>
<path d="M51.0715 62.1211C49.8471 62.603 48.6227 63.1451 47.2378 62.9443C47.2779 60.274 47.5991 57.6239 47.7998 54.9536C48.0005 52.2632 48.3016 49.593 48.5224 46.9026C48.5625 46.4007 48.9439 45.7783 48.8636 45.5173C48.6629 44.8548 48.7432 44.0316 48.1812 43.4895C48.422 42.8069 48.7432 42.1644 49.3252 41.6826C49.9675 41.6826 50.6299 41.6826 51.2722 41.6826C51.774 42.2648 52.2155 42.8872 52.4162 43.6501C51.8743 44.1721 51.6937 44.9752 51.1116 45.4772C50.951 45.6177 51.0915 45.7783 51.0915 45.9389C51.232 47.4849 51.4528 49.0308 51.513 50.5968C51.5732 51.8617 51.4528 53.1266 51.4127 54.3914C51.3123 56.9613 51.1919 59.5513 51.0715 62.1211Z" fill="#F02A64"/>
<path d="M23.5735 43.0679C23.9549 42.4656 24.3362 41.8633 24.7176 41.261C28.6717 40.7189 31.6423 38.2695 31.7426 35.3583C31.4616 35.6594 31.2007 35.9606 30.9197 36.2417C30.0365 37.105 28.9928 37.6872 27.7484 37.8478C26.7649 37.9683 26.0624 37.4061 25.4201 36.7837C25.38 36.7436 25.2595 36.7436 25.1993 36.7235C25.1993 36.6834 25.1792 36.6231 25.1792 36.583C25.1391 36.5227 25.0789 36.4625 25.0387 36.4023C24.2158 34.8965 23.4129 33.3706 23.0316 31.6641C22.9513 31.3227 22.871 30.9814 22.9312 30.6401C23.2524 28.5119 23.6739 26.4038 24.6172 24.4363C25.0789 23.4726 25.8015 22.81 26.8452 22.4687C28.3104 21.9869 29.3541 22.5892 30.2774 23.593C31.1405 24.5367 31.9634 25.5405 32.5856 26.6849C33.1476 27.7089 33.1476 28.7529 33.0473 29.8772C32.8867 31.5436 32.5655 33.1698 32.0437 34.7559C31.8229 35.4185 32.4853 35.9405 32.4853 36.603C32.144 36.9243 32.3448 37.3258 32.3849 37.6471C32.7261 40.237 32.0838 42.586 30.7591 44.8146C28.3104 45.3366 25.8817 45.7582 23.4129 44.9552C23.4531 44.3127 23.5133 43.6903 23.5735 43.0679Z" fill="#FED05C"/>
<path d="M23.4129 44.9351C25.8817 45.7382 28.3305 45.3165 30.7591 44.7945C29.7957 46.742 28.8122 48.6895 27.8889 50.6571C27.0459 52.4841 26.2631 54.3312 25.9018 56.3188C25.5807 58.3466 25.1592 60.3744 24.9986 62.4424C24.9585 62.4424 24.9384 62.4625 24.8982 62.4625C24.8782 62.4424 24.8581 62.4022 24.838 62.4022C23.6739 62.4825 23.5735 61.7196 23.4531 60.796C23.0717 57.7242 22.4696 54.6725 22.6101 51.5605C22.7305 49.3521 22.8309 47.1034 23.4129 44.9351Z" fill="#F0F1F1"/>
<path d="M24.9183 62.4625C24.9585 62.4625 24.9785 62.4625 25.0187 62.4424C26.5642 62.3018 28.0695 61.9806 29.5749 61.6393C29.7355 63.2254 29.9161 64.7914 30.0767 66.3775C28.2702 66.8192 26.4638 67.2408 24.6574 67.6825C24.3563 67.7026 24.0552 67.7026 23.7542 67.7227C23.8746 65.8957 23.7943 64.0486 24.9183 62.4625Z" fill="#FED05C"/>
<path d="M15.8059 47.2439C15.8059 49.5528 15.8059 51.8818 15.8059 54.1907C15.8059 54.4717 15.9062 54.793 15.6453 55.0339C15.7456 53.749 15.3241 52.464 15.5048 51.1992C15.7055 49.8741 15.4446 48.5289 15.8059 47.2439Z" fill="#F02A64"/>
<path d="M25.9018 56.3188C26.2631 54.3111 27.0459 52.464 27.8889 50.6571C28.8122 48.6895 29.7957 46.7621 30.7591 44.7945C32.0638 42.586 32.706 40.2169 32.3849 37.627C32.3448 37.2857 32.144 36.8841 32.4853 36.583C33.0272 37.9884 33.549 39.3737 34.091 40.7791C34.3318 41.4015 34.5125 42.044 34.934 42.586C34.6128 42.9675 34.0308 43.0277 33.7498 43.4694C32.6258 43.3891 31.9634 44.0316 31.4817 44.9752C30.6186 46.6617 30.4781 48.5289 30.157 50.3358C28.6115 51.5204 27.3871 52.966 26.6445 54.793C26.4237 55.315 26.4036 55.9374 25.9018 56.3188Z" fill="#FF4A86"/>
<path d="M25.1993 36.7034C25.2796 36.7235 25.38 36.7235 25.4201 36.7637C26.0624 37.4061 26.7649 37.9482 27.7484 37.8278C28.9928 37.6872 30.0365 37.0849 30.9197 36.2216C31.2007 35.9405 31.4616 35.6393 31.7426 35.3382C31.6423 38.2494 28.6516 40.6988 24.7176 41.2409C25.5606 39.8154 25.7814 38.3096 25.1993 36.7034Z" fill="#F6B64C"/>
<path d="M25.0387 36.3822C25.0789 36.4424 25.1391 36.5027 25.1792 36.5629C25.1391 36.5027 25.099 36.4424 25.0387 36.3822Z" fill="#F6B64C"/>
<path d="M35.0745 57.9652C34.7333 57.8046 34.3519 57.8046 33.9705 57.7644C33.5089 57.7042 33.1476 57.5235 33.1075 56.9814C33.0874 56.6601 33.1677 56.4795 33.529 56.4594C35.3756 56.4192 37.182 56.5196 38.7877 57.6038C40.5139 58.7482 41.8988 60.2339 42.8823 62.0609C43.0027 62.3018 43.2235 62.4825 43.1834 62.7837C40.9554 63.0045 38.7275 63.125 36.5397 63.5065C35.4358 63.7072 34.4121 63.3659 33.3684 63.1049C32.987 63.0045 32.9068 62.6833 32.9469 62.342C33.0071 61.7999 33.4688 62.0208 33.7698 61.9404C34.7935 62.2416 35.7971 62.5628 36.901 62.3621C35.9175 61.9003 34.8738 61.6594 33.7698 61.6794C33.2078 61.5991 32.6458 61.559 32.1039 61.4385C31.7225 61.3381 31.281 61.1574 31.3613 60.6354C31.4415 60.1335 31.8229 60.013 32.2645 60.0532C33.3684 60.1335 34.4523 60.2138 35.5562 60.2941C35.7971 60.3142 36.0178 60.4347 36.2988 60.274C35.777 59.752 35.1146 59.8123 34.4924 59.7119C33.7498 59.5914 33.0071 59.5111 32.2645 59.4107C31.8028 59.3505 31.3813 59.1497 31.4014 58.6277C31.4215 58.1659 31.9032 58.1258 32.2645 58.0656C33.2078 57.9049 34.1311 58.2262 35.0544 58.186C35.3153 58.2262 35.5562 58.2864 35.8974 58.1258C35.5963 58.0856 35.3354 58.0254 35.0745 57.9652Z" fill="#FED15E"/>
<path d="M72.3272 40.5984C72.5279 39.6749 72.849 38.7915 72.8691 37.8478C75.1372 38.4301 76.6425 37.0046 78.2282 35.7799C78.4088 35.6393 78.5493 35.4185 78.8303 35.4185C78.449 36.5027 77.626 37.2455 76.8232 37.9884C75.4985 39.1729 74.0533 40.1366 72.3272 40.5984Z" fill="#F6B64C"/>
<path d="M70.882 45.6378C70.6813 45.0957 70.4605 44.5536 70.2598 44.0115C70.8218 43.7505 70.9021 43.0679 71.3637 42.7065C71.4039 43.7304 71.1028 44.6741 70.882 45.6378Z" fill="#F02A64"/>
<path d="M78.8303 35.4185C78.8504 35.3984 78.8504 35.3783 78.8705 35.3583C78.8504 35.3583 78.8303 35.3984 78.8303 35.4185Z" fill="#F6B64C"/>
<path d="M51.2722 41.7027C50.6299 41.7027 49.9675 41.7027 49.3252 41.7027C49.4457 41.4416 49.5661 41.1606 49.6865 40.8996C49.9876 40.8996 50.2887 40.8996 50.5897 40.8996C50.951 41.0602 51.0313 41.4416 51.2722 41.7027Z" fill="#CDD5DF"/>
<path d="M50.5897 72.22C50.389 75.9543 50.1883 79.6887 50.0277 83.423C50.0077 84.0454 49.7267 84.4068 49.3052 84.7682C48.7231 85.2501 48.1812 86.0933 47.579 86.1334C46.8966 86.1937 46.7159 85.0493 46.1941 84.5474C45.5117 83.9049 45.7927 83.0817 45.8328 82.3389C45.9934 79.5481 46.2342 76.7574 46.4149 73.9667C46.4751 73.003 46.5353 72.0393 46.5955 71.0555C46.9367 70.8949 47.2779 70.7342 47.6794 70.5536C47.6192 71.2362 48.0607 71.3968 48.5424 71.5373C49.2249 71.7381 49.9675 71.8385 50.5897 72.22Z" fill="#F02A64"/>
<path d="M25.9018 56.3188C26.3835 55.9173 26.4237 55.2949 26.6244 54.7729C27.367 52.9459 28.5914 51.5204 30.1369 50.3158C29.7756 54.0702 29.4745 57.8447 29.5548 61.6192C28.0495 61.9806 26.5441 62.2818 24.9986 62.4223C25.1792 60.3945 25.5807 58.3667 25.9018 56.3188Z" fill="#F02A64"/>
<path d="M33.7899 61.6995C34.8938 61.6794 35.9376 61.9204 36.9211 62.3821C35.8171 62.5829 34.8136 62.2416 33.7899 61.9605C33.7899 61.8601 33.7899 61.7798 33.7899 61.6995Z" fill="#F0F1F1"/>
<path d="M35.0745 57.9652C35.3354 58.0254 35.5763 58.0856 35.9175 58.1459C35.5963 58.2864 35.3354 58.2462 35.0745 58.2061C35.0745 58.1258 35.0745 58.0455 35.0745 57.9652Z" fill="#F0F1F1"/>
<path d="M71.4641 62.3821C70.4605 61.9003 69.3164 62.0208 68.2727 61.559C69.3967 61.298 70.4204 61.8601 71.5042 61.8401C71.5042 62.0208 71.4842 62.2015 71.4641 62.3821Z" fill="#F0F1F1"/>
</g>
</svg>
