<svg width="98" height="98" viewBox="0 0 98 98" fill="none" xmlns="http://www.w3.org/2000/svg">
<path d="M0.0255839 76.8345C0.511678 75.6019 0.639598 74.2666 1.10011 73.0083C4.01667 65.3304 12.1268 60.7339 20.1345 62.3003C20.723 62.4287 21.0556 62.2746 21.4649 61.8637C26.7352 56.5739 32.0055 51.2841 37.3013 45.9942C37.5572 46.2767 37.7619 46.5848 38.0433 46.8673C40.4993 49.3325 42.9298 51.7976 45.4114 54.2628C46.358 55.2129 47.3302 56.1373 48.2768 57.0618C47.6117 57.7551 46.9976 58.4741 46.2813 59.1161C44.7974 60.4257 44.2602 61.9921 44.823 63.8924C41.1901 67.5387 37.5572 71.1595 33.8987 74.8059C33.5661 75.1397 33.6173 75.4478 33.6684 75.833C35.357 85.3085 29.3192 93.346 21.4649 95.4773C11.8965 98.0709 2.3793 92.1647 0.383759 82.4068C0.281423 81.9702 0.383759 81.4567 0 81.0715C0.0255839 79.6335 0.0255839 78.2468 0.0255839 76.8345ZM16.9621 87.4655C21.6696 87.4912 25.4304 83.7421 25.456 79.0429C25.4816 74.395 21.6696 70.5688 16.9877 70.5432C12.4594 70.5175 8.62178 74.3436 8.62178 78.8888C8.59619 83.665 12.2803 87.4398 16.9621 87.4655Z" fill="#017DA9"/>
<path d="M45.5649 37.7513C48.8397 34.4388 52.1144 31.1005 55.4148 27.8136C56.0288 27.1973 56.2079 26.6838 55.952 25.8107C52.4726 13.9214 60.9409 1.36444 73.2467 0.106179C75.4981 -0.124931 77.6983 0.0291424 79.8986 0.491361C80.4614 0.619755 80.9731 0.773828 81.1522 1.36444C81.3568 2.03209 80.9731 2.44295 80.5382 2.85381C76.675 6.73131 72.8374 10.6088 68.9486 14.4606C68.4114 14.9999 68.437 15.2567 68.9486 15.7959C72.6583 19.468 76.3168 23.1401 79.9753 26.8635C80.487 27.3771 80.7428 27.4541 81.3057 26.8892C85.0921 23.0374 88.9041 19.2112 92.7161 15.3851C93.151 14.9485 93.586 14.3836 94.3279 14.6147C95.0954 14.8458 95.1466 15.5391 95.2745 16.1554C97.7561 27.5568 89.6716 39.0096 78.1077 40.5246C75.2167 40.9098 72.3769 40.6787 69.5882 39.857C69.1021 39.7029 68.7696 39.7286 68.4114 40.1138C66.9787 41.6031 65.4948 43.0668 64.0365 44.5562C62.1945 43.9913 60.685 44.4278 59.4058 45.8915C58.4337 46.9957 57.3335 47.9458 56.2846 48.973C56.0543 48.7162 55.8497 48.4337 55.5938 48.1769C52.4726 45.0441 49.3258 41.8856 46.2045 38.7528C45.9487 38.4703 45.5649 38.2392 45.5649 37.7513Z" fill="#017DA9"/>
<path d="M65.4181 50.6934C65.6739 50.9759 65.9297 51.2584 66.2112 51.5152C75.7795 61.119 85.3223 70.7229 94.8907 80.3011C96.9886 82.4068 98.1399 84.9233 97.9864 87.8764C97.7817 92.1134 95.8117 95.3746 91.8718 97.0694C88.1366 98.6615 84.5292 98.2506 81.3313 95.5287C80.6661 94.9637 80.0521 94.3988 79.438 93.7825C70.2023 84.5381 60.992 75.2681 51.7563 66.0237C51.4748 65.7412 51.1934 65.4844 50.9376 65.2277C55.7729 60.3744 60.6083 55.5211 65.4181 50.6934ZM85.7829 78.8888C85.7573 78.4266 85.3735 78.0927 85.0153 77.7332C79.438 72.1353 73.8352 66.5116 68.2579 60.9136C68.002 60.6568 67.695 60.4 67.3624 60.1946C66.8764 59.8608 66.467 60.0405 66.0832 60.4C65.6739 60.7595 65.546 61.2218 65.8274 61.684C66.0065 61.9921 66.2367 62.2489 66.467 62.5057C72.0443 68.1294 77.6472 73.7273 83.2245 79.3253C83.5059 79.6078 83.8129 79.9159 84.1967 80.0957C84.9386 80.4038 85.8084 79.8132 85.7829 78.8888ZM79.0031 85.668C79.9241 85.6937 80.5382 84.8206 80.2311 84.0759C80.0521 83.6907 79.7706 83.3826 79.4636 83.1001C73.8863 77.5021 68.2835 71.8785 62.7062 66.2805C62.4503 66.0237 62.1945 65.7926 61.8875 65.6385C61.4014 65.356 60.9665 65.4844 60.6083 65.8953C60.2501 66.2805 60.071 66.6913 60.4036 67.1792C60.5571 67.4103 60.7106 67.6671 60.9153 67.8726C66.6461 73.6246 72.3513 79.3767 78.0821 85.1031C78.3635 85.3855 78.6961 85.6423 79.0031 85.668Z" fill="#FEC007"/>
<path d="M38.1456 44.9927C38.12 44.5305 37.7619 44.2737 37.4548 43.9913C33.5917 40.1138 29.7029 36.2876 25.9165 32.3588C24.9699 31.383 23.921 30.8951 22.6162 30.7153C20.4927 30.4329 18.3692 30.0734 16.2458 29.7395C15.7597 29.6625 15.3759 29.4057 15.1201 28.9435C12.9966 25.1687 10.8476 21.3939 8.72411 17.6191C7.9566 16.2582 8.00776 16.0527 9.10787 14.9742C10.9499 13.1253 12.8431 11.2765 14.634 9.40191C15.3248 8.6829 15.9132 8.55451 16.783 9.06808C20.5439 11.2508 24.3559 13.3821 28.1423 15.5648C28.7051 15.8986 29.0377 16.3352 29.1401 17.0799C29.4983 19.5964 29.9843 22.0872 30.3937 24.6038C30.4449 24.9633 30.5984 25.2457 30.8542 25.5282C35.1523 29.8166 39.4248 34.1306 43.7229 38.419C43.902 38.5987 44.0555 38.8042 44.3625 38.8042C44.3113 39.2407 44.6951 39.3948 44.9254 39.6516C48.3536 43.1182 51.8074 46.5592 55.2612 50.0258C54.5705 50.9759 53.675 51.7463 52.8308 52.568C51.6539 53.7235 50.6306 54.9818 49.3002 55.9833C45.8208 52.4653 42.3158 48.973 38.8364 45.4806C38.6573 45.2239 38.5294 44.9157 38.1456 44.9927Z" fill="#9A9A9A"/>
<path d="M49.3258 55.9319C50.6561 54.9304 51.6795 53.6722 52.8564 52.5166C53.7006 51.6949 54.5961 50.9502 55.2612 49.9744C55.6962 49.7433 56.0288 49.3581 56.3102 48.973C57.3591 47.9458 58.4592 46.97 59.4314 45.8915C60.7362 44.4278 62.2201 43.9913 64.0621 44.5562C64.3947 44.813 64.7273 45.0441 65.0343 45.3009C66.6973 46.7903 66.8252 48.5364 65.4181 50.6678C60.5827 55.5211 55.7473 60.3744 50.912 65.2277C48.9164 66.7427 46.2301 66.4859 44.7974 63.8667C44.2346 61.9408 44.7718 60.3744 46.2557 59.0904C46.9721 58.4741 47.5861 57.7294 48.2513 57.0361C48.6862 56.728 49.0699 56.3941 49.3258 55.9319Z" fill="#F02A64"/>
<path d="M49.3258 55.9319C49.0955 56.4198 48.7118 56.7536 48.2768 57.0361C47.3047 56.1117 46.358 55.1872 45.4114 54.2371C42.9554 51.772 40.4993 49.3068 38.0433 46.8416C37.7874 46.5848 37.5572 46.2767 37.3013 45.9685C37.5828 45.6347 37.8642 45.3009 38.1456 44.9671C38.5038 44.89 38.6573 45.1982 38.8364 45.3779C42.3414 48.9216 45.8208 52.4139 49.3258 55.9319Z" fill="#036D89"/>
<path d="M56.3102 48.973C56.0288 49.3838 55.6962 49.7433 55.2612 49.9744C51.8074 46.5335 48.3792 43.0668 44.9254 39.6002C44.6951 39.3691 44.3369 39.1893 44.3625 38.7528C44.7974 38.4703 45.0533 37.9568 45.5649 37.7256C45.5649 38.2135 45.9487 38.4446 46.2301 38.7271C49.3514 41.8599 52.4982 45.0184 55.6194 48.1512C55.8753 48.4337 56.0799 48.7162 56.3102 48.973Z" fill="#036D89"/>
<path d="M85.7829 78.8888C85.8084 79.8132 84.9386 80.4038 84.1967 80.0957C83.8129 79.9159 83.5059 79.6335 83.2245 79.3253C77.6472 73.7273 72.0443 68.1037 66.467 62.5057C66.2112 62.2489 65.9809 61.9921 65.8274 61.684C65.5716 61.1961 65.6995 60.7595 66.0832 60.4C66.467 60.0405 66.9019 59.8608 67.3624 60.1946C67.6694 60.4 67.9765 60.6568 68.2579 60.9136C73.8608 66.5116 79.438 72.1353 85.0153 77.7332C85.3735 78.0671 85.7573 78.4266 85.7829 78.8888Z" fill="white"/>
<path d="M79.0031 85.668C78.6961 85.6423 78.3635 85.4112 78.0565 85.1031C72.3257 79.351 66.6205 73.6246 60.8897 67.8726C60.685 67.6671 60.5315 67.436 60.378 67.1792C60.071 66.6913 60.2245 66.2805 60.5827 65.8953C60.9665 65.4844 61.4014 65.3817 61.8619 65.6385C62.1689 65.8183 62.4247 66.0494 62.6806 66.2805C68.2835 71.8785 73.8607 77.5021 79.438 83.1001C79.7195 83.3826 80.0265 83.6907 80.2056 84.0759C80.5382 84.8206 79.9241 85.6937 79.0031 85.668Z" fill="white"/>
</svg>
