<svg width="17" height="17" viewBox="0 0 17 17" fill="none" xmlns="http://www.w3.org/2000/svg">
<path d="M0.429688 9.41451C5.76288 9.41451 11.0965 9.41451 16.4297 9.41451C16.4297 11.4994 16.4297 13.5848 16.4297 15.6697C16.3478 15.8317 16.2313 15.9553 16.0547 16.0138C15.5549 16.0138 15.0546 16.0138 14.5548 16.0138C14.5548 15.5499 14.5581 15.0864 14.554 14.6224C14.5464 13.8128 13.936 13.2056 13.1267 13.1989C12.8996 13.1973 12.6728 13.1985 12.4156 13.1985C13.2528 12.9463 13.7025 12.3471 13.6103 11.6385C13.5192 10.9424 12.9618 10.4146 12.2861 10.3858C11.5942 10.3561 10.9725 10.8305 10.8376 11.4903C10.6806 12.2598 11.0593 12.8436 11.9726 13.1985C11.7325 13.1985 11.5283 13.2006 11.3241 13.1981C10.9787 13.1935 10.6676 13.2916 10.3983 13.5088C10.3419 13.5543 10.3069 13.5618 10.2463 13.5121C9.97365 13.2891 9.65713 13.1918 9.30596 13.1977C9.08464 13.2015 8.86292 13.1985 8.60026 13.1985C9.41035 13.0069 9.87176 12.4331 9.83376 11.7053C9.79869 11.0338 9.27631 10.4831 8.58774 10.3908C7.9522 10.3056 7.29745 10.7228 7.09493 11.3508C6.96506 11.7533 7.00766 12.1429 7.22312 12.5083C7.43566 12.8691 7.76137 13.0799 8.16223 13.1885C7.98435 13.1985 7.81273 13.2044 7.64111 13.1977C7.25235 13.1818 6.89783 13.2724 6.59635 13.5259C6.53831 13.5748 6.51117 13.5464 6.46983 13.5134C6.19047 13.2896 5.8702 13.1906 5.51359 13.1981C5.29687 13.2027 5.07974 13.1989 4.86302 13.1989C5.53698 13.0753 6.04265 12.4987 6.05476 11.8235C6.06687 11.1391 5.57999 10.5328 4.92231 10.4129C4.23124 10.2872 3.5719 10.6555 3.33472 11.2998C3.18564 11.7045 3.21654 12.097 3.42324 12.4736C3.62785 12.8469 3.95439 13.0666 4.35901 13.1864C4.15691 13.1989 3.96065 13.1981 3.7644 13.1989C2.91548 13.2019 2.30917 13.8057 2.30583 14.6538C2.30416 15.1072 2.30541 15.5603 2.30541 16.0138C1.80558 16.0138 1.30533 16.0138 0.8055 16.0138C0.618429 15.9507 0.493158 15.8259 0.430523 15.6384C0.429687 13.5639 0.429688 11.489 0.429688 9.41451Z" fill="#9F9F9F"/>
<path d="M3.24243 16.0138C3.24243 15.5611 3.2416 15.1085 3.24285 14.6563C3.24369 14.326 3.43452 14.1381 3.76774 14.1376C4.35526 14.1368 4.94236 14.1368 5.52988 14.1376C5.86894 14.1381 6.05435 14.3272 6.05476 14.6717C6.05518 15.1189 6.05476 15.5666 6.05476 16.0138C5.11732 16.0138 4.17988 16.0138 3.24243 16.0138Z" fill="#9F9F9F"/>
<path d="M7.02352 16.0138C7.02352 15.5611 7.02269 15.1085 7.02394 14.6563C7.02478 14.326 7.21519 14.1381 7.54882 14.1376C8.13634 14.1368 8.72345 14.1368 9.31097 14.1376C9.64419 14.1381 9.83502 14.326 9.83585 14.6563C9.8371 15.1089 9.83627 15.5616 9.83627 16.0138C8.89841 16.0138 7.96097 16.0138 7.02352 16.0138Z" fill="#9F9F9F"/>
<path d="M10.8046 16.0138C10.8046 15.5666 10.8042 15.1189 10.8046 14.6717C10.805 14.3205 10.99 14.1376 11.3449 14.1372C11.922 14.1368 12.4987 14.1368 13.0758 14.1372C13.4299 14.1376 13.6161 14.321 13.6165 14.6717C13.6174 15.1189 13.6169 15.5666 13.6169 16.0138C12.6799 16.0138 11.7425 16.0138 10.8046 16.0138Z" fill="#9F9F9F"/>
<path d="M8.58607 0.000417569C8.63158 0.0547016 8.70006 0.0309001 8.75685 0.0488556C9.26754 0.213378 9.60034 0.739097 9.51224 1.25271C9.41494 1.82185 8.94852 2.20811 8.38271 2.18848C7.84864 2.17011 7.39641 1.74419 7.34004 1.20594C7.28409 0.671034 7.64027 0.163687 8.16307 0.0325704C8.19063 0.0254717 8.22779 0.0396691 8.24241 0C8.35682 0.000417569 8.47165 0.000417569 8.58607 0.000417569Z" fill="#9F9F9F"/>
<path d="M10.1486 4.69056C10.1486 5.01334 10.1415 5.33653 10.1515 5.65932C10.1574 5.84722 10.0972 5.99462 9.92939 6.06895C9.69513 6.17251 9.63918 6.35707 9.61538 6.59008C9.55358 7.19012 9.47006 7.78808 9.40033 8.38771C9.39114 8.46705 9.35732 8.47707 9.29051 8.47707C8.71802 8.4754 8.14553 8.47457 7.57346 8.47749C7.49579 8.47791 7.46865 8.45786 7.45905 8.3756C7.38138 7.7196 7.29369 7.06444 7.21811 6.40802C7.20391 6.28525 7.15547 6.20508 7.05275 6.14704C6.9897 6.11154 6.92832 6.07187 6.86902 6.0297C6.76463 5.95621 6.71035 5.85766 6.71076 5.72571C6.71327 5.04883 6.70742 4.37153 6.71494 3.69465C6.71911 3.33638 6.8423 3.01401 7.05359 2.72422C7.10203 2.65783 7.13167 2.65574 7.19932 2.70376C7.99061 3.26998 8.87502 3.27165 9.65839 2.70752C9.73522 2.65198 9.76445 2.66576 9.8133 2.73341C10.0192 3.02028 10.1369 3.33805 10.1453 3.69048C10.1536 4.0237 10.1469 4.35692 10.1469 4.69056C10.1474 4.69056 10.1482 4.69056 10.1486 4.69056Z" fill="#9F9F9F"/>
<path d="M4.19658 5.37119C4.19658 4.41287 4.19658 3.45455 4.19658 2.49623C4.19658 2.12919 4.28218 2.01143 4.63377 1.89409C5.06679 1.74961 5.49898 1.60305 5.93408 1.46442C6.15665 1.39343 6.38631 1.49699 6.48778 1.69784C6.588 1.89618 6.52745 2.14965 6.3479 2.28577C6.2886 2.33045 6.22012 2.35425 6.15122 2.37722C5.87061 2.47076 5.59293 2.57431 5.30815 2.65323C5.16367 2.69332 5.1311 2.76055 5.13152 2.90294C5.13695 4.70517 5.13319 6.5074 5.1382 8.30921C5.13862 8.44534 5.10897 8.48793 4.96908 8.47916C4.75654 8.4658 4.54233 8.46872 4.32937 8.47832C4.21662 8.48334 4.19366 8.44575 4.19407 8.33927C4.19825 7.35047 4.19658 6.36083 4.19658 5.37119Z" fill="#9F9F9F"/>
<path d="M5.11732 11.7951C5.11523 12.049 4.90227 12.2602 4.64881 12.2602C4.3895 12.2602 4.17403 12.0389 4.18029 11.7796C4.18656 11.5262 4.40328 11.3182 4.65674 11.3224C4.91062 11.3266 5.11941 11.5408 5.11732 11.7951Z" fill="#9F9F9F"/>
<path d="M8.43407 11.3224C8.68795 11.3249 8.89883 11.5379 8.89841 11.7917C8.89799 12.0519 8.6771 12.2669 8.41779 12.2603C8.16432 12.2536 7.95721 12.0369 7.96138 11.783C7.96556 11.5295 8.18061 11.3199 8.43407 11.3224Z" fill="#9F9F9F"/>
<path d="M12.2164 11.3224C12.4699 11.3253 12.6803 11.5391 12.6795 11.793C12.6782 12.0531 12.4569 12.2678 12.1976 12.2602C11.9446 12.2531 11.7375 12.0356 11.7425 11.7817C11.7471 11.5283 11.9625 11.3195 12.2164 11.3224Z" fill="#9F9F9F"/>
</svg>
