<svg width="98" height="100" viewBox="0 0 98 100" fill="none" xmlns="http://www.w3.org/2000/svg">
<path d="M85.9083 100C61.2517 100 36.5951 100 11.9384 100C11.8408 99.9511 11.7431 99.8534 11.6455 99.8046C5.34706 98.681 0.36691 93.4538 0.122785 87.1519C-0.12134 81.2897 0.0739598 75.3786 0.0739598 69.5164C0.36691 69.2233 0.708685 68.9301 1.00164 68.637C8.66716 60.9673 16.3327 53.3464 23.9494 45.6278C24.6329 44.9438 24.9747 44.895 25.7071 45.6278C31.7614 51.7831 37.9133 57.9384 43.9677 64.0449C45.2371 65.3639 45.2371 65.3151 46.5065 64.0938C55.6368 55.0073 64.8159 45.872 73.9462 36.7367C74.4833 36.1993 74.8251 36.1016 75.411 36.6878C77.9499 39.3258 80.5864 41.915 83.1741 44.553C88.1055 49.4871 92.988 54.4211 97.9193 59.3552C97.9193 59.5017 97.9681 59.5994 97.9681 59.746C97.9681 68.637 98.0658 77.5281 97.9193 86.468C97.8216 91.8906 95.0874 95.8964 90.3026 98.5344C88.9355 99.2672 87.4219 99.5603 85.9083 100Z" fill="#00B493"/>
<path d="M0.0739598 69.5164C0.0739598 68.8324 0.0251348 68.1485 0.0251348 67.4646C0.0251348 49.7802 0.0251348 32.0469 0.0251348 14.3625C0.0251348 7.3278 4.37056 1.80752 11.0596 0.293112C12.0849 0.048852 13.1591 0 14.2332 0C37.3763 0 60.5193 0 83.6624 0C91.7185 0 97.8705 5.95994 97.8705 13.9717C97.9193 29.0181 97.8705 44.0156 97.8705 59.062C97.8705 59.1597 97.8705 59.2575 97.8705 59.3552C92.9391 54.4211 88.0566 49.4871 83.1253 44.553C80.5376 41.9638 77.9499 39.3258 75.3621 36.6878C74.7762 36.1016 74.4345 36.1505 73.8974 36.7367C64.7671 45.872 55.588 54.9585 46.4577 64.0938C45.1883 65.364 45.1883 65.364 43.9188 64.0449C37.9133 57.9384 31.8102 51.7831 25.7071 45.6278C24.9747 44.895 24.6329 44.9438 23.9494 45.6278C16.3327 53.2975 8.66716 60.9673 1.00164 68.637C0.708685 68.9301 0.415735 69.2233 0.0739598 69.5164ZM44.8465 24.3771C40.0616 24.3771 36.2045 28.2364 36.1556 33.0239C36.1068 37.8114 40.0616 41.8173 44.8465 41.8173C49.6313 41.8173 53.5862 37.8603 53.5373 33.0728C53.4885 28.2853 49.5825 24.3771 44.8465 24.3771Z" fill="#017DA9"/>
<path d="M44.8465 24.3771C49.6313 24.3771 53.5374 28.2853 53.5374 33.0239C53.5374 37.8114 49.6314 41.7684 44.8465 41.7684C40.0616 41.7684 36.1068 37.8114 36.1556 32.9751C36.1556 28.2364 40.0616 24.3771 44.8465 24.3771Z" fill="#FEC007"/>
</svg>
