<svg width="18" height="18" viewBox="0 0 18 18" fill="none" xmlns="http://www.w3.org/2000/svg">
<path d="M11.7615 13.7411C12.7718 13.128 13.5399 12.2933 14.0244 11.2114C14.0502 11.1547 14.076 11.0929 14.0966 11.0311C14.1017 11.0156 14.1069 10.995 14.1069 10.9744C14.0399 10.9383 13.9677 10.9589 13.9007 10.9589C12.6326 10.9589 11.3698 10.9589 10.1017 10.9589C9.61201 10.9589 9.40582 10.7477 9.40582 10.2531C9.40582 9.53176 9.40582 8.81561 9.40582 8.0943C9.40582 7.66667 9.63262 7.44513 10.0605 7.44513C12.4522 7.44513 14.844 7.44513 17.2306 7.44513C17.6636 7.44513 17.8801 7.63061 17.9317 8.06854C18.2203 10.4901 17.5915 12.6591 16.1018 14.5758C15.442 15.4259 14.6327 16.1163 13.7151 16.6779C13.6481 16.7191 13.5811 16.75 13.5141 16.7861C12.9316 15.7711 12.344 14.7561 11.7615 13.7411Z" fill="#167EE5"/>
<path d="M1.23049 13.499C0.792343 12.8034 0.493371 12.0512 0.292338 11.2577C-0.284986 8.95472 -0.00663321 6.75988 1.12224 4.6681C1.15317 4.61142 1.18925 4.5599 1.22534 4.50838C2.23565 5.09057 3.24597 5.67277 4.25629 6.26012C4.03979 6.70321 3.8233 7.1463 3.70474 7.62545C3.35938 9.01655 3.51402 10.3458 4.19443 11.6081C4.22021 11.6545 4.23567 11.7008 4.25629 11.7472C3.25113 12.3346 2.24081 12.9168 1.23049 13.499Z" fill="#FED401"/>
<path d="M4.26144 6.26012C3.25113 5.67792 2.24081 5.09573 1.23049 4.50838C1.60163 3.80253 2.09648 3.18942 2.65834 2.63298C4.07588 1.22643 5.77692 0.381471 7.74601 0.087796C8.15838 0.0259697 8.57591 -0.0152478 8.99344 0.00536095C8.99344 1.17491 8.99344 2.34446 8.99344 3.50885C8.32333 3.53976 7.66869 3.63766 7.03982 3.89011C5.91094 4.33835 5.02434 5.08027 4.37485 6.1004C4.33361 6.15708 4.29753 6.2086 4.26144 6.26012Z" fill="#FE4B27"/>
<path d="M1.23049 13.499C2.24081 12.9168 3.25113 12.3346 4.26144 11.7524C4.53464 12.1542 4.813 12.5561 5.16351 12.8961C6.15837 13.8545 7.33879 14.3954 8.72025 14.4727C8.80787 14.4779 8.90066 14.4882 8.98829 14.4933C8.98829 15.6629 8.98829 16.8324 8.98829 17.9968C7.59137 18.0071 6.26662 17.6877 5.01918 17.0694C3.45216 16.2914 2.21504 15.1425 1.30266 13.6484C1.27688 13.602 1.25626 13.5505 1.23049 13.499Z" fill="#13B347"/>
<path d="M8.99344 3.514C8.99344 2.34446 8.99344 1.17491 8.99344 0.0105132C10.2563 -0.0204 11.4574 0.252666 12.612 0.757581C13.4368 1.11308 14.1842 1.59739 14.8646 2.17959C15.1791 2.4475 15.21 2.81331 14.9213 3.10183C14.3852 3.64796 13.844 4.18894 13.2976 4.72477C13.0502 4.97207 12.7357 4.98753 12.4625 4.77114C11.7048 4.15803 10.844 3.77161 9.8852 3.60674C9.59139 3.55007 9.28726 3.56553 8.99344 3.514Z" fill="#D83F22"/>
<path d="M8.99344 17.9968C8.99344 16.8273 8.99344 15.6577 8.99344 14.4933C9.30272 14.4367 9.61201 14.4573 9.92129 14.4006C10.5347 14.2872 11.112 14.0863 11.6584 13.7875C11.6893 13.7669 11.7306 13.7566 11.7615 13.7411C12.344 14.7561 12.9316 15.7711 13.5141 16.7861C13.0605 17.0952 12.5605 17.3013 12.0502 17.4816C11.0656 17.8319 10.045 18.0277 8.99344 17.9968Z" fill="#10993E"/>
</svg>
