<svg width="16" height="16" viewBox="0 0 16 16" fill="none" xmlns="http://www.w3.org/2000/svg">
<path d="M8.39055 16C8.22781 16 8.06507 16 7.90233 16C7.89378 15.9575 7.85595 15.9662 7.8295 15.9596C7.46537 15.8658 7.17935 15.6561 6.9511 15.3535C6.77412 15.1188 6.5833 14.895 6.40714 14.6599C6.24521 14.4435 6.04748 14.3752 5.79116 14.4523C5.48968 14.5427 5.18535 14.6232 4.88184 14.7053C3.96031 14.9546 3.09208 14.3572 2.98345 13.3868C2.9448 13.0408 2.9387 12.6911 2.92812 12.3426C2.91958 12.06 2.80159 11.8741 2.53591 11.7787C2.2446 11.674 1.95858 11.5536 1.67012 11.4406C0.738427 11.0754 0.394635 10.0046 0.933717 9.14256C1.10622 8.86703 1.27995 8.59191 1.45734 8.31972C1.5973 8.10463 1.5977 7.89662 1.45775 7.68153C1.27466 7.40058 1.09361 7.11797 0.918257 6.83201C0.401551 5.99 0.750633 4.91997 1.65507 4.5644C1.95289 4.44727 2.24989 4.32764 2.54975 4.21676C2.80118 4.1238 2.91876 3.94373 2.9269 3.67403C2.93626 3.36182 2.95009 3.0496 2.9684 2.73781C3.03146 1.68237 3.91067 1.0346 4.9095 1.30554C5.20814 1.38683 5.50758 1.46686 5.80499 1.5519C6.04788 1.62151 6.24073 1.55773 6.39697 1.35306C6.60039 1.0867 6.81033 0.825344 7.01945 0.563985C7.22492 0.306794 7.48408 0.135056 7.79939 0.0491872C7.84293 0.0370988 7.90396 0.0591913 7.93284 0C8.07524 0 8.21764 0 8.36004 0C8.37103 0.00875365 8.38079 0.0241767 8.39259 0.0254273C8.78195 0.0691955 9.09035 0.262193 9.33609 0.566486C9.54643 0.827011 9.75515 1.0892 9.95857 1.35556C10.1156 1.56065 10.3093 1.62109 10.5518 1.55106C10.8589 1.46228 11.1673 1.37891 11.4757 1.29387C12.383 1.04335 13.2643 1.6461 13.3684 2.6015C13.4071 2.9579 13.4136 3.31805 13.427 3.67695C13.4372 3.94706 13.5556 4.12464 13.807 4.21717C14.1073 4.32764 14.4047 4.44519 14.7013 4.56607C15.624 4.94206 15.9556 6.00208 15.4194 6.86077C15.2444 7.14089 15.0675 7.41976 14.8888 7.69737C14.7566 7.90288 14.7586 8.10296 14.8905 8.30763C15.0776 8.59817 15.2656 8.88829 15.445 9.18424C15.9393 9.99917 15.6171 11.0388 14.7534 11.4114C14.4454 11.5444 14.1329 11.6665 13.818 11.7807C13.5527 11.877 13.4327 12.0613 13.4262 12.3443C13.4197 12.6461 13.4038 12.9475 13.3863 13.2489C13.3249 14.3222 12.4396 14.9742 11.4285 14.6924C11.1352 14.6107 10.841 14.5331 10.5485 14.4489C10.3052 14.3789 10.1132 14.4439 9.95695 14.6486C9.75067 14.9191 9.53789 15.1847 9.3251 15.4498C9.13266 15.689 8.88814 15.8483 8.59886 15.9404C8.52929 15.9608 8.44996 15.9454 8.39055 16ZM10.8695 5.70404C10.8642 5.48645 10.7662 5.32472 10.5737 5.23468C10.3683 5.13839 10.1734 5.17466 10.0107 5.33264C9.80804 5.52939 9.61397 5.73572 9.41624 5.93831C8.04758 7.34056 6.67892 8.74364 5.30944 10.1446C5.20244 10.2539 5.11334 10.3697 5.09788 10.5294C5.07672 10.747 5.19349 10.9583 5.38552 11.0529C5.57959 11.1484 5.80662 11.1105 5.97384 10.9408C6.42178 10.4869 6.86607 10.0292 7.31157 9.57274C8.4288 8.42809 9.54562 7.28303 10.6641 6.13922C10.7833 6.01709 10.876 5.88662 10.8695 5.70404ZM6.11257 5.18633C5.55233 5.18758 5.09666 5.65444 5.09625 6.22801C5.09584 6.79908 5.55315 7.27178 6.11013 7.27595C6.66996 7.28012 7.14029 6.79742 7.13622 6.22301C7.13215 5.65152 6.67159 5.18508 6.11257 5.18633ZM9.83163 11.1C10.3976 11.1105 10.8565 10.6611 10.8691 10.085C10.8817 9.49938 10.4383 9.02626 9.86744 9.01667C9.30679 9.00709 8.84827 9.46269 8.83687 10.0408C8.82508 10.6161 9.26977 11.0896 9.83163 11.1Z" fill="#9F9F9F"/>
</svg>
