<svg width="17" height="12" viewBox="0 0 17 12" fill="none" xmlns="http://www.w3.org/2000/svg">
<path d="M0.101562 10.9715C0.175959 10.8694 0.160297 10.7446 0.18379 10.6312C0.520532 8.82753 2.01238 7.33393 3.88012 7.00118C5.11353 6.78187 6.31954 6.88018 7.42765 7.50409C8.62191 8.17715 9.37762 9.16784 9.69479 10.4686C9.80834 10.9412 9.82009 11.4252 9.81617 11.9092C9.81617 11.9735 9.79659 12.0038 9.72611 11.9962C9.69087 11.9924 9.65172 11.9962 9.61648 11.9962C6.50357 11.9962 3.38675 11.9962 0.273849 11.9962C0.215115 11.9962 0.160297 11.9962 0.101562 12C0.101563 11.6559 0.101562 11.3156 0.101562 10.9715Z" fill="#9F9F9F"/>
<path d="M8.5436 7.12974C9.14269 6.60793 9.82792 6.26384 10.6071 6.12015C11.4764 5.96134 12.3496 5.98024 13.1875 6.28652C14.6441 6.8159 15.5682 7.81415 15.9715 9.26615C16.1203 9.80687 16.1007 10.3627 16.1007 10.9148C16.1007 11.1681 16.1007 11.1681 15.8462 11.1681C14.1977 11.1681 12.5453 11.1681 10.8969 11.1681C10.7912 11.1681 10.7324 11.1643 10.7207 11.032C10.5875 9.49681 9.89448 8.23387 8.67673 7.2394C8.63366 7.20537 8.59059 7.16756 8.5436 7.12974Z" fill="#9F9F9F"/>
<path d="M7.87795 3.02708C7.88186 4.20683 7.10657 5.35255 5.99063 5.77605C4.78854 6.2298 3.44549 5.85546 2.67803 4.85343C1.69521 3.57158 1.84792 1.83221 3.04218 0.728079C4.16596 -0.311766 6.02587 -0.224797 7.05176 0.905798C7.59602 1.49946 7.86229 2.19142 7.87795 3.02708Z" fill="#9F9F9F"/>
<path d="M9.09178 2.83046C9.12311 1.9948 9.53033 1.21208 10.427 0.720517C11.539 0.111735 12.8625 0.440704 13.6182 1.47677C14.4914 2.67164 14.1507 4.39212 12.886 5.17862C11.8249 5.84034 10.3918 5.57187 9.63214 4.57362C9.2719 4.09718 9.09178 3.56402 9.09178 2.83046Z" fill="#9F9F9F"/>
</svg>
