<svg width="98" height="89" viewBox="0 0 98 89" fill="none" xmlns="http://www.w3.org/2000/svg">
<path d="M0.0511309 58.6439C0.511309 58.1326 1.07375 58.0048 1.73845 58.0048C13.1406 58.0048 24.5173 58.0048 35.9194 58.0048C37.2744 58.0048 37.5556 58.286 37.5556 59.6154C37.5556 62.7344 37.5301 65.8534 37.5301 68.9724C37.0443 69.4581 36.4819 69.5604 35.7916 69.5604C24.4406 69.5348 13.1151 69.5348 1.76401 69.5604C1.09931 69.5604 0.511309 69.4581 0.0255654 68.9724C0.0511309 65.5466 0.0511309 62.0952 0.0511309 58.6439Z" fill="#0696BC"/>
<path d="M0.0511309 68.9724C0.536874 69.4581 1.09931 69.5604 1.78958 69.5604C13.1406 69.5348 24.4661 69.5348 35.8172 69.5604C36.4819 69.5604 37.0699 69.4581 37.5556 68.9724C37.5556 72.0913 37.5556 75.2103 37.5556 78.3549C37.0187 78.815 36.4052 78.9429 35.7149 78.9429C24.4661 78.9173 13.1918 78.9173 1.94297 78.9429C1.22714 78.9429 0.639136 78.815 0.102262 78.3549C0.0511309 75.2359 0.0511309 72.1169 0.0511309 68.9724Z" fill="#017DA9"/>
<path d="M0.0511309 78.3549C0.588005 78.815 1.20158 78.9429 1.89184 78.9429C13.1406 78.9173 24.415 78.9173 35.6638 78.9429C36.3796 78.9429 36.9932 78.815 37.5045 78.3549C37.5045 81.2182 37.53 84.0815 37.53 86.9448C37.53 87.7629 37.0699 88.172 36.2773 88.172C36.1495 88.172 36.0217 88.172 35.8939 88.172C24.4917 88.172 13.0895 88.172 1.68732 88.172C0.997052 88.172 0.434612 88.0442 0 87.5073C0.0511309 84.4906 0.0511309 81.4227 0.0511309 78.3549Z" fill="#00647F"/>
<path d="M84.3659 25.1021C86.7435 27.224 88.6353 29.7294 90.3482 32.3882C93.7484 37.5269 96.305 43.049 97.5065 49.1336C98.0434 51.8691 98.2224 54.6301 97.6344 57.3912C96.5606 62.3509 93.4416 65.3676 88.4564 66.288C87.2037 66.5181 85.9254 66.6203 84.6471 66.6459C76.0827 66.7737 67.5183 66.7737 58.9539 66.6459C56.7297 66.6203 54.5055 66.3391 52.4347 65.4443C47.9607 63.4758 46.0689 59.7944 45.7621 55.1415C45.4553 50.1051 46.8359 45.3755 48.8044 40.7992C51.182 35.2515 54.3521 30.1896 58.5448 25.8435C58.7749 25.5878 59.0561 25.3833 59.3374 25.1532C60.9735 25.6901 62.6609 25.5623 64.3482 25.5623C69.4101 25.5623 74.4977 25.5623 79.5596 25.5623C81.1702 25.5623 82.8064 25.6901 84.3659 25.1021ZM70.6117 49.5426C70.6117 50.5397 70.5862 51.5112 70.6117 52.5082C70.6373 53.0195 70.4583 53.0962 69.9981 52.9428C68.362 52.406 67.0837 51.5367 66.8792 49.6193C66.7769 48.7757 66.2656 48.3666 65.4219 48.4689C64.6038 48.5711 64.3482 49.1591 64.3482 49.9005C64.3482 50.1306 64.3993 50.3352 64.4249 50.5652C64.9618 52.994 66.5724 54.4768 68.7966 55.167C70.0493 55.5505 70.8929 55.9084 70.6373 57.4679C70.535 58.1326 71.0975 58.5672 71.7877 58.6184C72.5291 58.6439 72.9893 58.2349 73.0916 57.4935C73.1427 57.11 73.1427 56.7265 73.1171 56.343C73.066 55.8317 73.2194 55.6272 73.7818 55.5249C74.7533 55.3715 75.6737 54.9625 76.5173 54.4256C80.3266 52.0225 80.301 47.2417 76.4662 44.8642C75.6225 44.3273 74.7022 43.9949 73.7307 43.7648C73.3472 43.6881 73.1171 43.5859 73.1171 43.1257C73.1427 41.1827 73.1427 39.2398 73.1171 37.2968C73.1171 36.8622 73.2705 36.7343 73.6796 36.811C75.1624 37.0667 76.5685 38.4728 76.773 39.93C76.9008 40.8759 77.4888 41.4384 78.2302 41.3361C79.0227 41.2083 79.4574 40.4925 79.304 39.521C78.8949 36.9389 77.2587 35.3283 74.9323 34.5869C73.6284 34.1778 72.8359 33.7943 73.066 32.2348C73.1683 31.5446 72.478 31.11 71.7877 31.11C71.0975 31.1355 70.6884 31.5701 70.6117 32.2604C70.5862 32.6183 70.5606 32.9762 70.6117 33.3086C70.6628 33.8455 70.4839 34.0755 69.9214 34.1778C68.9755 34.3312 68.1063 34.7402 67.2882 35.226C64.3482 37.0156 63.5045 40.4413 65.3452 43.0234C66.4701 44.5829 68.0296 45.4522 69.8447 45.8612C70.4839 46.0146 70.6628 46.2703 70.6373 46.8838C70.5861 47.8297 70.6117 48.6734 70.6117 49.5426Z" fill="#017DA9"/>
<path d="M16.8732 50.3096C16.9499 45.6822 18.4327 41.873 20.9125 38.4472C24.2105 33.9221 28.5054 30.5731 33.3373 27.8887C34.181 27.4285 34.3855 26.9939 34.0787 26.1247C33.7719 25.281 33.593 24.4118 33.3629 23.5426C33.2351 23.0057 33.2862 22.52 33.7719 22.1621C34.2065 21.8297 34.6667 21.8808 35.1269 22.1365C39.2941 24.5396 43.4612 26.9428 47.6284 29.3459C48.3442 29.755 48.4976 30.3686 48.0886 31.0588C45.6854 35.2516 43.2567 39.4443 40.828 43.637C40.5979 44.0461 40.2144 44.3017 39.7287 44.2506C39.1918 44.1995 38.8594 43.8671 38.7061 43.3558C38.4248 42.4099 38.1436 41.464 37.9391 40.4925C37.7857 39.7766 37.53 39.6744 36.8653 39.93C31.3943 41.8986 26.7926 45.1709 22.7788 49.3637C21.5517 50.6419 20.4268 51.9713 19.4297 53.403C19.0718 53.9399 18.6372 54.2211 17.9725 54.0677C17.3334 53.9143 17.18 53.3774 17.1033 52.815C17.001 51.8691 16.8221 50.9232 16.8732 50.3096Z" fill="#F02A64"/>
<path d="M61.1014 14.6458C60.7946 12.6006 60.1043 10.6576 59.593 8.63794C59.005 6.36262 58.3914 4.0873 57.8034 1.81197C57.4966 0.610397 58.0335 -0.00317282 59.2862 0.047958C60.4367 0.0990889 61.3059 0.738225 62.2007 1.35179C62.9165 1.8631 63.6323 2.42554 64.3482 2.93685C65.0384 3.42259 65.7543 3.47373 66.4701 2.96242C67.3649 2.29772 68.2597 1.63301 69.18 0.993879C71.1486 -0.335523 72.6825 -0.335524 74.651 1.01944C75.4947 1.60745 76.3128 2.22102 77.1053 2.83459C77.9746 3.49929 78.7926 3.44816 79.6363 2.83459C80.5822 2.14432 81.5282 1.42849 82.4996 0.76379C83.1132 0.329177 83.7779 0.0735235 84.5449 0.047958C85.7209 0.0223926 86.2578 0.584832 85.9765 1.78641C85.6698 3.11581 85.2863 4.41965 84.9284 5.74905C84.1358 8.68907 83.3433 11.6291 82.5508 14.5947C75.3924 14.6458 68.2341 14.6458 61.1014 14.6458Z" fill="#017DA9"/>
<path d="M61.1014 14.6458C68.2341 14.6458 75.3924 14.6203 82.5252 14.6203C86.7435 15.2083 88.712 19.7845 86.4623 23.1591C85.9254 23.9772 85.0817 24.4629 84.3915 25.1021C82.832 25.6901 81.1958 25.5367 79.5852 25.5367C74.5232 25.5367 69.4357 25.5367 64.3737 25.5367C62.6864 25.5367 60.9991 25.6645 59.3629 25.1276C59.2607 25.0254 59.1584 24.872 59.0561 24.7953C57.0109 23.4403 56.0139 21.574 56.474 19.1198C56.9086 16.5632 58.5704 15.1316 61.1014 14.6458Z" fill="#00647F"/>
<path d="M70.6117 49.5426C70.6117 48.6734 70.5862 47.8297 70.6117 46.9605C70.6373 46.3469 70.4583 46.0913 69.8192 45.9379C68.004 45.5289 66.4445 44.6596 65.3197 43.1001C63.479 40.518 64.3226 37.0923 67.2626 35.3027C68.0807 34.7914 68.9755 34.4079 69.8959 34.2545C70.4583 34.1522 70.6628 33.9221 70.5861 33.3853C70.5606 33.0274 70.5606 32.695 70.5861 32.3371C70.6373 31.6213 71.0719 31.1866 71.7622 31.1866C72.478 31.1611 73.1427 31.5957 73.0404 32.3115C72.8103 33.871 73.6029 34.2289 74.9067 34.6635C77.2332 35.4049 78.8949 37.0156 79.2784 39.5977C79.4318 40.5692 78.9972 41.3106 78.2047 41.4128C77.4632 41.5151 76.8752 40.9526 76.7474 40.0067C76.5429 38.5495 75.1368 37.1434 73.654 36.8877C73.2194 36.811 73.0916 36.9389 73.0916 37.3735C73.0916 39.3165 73.1171 41.2594 73.0916 43.2024C73.0916 43.6881 73.3216 43.7648 73.7051 43.8415C74.6766 44.0716 75.597 44.404 76.4406 44.9408C80.2754 47.3184 80.301 52.0992 76.4918 54.5023C75.6481 55.0392 74.7533 55.4482 73.7563 55.6016C73.2194 55.6783 73.066 55.9084 73.0916 56.4197C73.1171 56.8032 73.1427 57.1867 73.066 57.5702C72.9637 58.3116 72.5036 58.7206 71.7622 58.695C71.0719 58.6695 70.4839 58.2093 70.6117 57.5446C70.8674 55.9851 70.0237 55.6528 68.771 55.2437C66.5212 54.5279 64.9106 53.0451 64.3993 50.6419C64.3482 50.4374 64.3226 50.2073 64.3226 49.9772C64.3226 49.2358 64.5783 48.6478 65.3964 48.5456C66.24 48.4433 66.7513 48.8524 66.8536 49.696C67.0581 51.5879 68.3364 52.4571 69.9726 53.0195C70.4328 53.1729 70.5861 53.0707 70.5861 52.5849C70.5861 51.5112 70.6117 50.5397 70.6117 49.5426ZM70.6117 40.1345C70.6117 39.1886 70.6117 38.2171 70.6117 37.2712C70.6117 36.8622 70.535 36.7088 70.0748 36.811C68.4386 37.169 67.0326 38.5495 66.9047 39.9812C66.8025 41.2083 67.8762 42.5633 69.4868 43.1768C69.6658 43.2535 69.8448 43.3047 70.0237 43.3558C70.4839 43.5347 70.6373 43.3814 70.6373 42.8956C70.5861 41.9753 70.6117 41.0549 70.6117 40.1345ZM73.1171 49.6705C73.1171 50.1051 73.0916 50.5652 73.1171 50.9999C73.1683 51.6646 72.8103 52.7639 73.2961 52.9428C74.0119 53.1985 74.83 52.5593 75.4947 52.0736C76.8752 51.0254 77.2076 49.4404 76.2617 48.1621C75.6481 47.3184 74.7789 46.8071 73.7818 46.5003C73.2705 46.3469 73.0916 46.5259 73.1171 47.0372C73.1427 47.8809 73.1171 48.7757 73.1171 49.6705Z" fill="#017DA9"/>
<path d="M70.6117 40.1345C70.6117 41.0549 70.5862 41.9753 70.6117 42.8956C70.6373 43.3814 70.4839 43.5347 69.9981 43.3558C69.8192 43.2791 69.6402 43.228 69.4613 43.1768C67.8506 42.5633 66.7769 41.2083 66.8792 39.9812C67.007 38.5495 68.4131 37.169 70.0493 36.811C70.535 36.7088 70.5861 36.8622 70.5861 37.2712C70.6117 38.2171 70.6117 39.1886 70.6117 40.1345Z" fill="#017DA9"/>
<path d="M73.1171 49.6705C73.1171 48.7757 73.1427 47.8809 73.1171 47.0117C73.0916 46.5003 73.2705 46.3214 73.7818 46.4748C74.7789 46.7816 75.6481 47.2929 76.2617 48.1365C77.2076 49.4148 76.8752 50.9999 75.4947 52.048C74.83 52.5593 74.0119 53.1985 73.2961 52.9173C72.8103 52.7383 73.1683 51.6646 73.1171 50.9743C73.0916 50.5652 73.1171 50.1051 73.1171 49.6705Z" fill="#017DA9"/>
</svg>
