<svg width="15" height="14" viewBox="0 0 15 14" fill="none" xmlns="http://www.w3.org/2000/svg">
<path d="M10.3203 9.94971L11.5258 8.74368C11.6882 8.58326 11.8936 8.47345 12.1171 8.42757C12.3407 8.3817 12.5728 8.40174 12.7851 8.48525L14.2544 9.07211C14.469 9.15927 14.6531 9.30803 14.7833 9.49966C14.9136 9.69128 14.9842 9.91719 14.9863 10.1489V12.8409C14.9851 12.9986 14.952 13.1543 14.889 13.2988C14.8259 13.4433 14.7344 13.5735 14.6197 13.6817C14.5051 13.7898 14.3698 13.8737 14.2219 13.9281C14.074 13.9825 13.9166 14.0065 13.7593 13.9985C3.46377 13.3578 1.38637 4.63567 0.993495 1.29757C0.975258 1.13365 0.991921 0.967719 1.04239 0.8107C1.09286 0.653681 1.17598 0.509132 1.2863 0.386561C1.39662 0.26399 1.53164 0.166176 1.68246 0.0995532C1.83328 0.0329307 1.99649 -0.000990209 2.16136 2.2004e-05H4.7608C4.99276 0.000708891 5.21921 0.0708044 5.41103 0.201293C5.60285 0.331781 5.75126 0.516695 5.83717 0.73225L6.42379 2.20209C6.51004 2.41372 6.53204 2.64608 6.48705 2.87015C6.44207 3.09421 6.33208 3.30005 6.17084 3.46195L4.96531 4.66797C4.96531 4.66797 5.65957 9.36823 10.3203 9.94971Z" fill="#9F9F9F"/>
</svg>
