<svg width="14" height="15" viewBox="0 0 14 15" fill="none" xmlns="http://www.w3.org/2000/svg">
<path d="M6.99363 3.03174e-05C10.835 -0.0112564 13.9934 3.13036 14 6.97836C14.0066 10.8392 10.9288 13.9555 7.08938 14.0034C3.19155 14.0521 0.022306 10.9396 0.000121683 7.05815C-0.0224518 3.14592 3.09853 0.0113171 6.99363 3.03174e-05ZM7.46534 4.39136C7.76542 4.6926 8.04136 4.9701 8.31847 5.24643C8.5407 5.46827 8.81781 5.48228 9.01552 5.28418C9.21323 5.08647 9.19922 4.80936 8.97777 4.58713C8.44223 4.05042 7.90631 3.51411 7.36921 2.97857C7.1283 2.73804 6.87065 2.73765 6.6309 2.97662C6.0942 3.51216 5.55827 4.04848 5.02234 4.58518C4.79933 4.80858 4.78376 5.08336 4.98031 5.28185C5.17763 5.48112 5.45513 5.46866 5.67736 5.24838C5.93268 4.99501 6.18605 4.73969 6.44175 4.48671C6.4651 4.46375 6.47834 4.41627 6.53166 4.43067C6.53166 4.47582 6.53166 4.51941 6.53166 4.563C6.53166 5.85592 6.53282 7.14883 6.5301 8.44175C6.52971 8.63791 6.59354 8.79475 6.76323 8.89634C6.91151 8.98546 7.06875 8.98858 7.22015 8.90373C7.39256 8.80682 7.46651 8.65425 7.46612 8.45693C7.46457 7.16401 7.46534 5.87109 7.46534 4.57818C7.46534 4.52758 7.46534 4.47659 7.46534 4.39136ZM6.99869 10.2714C7.96624 10.2714 8.9334 10.2722 9.90095 10.271C10.1967 10.2706 10.4022 10.0865 10.4065 9.80395C10.4135 9.36649 10.4135 8.92864 10.4061 8.49157C10.4015 8.22886 10.1882 8.02764 9.93831 8.02881C9.67911 8.02998 9.47945 8.23509 9.47556 8.50869C9.47244 8.73209 9.46466 8.95666 9.47867 9.17928C9.48762 9.32095 9.43469 9.34158 9.30976 9.34041C8.60998 9.33457 7.90981 9.33769 7.20964 9.33769C6.35885 9.33769 5.50806 9.33574 4.65766 9.34002C4.55414 9.34041 4.51055 9.32407 4.51911 9.2077C4.53078 9.04812 4.52378 8.887 4.52144 8.72665C4.51989 8.61027 4.52962 8.4904 4.50588 8.37831C4.45878 8.1588 4.22954 8.00585 4.01393 8.03037C3.76951 8.058 3.59282 8.24949 3.5897 8.50597C3.58503 8.91424 3.58776 9.32251 3.58853 9.73117C3.58892 10.0865 3.77263 10.271 4.12563 10.271C5.08345 10.2718 6.04127 10.2714 6.99869 10.2714Z" fill="#9F9F9F"/>
</svg>
