<svg width="19" height="17" viewBox="0 0 19 17" fill="none" xmlns="http://www.w3.org/2000/svg">
<path d="M9.19353 4.92841C12.1139 4.92841 15.0392 4.92841 17.9595 4.92339C18.1635 4.92339 18.1934 4.9837 18.1934 5.16964C18.1934 8.47148 18.1934 11.7683 18.1934 15.0651C18.1934 16.1557 17.4073 16.9648 16.3227 16.9949C16.263 16.9949 16.1984 16.9949 16.1387 16.9949C11.3875 16.9949 6.63138 16.9849 1.88023 17C0.755872 17.005 0.203644 16.2512 0.203644 15.3214C0.198669 11.904 0.203644 8.49158 0.198669 5.07416C0.198669 4.91836 0.268319 4.92339 0.37777 4.92339C3.31304 4.93344 6.25328 4.92841 9.19353 4.92841ZM8.98457 14.4419C9.21343 14.4419 9.44228 14.447 9.67113 14.4419C9.95471 14.4369 10.1089 14.3062 10.1189 14.0248C10.1338 13.5373 10.1338 13.0498 10.1189 12.5623C10.1139 12.296 9.93978 12.1301 9.6761 12.1251C9.20348 12.1151 8.73582 12.1151 8.2632 12.1251C7.99454 12.1301 7.83037 12.3111 7.82539 12.5875C7.82042 13.0498 7.82042 13.5122 7.82539 13.9745C7.83037 14.266 8.00449 14.4369 8.29305 14.4419C8.5219 14.447 8.75572 14.447 8.98457 14.4419ZM13.4671 7.02913C13.2382 7.02913 13.0094 7.0241 12.7805 7.02913C12.5069 7.03415 12.3228 7.18995 12.3129 7.46133C12.2979 7.94379 12.2979 8.42625 12.3129 8.90871C12.3178 9.16502 12.477 9.33589 12.7357 9.34594C13.2233 9.36102 13.7158 9.36102 14.2034 9.34594C14.472 9.33589 14.6064 9.1801 14.6064 8.90871C14.6113 8.44133 14.6113 7.96892 14.6064 7.50154C14.6014 7.21508 14.4273 7.0442 14.1337 7.03918C13.9099 7.02913 13.691 7.02913 13.4671 7.02913ZM13.4571 14.447C13.676 14.447 13.89 14.447 14.1089 14.447C14.1188 14.447 14.1337 14.447 14.1437 14.447C14.4472 14.4369 14.6014 14.2912 14.6014 13.9846C14.6064 13.5273 14.6064 13.0699 14.6014 12.6126C14.6014 12.3161 14.4372 12.1352 14.1487 12.1301C13.686 12.1201 13.2183 12.1201 12.7556 12.1301C12.482 12.1352 12.3129 12.306 12.3079 12.5824C12.2979 13.0498 12.2979 13.5222 12.3079 13.9896C12.3129 14.2811 12.4969 14.4419 12.7855 14.447C13.0143 14.447 13.2333 14.447 13.4571 14.447ZM8.97462 7.02913C8.75075 7.02913 8.52687 7.02913 8.30299 7.02913C7.99952 7.03415 7.83037 7.2 7.82539 7.50154C7.82042 7.95887 7.82042 8.4162 7.82539 8.87353C7.82539 9.14994 7.97962 9.33589 8.25324 9.34092C8.7408 9.35599 9.23333 9.35097 9.72088 9.33589C9.97461 9.32584 10.1089 9.19015 10.1139 8.92881C10.1288 8.4363 10.1288 7.93877 10.1139 7.44625C10.104 7.18492 9.92486 7.02913 9.66118 7.0241C9.43233 7.02913 9.20348 7.02913 8.97462 7.02913ZM3.39761 13.286C3.39761 13.5122 3.39761 13.7383 3.39761 13.9645C3.40259 14.266 3.57174 14.447 3.87024 14.447C4.30307 14.452 4.7359 14.452 5.1737 14.447C5.48215 14.4419 5.68613 14.261 5.69608 13.9544C5.711 13.4971 5.70603 13.0398 5.69608 12.5824C5.6911 12.306 5.52195 12.1352 5.2533 12.1301C4.78067 12.1201 4.31302 12.1201 3.84039 12.1301C3.57174 12.1352 3.40756 12.3211 3.40259 12.5925C3.39264 12.8187 3.39761 13.0498 3.39761 13.286ZM4.54685 7.02913C4.32297 7.02913 4.09909 7.02913 3.87522 7.02913C3.57174 7.03415 3.40259 7.20502 3.39761 7.50656C3.39264 7.95887 3.39264 8.40615 3.39761 8.85846C3.39761 9.15497 3.55681 9.33589 3.84537 9.34594C4.29809 9.35599 4.75082 9.35599 5.20355 9.34594C5.4921 9.33589 5.68613 9.14994 5.6911 8.85846C5.70603 8.3961 5.70105 7.93374 5.6911 7.46636C5.68115 7.18492 5.50205 7.02913 5.2135 7.02913C4.98962 7.02913 4.76575 7.02913 4.54685 7.02913Z" fill="#D9D9D9"/>
<path d="M9.16368 3.74739C6.24333 3.74739 3.31801 3.74739 0.39767 3.75242C0.238469 3.75242 0.188719 3.72226 0.193694 3.55139C0.203644 2.93324 0.193694 2.31006 0.198669 1.69191C0.203644 1.13406 0.38772 0.646578 0.835473 0.289758C1.07427 0.0987843 1.35785 0.0133486 1.6663 0.00832295C2.16878 0.00832295 2.67126 0.0133486 3.17374 0.0032973C3.30309 0.0032973 3.34289 0.0334511 3.33791 0.169143C3.32796 0.676732 3.33294 1.18432 3.33791 1.69191C3.34289 1.96832 3.50706 2.18442 3.75084 2.25478C3.97472 2.31509 4.22347 2.22463 4.3578 2.03365C4.44237 1.91806 4.4573 1.78237 4.4573 1.64165C4.4573 1.15417 4.46227 0.661655 4.45232 0.174169C4.45232 0.0435024 4.48217 0.00832295 4.6165 0.00832295C7.50202 0.0133486 10.3875 0.0133486 13.2731 0.00832295C13.3925 0.00832295 13.4323 0.0384767 13.4273 0.164117C13.4223 0.671706 13.4223 1.17929 13.4273 1.68688C13.4323 1.96832 13.5865 2.17939 13.8303 2.25478C14.0492 2.32011 14.3029 2.23468 14.4422 2.0437C14.5317 1.92309 14.5516 1.78237 14.5516 1.6316C14.5516 1.13406 14.5516 0.641552 14.5516 0.144015C14.5516 0.0786818 14.5317 0.00329732 14.6462 0.00832295C15.278 0.0284255 15.9148 -0.0419333 16.5416 0.0435024C17.3227 0.149041 17.9993 0.787295 18.1187 1.51099C18.1635 1.77232 18.1337 2.03868 18.1337 2.30001C18.1386 2.72719 18.1287 3.15437 18.1386 3.57652C18.1436 3.72226 18.1038 3.75242 17.9645 3.75242C16.3028 3.74739 14.6412 3.74739 12.9746 3.74739C11.7109 3.74739 10.4373 3.74739 9.16368 3.74739Z" fill="#D9D9D9"/>
</svg>
