<svg width="13" height="24" viewBox="0 0 13 24" fill="none" xmlns="http://www.w3.org/2000/svg">
<path d="M12.0778 24C12.1515 23.9126 12.262 23.9126 12.3602 23.8626C13.0109 23.5129 13.2073 22.6512 12.7531 22.0642C12.6794 21.9643 12.5935 21.8769 12.5075 21.7895C9.36452 18.5924 6.23381 15.4077 3.09082 12.2106C2.93121 12.0482 2.90666 11.9733 3.07854 11.7985C6.23381 8.58884 9.38908 5.37922 12.5566 2.15711C13.0232 1.68254 13.1214 1.14552 12.8513 0.633481C12.5075 -0.0159363 11.6604 -0.203268 11.0956 0.246328C11.0097 0.321261 10.9237 0.396194 10.8378 0.483615C7.38788 3.99296 3.93795 7.50231 0.488024 10.9992C-0.162674 11.6611 -0.162674 12.3355 0.488024 12.9974C3.87656 16.4443 7.25282 19.8787 10.6414 23.3256C10.9237 23.6128 11.2061 23.9126 11.6235 24C11.7709 24 11.9182 24 12.0778 24Z" fill="#D9D9D9"/>
</svg>
