<svg width="16" height="16" viewBox="0 0 16 16" fill="none" xmlns="http://www.w3.org/2000/svg">
<path d="M0 7.98758C0.0115607 3.55807 3.60782 -0.0159535 8.03689 5.35591e-05C12.4299 0.0160606 16.0137 3.62299 16 8.01515C15.9862 12.4749 12.3846 16.0431 7.89416 15.9956C3.50244 15.9493 0.00355713 12.3815 0 7.98758ZM8.5331 5.00404C8.5331 4.88177 8.5331 4.75949 8.5331 4.63721C8.5331 3.98181 8.53533 3.32597 8.53177 2.67057C8.52999 2.38955 8.32457 2.16501 8.05778 2.13611C7.78833 2.10721 7.53711 2.28595 7.47886 2.55496C7.46508 2.61899 7.46686 2.68746 7.46686 2.75372C7.46641 4.27039 7.46419 5.78706 7.47041 7.30373C7.47086 7.44779 7.42995 7.47669 7.29656 7.47091C7.036 7.4598 6.77455 7.46646 6.51355 7.4678C6.17829 7.47002 5.93551 7.69901 5.93951 8.00626C5.94352 8.30684 6.18407 8.53138 6.5091 8.5336C6.79234 8.53583 7.07602 8.53761 7.35881 8.53183C7.44774 8.53005 7.46997 8.55717 7.46863 8.64343C7.46374 8.96579 7.46552 9.28771 7.46686 9.61008C7.46863 9.94489 7.69585 10.1828 8.00709 10.1792C8.31167 10.1757 8.53088 9.94089 8.53266 9.6123C8.53444 9.31217 8.54066 9.01204 8.52955 8.71235C8.52421 8.57273 8.55267 8.52871 8.70518 8.5296C9.87725 8.53761 11.0493 8.53271 12.2214 8.53494C12.4691 8.53538 12.654 8.43445 12.7545 8.20946C12.915 7.85152 12.6465 7.46869 12.2361 7.46824C11.0582 7.46602 9.88081 7.46513 8.70296 7.47047C8.57045 7.47091 8.52688 7.44868 8.52866 7.30373C8.538 6.53761 8.5331 5.7706 8.5331 5.00404Z" fill="#A5A5A5"/>
</svg>
