<svg width="32" height="23" viewBox="0 0 32 23" fill="none" xmlns="http://www.w3.org/2000/svg">
<path d="M26.9373 9.93693C26.8189 9.93693 26.7005 9.93693 26.573 9.93693C18.2576 9.93693 9.94231 9.93693 1.62699 9.93693C0.707109 9.93693 0.133324 10.3809 0.014925 11.1799C-0.103474 11.9346 0.497631 12.6804 1.28089 12.7514C1.43572 12.7692 1.59966 12.7603 1.75449 12.7603C10.0243 12.7603 18.2941 12.7603 26.5638 12.7603C26.6822 12.7603 26.8098 12.7603 26.9646 12.7603C26.919 12.9112 26.8098 12.9734 26.7369 13.0533C24.3142 15.4149 21.8916 17.7855 19.4598 20.1471C19.0318 20.5644 18.8223 21.0261 18.9862 21.6121C19.2686 22.642 20.5254 23.006 21.3451 22.3046C21.418 22.2424 21.4909 22.1625 21.5637 22.1004C24.8425 18.9042 28.1213 15.7079 31.3909 12.5206C32.2015 11.7304 32.2015 10.9757 31.4 10.1944C28.0939 6.97154 24.7787 3.74867 21.4726 0.516916C21.0355 0.0907507 20.5437 -0.113453 19.9334 0.0641155C18.9407 0.339347 18.5582 1.52906 19.2139 2.31036C19.3141 2.42578 19.4325 2.5412 19.5418 2.64774C21.928 4.97389 24.3142 7.30004 26.7005 9.62619C26.7915 9.71497 26.9008 9.77712 26.9919 9.84815C26.9737 9.86591 26.9555 9.90142 26.9373 9.93693Z" fill="#1E2326"/>
</svg>
