<svg width="18" height="16" viewBox="0 0 18 16" fill="none" xmlns="http://www.w3.org/2000/svg">
<path d="M9.00491 4.59683C11.7565 4.59683 14.5127 4.59683 17.2643 4.59214C17.4565 4.59214 17.4846 4.64839 17.4846 4.82183C17.4846 7.90151 17.4846 10.9765 17.4846 14.0515C17.4846 15.0687 16.744 15.8234 15.7221 15.8515C15.6658 15.8515 15.6049 15.8515 15.5487 15.8515C11.0721 15.8515 6.59084 15.8421 2.11428 15.8562C1.0549 15.8609 0.534592 15.1578 0.534592 14.2906C0.529905 11.1031 0.534592 7.92026 0.529905 4.73276C0.529905 4.58745 0.59553 4.59214 0.698655 4.59214C3.46428 4.60151 6.23459 4.59683 9.00491 4.59683ZM8.80803 13.4703C9.02366 13.4703 9.23928 13.475 9.45491 13.4703C9.72209 13.4656 9.86741 13.3437 9.87678 13.0812C9.89084 12.6265 9.89084 12.1718 9.87678 11.7171C9.87209 11.4687 9.70803 11.314 9.45959 11.3093C9.01428 11.3 8.57366 11.3 8.12834 11.3093C7.87522 11.314 7.72053 11.4828 7.71584 11.7406C7.71116 12.1718 7.71116 12.6031 7.71584 13.0343C7.72053 13.3062 7.88459 13.4656 8.15647 13.4703C8.37209 13.475 8.59241 13.475 8.80803 13.4703ZM13.0315 6.5562C12.8158 6.5562 12.6002 6.55151 12.3846 6.5562C12.1268 6.56089 11.9533 6.7062 11.944 6.95933C11.9299 7.40933 11.9299 7.85933 11.944 8.30933C11.9487 8.54839 12.0987 8.70776 12.3424 8.71714C12.8018 8.7312 13.2658 8.7312 13.7252 8.71714C13.9783 8.70776 14.1049 8.56245 14.1049 8.30933C14.1096 7.87339 14.1096 7.43276 14.1049 6.99683C14.1002 6.72964 13.9362 6.57026 13.6596 6.56558C13.4487 6.5562 13.2424 6.5562 13.0315 6.5562ZM13.0221 13.475C13.2283 13.475 13.4299 13.475 13.6362 13.475C13.6455 13.475 13.6596 13.475 13.669 13.475C13.9549 13.4656 14.1002 13.3296 14.1002 13.0437C14.1049 12.6171 14.1049 12.1906 14.1002 11.764C14.1002 11.4875 13.9455 11.3187 13.6737 11.314C13.2377 11.3046 12.7971 11.3046 12.3612 11.314C12.1033 11.3187 11.944 11.4781 11.9393 11.7359C11.9299 12.1718 11.9299 12.6125 11.9393 13.0484C11.944 13.3203 12.1174 13.4703 12.3893 13.475C12.6049 13.475 12.8112 13.475 13.0221 13.475ZM8.79866 6.5562C8.58772 6.5562 8.37678 6.5562 8.16584 6.5562C7.87991 6.56089 7.72053 6.71558 7.71584 6.99683C7.71116 7.42339 7.71116 7.84995 7.71584 8.27651C7.71584 8.53433 7.86116 8.70776 8.11897 8.71245C8.57834 8.72651 9.04241 8.72183 9.50178 8.70776C9.74084 8.69839 9.86741 8.57182 9.87209 8.32807C9.88616 7.8687 9.88616 7.40464 9.87209 6.94526C9.86272 6.70151 9.69397 6.5562 9.44553 6.55151C9.2299 6.5562 9.01428 6.5562 8.79866 6.5562ZM3.54397 12.3921C3.54397 12.6031 3.54397 12.814 3.54397 13.025C3.54865 13.3062 3.70803 13.475 3.98928 13.475C4.39709 13.4796 4.80491 13.4796 5.21741 13.475C5.50803 13.4703 5.70022 13.3015 5.70959 13.0156C5.72366 12.589 5.71897 12.1625 5.70959 11.7359C5.70491 11.4781 5.54553 11.3187 5.29241 11.314C4.84709 11.3046 4.40647 11.3046 3.96115 11.314C3.70803 11.3187 3.55334 11.4921 3.54865 11.7453C3.53928 11.9562 3.54397 12.1718 3.54397 12.3921ZM4.62678 6.5562C4.41584 6.5562 4.2049 6.5562 3.99397 6.5562C3.70803 6.56089 3.54865 6.72026 3.54397 7.00151C3.53928 7.42339 3.53928 7.84058 3.54397 8.26245C3.54397 8.53901 3.69397 8.70776 3.96584 8.71714C4.39241 8.72651 4.81897 8.72651 5.24553 8.71714C5.51741 8.70776 5.70022 8.53433 5.70491 8.26245C5.71897 7.8312 5.71428 7.39995 5.70491 6.96401C5.69553 6.70151 5.52678 6.5562 5.25491 6.5562C5.04397 6.5562 4.83303 6.5562 4.62678 6.5562Z" fill="white"/>
<path d="M8.97678 3.49526C6.22522 3.49526 3.46897 3.49526 0.717405 3.49995C0.567405 3.49995 0.52053 3.47183 0.525217 3.31245C0.534592 2.73589 0.525217 2.15464 0.529905 1.57808C0.534592 1.05776 0.70803 0.603076 1.1299 0.270263C1.3549 0.092138 1.62209 0.0124505 1.91272 0.00776297C2.38615 0.00776297 2.85959 0.0124505 3.33303 0.00307545C3.4549 0.00307545 3.4924 0.0312005 3.48772 0.157763C3.47834 0.631201 3.48303 1.10464 3.48772 1.57808C3.4924 1.83589 3.64709 2.03745 3.87678 2.10308C4.08772 2.15933 4.32209 2.07495 4.44865 1.89683C4.52834 1.78901 4.5424 1.66245 4.5424 1.5312C4.5424 1.07651 4.54709 0.617138 4.53772 0.162451C4.53772 0.0405755 4.56584 0.00776297 4.6924 0.00776297C7.41115 0.0124505 10.1299 0.0124505 12.8487 0.00776297C12.9612 0.00776297 12.9987 0.035888 12.994 0.153075C12.9893 0.626513 12.9893 1.09995 12.994 1.57339C12.9987 1.83589 13.144 2.03276 13.3737 2.10308C13.5799 2.16401 13.819 2.08433 13.9502 1.9062C14.0346 1.7937 14.0533 1.66245 14.0533 1.52183C14.0533 1.05776 14.0533 0.598388 14.0533 0.134326C14.0533 0.073388 14.0346 0.00307547 14.1424 0.00776297C14.7377 0.026513 15.3377 -0.039112 15.9283 0.0405755C16.6643 0.139013 17.3018 0.734326 17.4143 1.40933C17.4565 1.65308 17.4283 1.90151 17.4283 2.14526C17.433 2.5437 17.4237 2.94214 17.433 3.33589C17.4377 3.47183 17.4002 3.49995 17.269 3.49995C15.7033 3.49526 14.1377 3.49526 12.5674 3.49526C11.3768 3.49526 10.1768 3.49526 8.97678 3.49526Z" fill="white"/>
</svg>
