<svg width="19" height="25" viewBox="0 0 19 25" fill="none" xmlns="http://www.w3.org/2000/svg">
<path d="M8.82532 24.0096C7.35263 22.8001 6.09928 21.3776 4.90233 19.9111C3.47351 18.169 2.22643 16.3015 1.29895 14.2397C0.728678 12.9676 0.296272 11.6516 0.133337 10.2603C-0.186267 7.4779 0.565742 5.02133 2.4395 2.93451C3.84325 1.38035 5.59794 0.434073 7.66597 0.108202C11.3383 -0.462073 14.9291 1.25502 16.8092 4.47613C18.1753 6.81989 18.3633 9.30779 17.6677 11.8897C17.135 13.8763 16.195 15.6748 15.0733 17.3794C13.5692 19.6667 11.7832 21.7222 9.79666 23.6022C9.62746 23.7589 9.45199 23.903 9.24519 24.0096C9.10732 24.0096 8.96319 24.0096 8.82532 24.0096ZM9.05092 3.99985C6.29355 4.00612 4.04379 6.26842 4.05632 9.01952C4.06886 11.7644 6.31235 14.0079 9.05719 14.0141C11.8083 14.0204 14.0706 11.7581 14.0643 9.00699C14.0581 6.24962 11.802 3.99359 9.05092 3.99985Z" fill="#D9D9D9"/>
</svg>
