<svg width="100" height="100" viewBox="0 0 100 100" fill="none" xmlns="http://www.w3.org/2000/svg">
<circle cx="50" cy="50" r="49.5" fill="#F5F5EB" stroke="#D9D9D9"/>
<mask id="mask0_187_639" style="mask-type:alpha" maskUnits="userSpaceOnUse" x="0" y="0" width="100" height="100">
<circle cx="50" cy="50" r="50" fill="#D9D9D9"/>
</mask>
<g mask="url(#mask0_187_639)">
<path d="M25.9382 81.7072C25.2259 81.3844 24.9002 80.8196 24.7171 80.0933C22.0714 69.2799 19.446 58.4866 16.8002 47.6732C14.9482 40.1079 13.1166 32.5426 11.2646 24.9974C11.2035 24.7755 11.2442 24.493 11 24.3115C11 23.908 11 23.5045 11 23.101C11.3256 22.5765 11.5495 21.9712 12.2008 21.7292C12.5874 22.2537 13.0148 22.7177 13.1776 23.4036C13.8085 26.1675 14.5005 28.891 15.1721 31.6549C16.6171 37.5458 18.0417 43.4165 19.4867 49.3074C20.545 53.6247 21.5829 57.9621 22.6412 62.2996C23.9437 67.6659 25.2259 73.0525 26.6098 78.3986C26.9354 79.6898 26.854 80.7389 25.9382 81.7072Z" fill="#017DA9"/>
<path d="M18.4691 24.0492C23.557 22.0116 28.8078 20.5389 34.201 19.51C39.9198 18.4206 45.6997 17.896 51.5203 18.0171C61.7573 18.239 71.6279 20.2363 81.1728 23.8878C81.2949 23.9281 81.3967 23.9887 81.5188 24.0492C81.4985 24.1904 81.5188 24.3518 81.4781 24.493C80.2977 29.3954 79.097 34.2775 77.8962 39.1799C77.2653 41.8025 76.6344 44.4252 76.0035 47.0478C70.997 45.2725 65.8887 43.941 60.6176 43.2551C55.8553 42.6499 51.0726 42.4481 46.2696 42.67C41.1409 42.8919 36.0734 43.5779 31.1075 44.8489C28.6857 45.4743 26.3045 46.2409 23.9437 47.068C23.9234 46.9268 23.9437 46.7654 23.903 46.6242C22.5598 41.0964 21.1962 35.5687 19.853 30.0409C19.3849 28.0437 18.8151 26.0666 18.4691 24.0492ZM62.897 32.3812C62.7545 32.0584 62.6934 31.9373 62.6324 31.7961C61.6555 29.4559 60.6583 27.1157 59.7017 24.7755C59.4372 24.1299 59.0912 23.6054 58.2568 23.7062C57.4427 23.8071 57.2799 24.4123 57.1985 25.0579C57.0357 26.3087 56.8932 27.5595 56.7507 28.7901C56.4658 31.2111 56.1809 33.632 55.9163 36.0529C55.8349 36.8195 56.2826 37.3239 56.9339 37.4046C57.5648 37.4852 58.1143 37.0414 58.2161 36.295C58.3789 35.1047 58.5213 33.8942 58.6638 32.7039C58.7859 31.7356 58.908 30.747 59.0505 29.7182C59.3354 29.9401 59.3761 30.162 59.4575 30.3839C60.4141 32.6838 61.3909 34.9635 62.3475 37.2633C62.5917 37.8484 62.9987 38.272 63.6703 38.1712C64.3623 38.0703 64.6472 37.5458 64.7286 36.88C65.156 33.2487 65.5834 29.5971 66.0311 25.9657C66.1329 25.179 65.7666 24.5939 65.095 24.493C64.3216 24.372 63.7721 24.8158 63.6703 25.6833C63.4465 27.8218 63.2022 29.9804 62.897 32.3812ZM40.5914 34.4591C40.5304 34.4793 40.4897 34.4793 40.4286 34.4995C40.3472 34.3381 40.2862 34.1767 40.2048 34.0355C38.9023 31.1909 37.6201 28.3463 36.3176 25.5219C35.9512 24.7149 35.3407 24.4527 34.6894 24.7553C34.0178 25.0579 33.8143 25.7035 34.1603 26.4701C35.6663 29.7787 37.152 33.0671 38.6784 36.3555C39.1465 37.3642 40.0419 37.8887 40.9578 37.7475C42.0161 37.5659 42.6673 36.7993 42.8098 35.6494C43.2372 32.0785 43.6849 28.5279 44.1327 24.957C44.2344 24.1702 43.807 23.5448 43.0947 23.4641C42.4231 23.3834 41.8736 23.8474 41.7718 24.6141C41.548 26.3491 41.3445 28.1042 41.1409 29.8594C40.9781 31.3724 40.795 32.9057 40.5914 34.4591ZM30.4156 25.8044C28.9299 26.2078 27.2203 26.6113 25.5719 27.1359C24.9817 27.3174 24.8392 27.9226 25.002 28.5481C25.9585 32.1592 26.8947 35.7906 27.8513 39.4018C28.0751 40.2693 28.6246 40.5719 29.5201 40.35C30.8633 40.0272 32.2269 39.6641 33.5701 39.3211C34.4859 39.079 34.8726 38.5343 34.6691 37.8282C34.4656 37.1019 33.8754 36.8195 32.9595 37.0616C32.1251 37.2633 31.2907 37.4852 30.4563 37.7273C30.0289 37.8484 29.805 37.7677 29.7236 37.2835C29.5811 36.5371 29.3573 35.831 29.1538 35.1047C29.052 34.7214 29.1131 34.5196 29.5608 34.4188C30.4359 34.2372 31.2703 33.9951 32.1251 33.753C33.0002 33.5109 33.4073 32.9057 33.2038 32.2198C33.0002 31.5742 32.3693 31.2716 31.5146 31.4935C30.6801 31.6952 29.8457 31.9172 29.0113 32.1592C28.6043 32.2803 28.36 32.2198 28.2379 31.7558C28.0751 30.9891 27.8716 30.2427 27.6477 29.4962C27.5256 29.1129 27.6681 28.9717 28.0344 28.8708C28.9909 28.6489 29.9475 28.3867 30.904 28.1244C31.5756 27.9226 31.8198 27.4385 31.7181 26.7727C31.6367 26.1271 31.2296 25.8447 30.4156 25.8044ZM46.6156 30.2225C46.6156 32.0987 46.6156 33.9951 46.6156 35.8713C46.6156 36.759 47.0226 37.1625 47.9181 37.1625C49.363 37.1826 50.808 37.1826 52.253 37.1625C53.0671 37.1625 53.5759 36.7186 53.5962 36.0327C53.6166 35.3468 53.0671 34.8626 52.2123 34.8626C51.2965 34.8424 50.3806 34.8424 49.4648 34.8626C49.0374 34.8828 48.8746 34.7415 48.895 34.2977C48.9153 33.5109 48.9153 32.7443 48.895 31.9575C48.8746 31.5338 49.0171 31.3926 49.4648 31.3926C50.3806 31.4128 51.2965 31.4128 52.2123 31.3926C53.0671 31.3926 53.6166 30.9286 53.5962 30.2225C53.5759 29.5568 53.0671 29.1129 52.253 29.0928C51.3372 29.0726 50.4213 29.0726 49.5055 29.0928C49.0374 29.1129 48.895 28.9314 48.9153 28.4875C48.956 27.7411 48.9357 26.9745 48.9153 26.228C48.895 25.8447 48.9764 25.6228 49.4445 25.643C50.3603 25.6833 51.2761 25.6631 52.1919 25.643C53.0671 25.643 53.5962 25.1991 53.5962 24.493C53.5962 23.7869 53.0671 23.3431 52.1919 23.3431C50.7877 23.3431 49.4038 23.3431 47.9995 23.3431C46.9615 23.3431 46.5952 23.7062 46.5749 24.7553C46.6156 26.6113 46.6156 28.427 46.6156 30.2225ZM77.2449 28.1849C77.2042 27.62 76.8583 27.2166 76.2477 27.0753C73.8666 26.5105 71.4651 25.9657 69.0839 25.4412C68.3919 25.2798 67.7814 25.6833 67.6389 26.3289C67.4965 26.9543 67.8017 27.499 68.514 27.7007C69.1043 27.8621 69.6944 28.0235 70.2846 28.1042C70.8545 28.1849 71.0173 28.3665 70.8749 28.9717C70.1625 31.8768 69.4909 34.7819 68.8193 37.687C68.7583 37.9896 68.6362 38.272 68.6565 38.5747C68.6769 39.1799 68.9821 39.6237 69.6334 39.7246C70.3254 39.8456 70.8341 39.4623 71.0173 38.6554C71.7296 35.5687 72.4623 32.5022 73.1542 29.4155C73.256 28.9515 73.3985 28.77 73.9073 28.9314C74.5382 29.1331 75.1894 29.2541 75.8203 29.3752C76.553 29.5164 77.2246 28.9515 77.2449 28.1849Z" fill="#FEC007"/>
<path d="M72.096 81.6669C71.0784 81.0213 70.7324 80.3152 70.997 79.2056C72.3402 73.6375 73.6834 68.0694 75.047 62.5215C76.1663 57.9016 77.306 53.3019 78.4253 48.682C78.4864 48.4399 78.4661 48.1776 78.4864 47.9355C78.6696 47.7136 78.7306 47.4513 78.7917 47.1891C80.0942 41.7622 81.4171 36.3555 82.7399 30.9286C83.208 28.9919 83.7575 27.0552 84.1035 25.0983C84.2663 24.493 84.4291 23.908 84.5919 23.3027C84.7751 22.637 85.1007 22.0519 85.7723 21.7695C86.5457 22.3949 87.0341 23.1414 86.7696 24.1702C86.1387 26.7122 85.5281 29.2743 84.8972 31.8163C83.7982 36.3353 82.7196 40.8543 81.6002 45.3936C80.1756 51.2844 78.7306 57.1551 77.2857 63.046C75.9017 68.715 74.4975 74.3638 73.1339 80.0328C72.9914 80.6985 72.7065 81.2836 72.096 81.6669Z" fill="#017DA9"/>
<path d="M25.9382 81.7072C26.8744 80.7389 26.9558 79.6898 26.6098 78.3785C25.2259 73.0323 23.9437 67.6458 22.6412 62.2794C21.5829 57.9621 20.545 53.6246 19.4867 49.2872C18.0621 43.3963 16.6171 37.5256 15.1721 31.6347C14.5005 28.891 13.8085 26.1473 13.1776 23.3834C13.0352 22.7177 12.6078 22.2537 12.2211 21.7292C13.5643 21.0634 15.0093 21.709 15.4163 23.1817C15.5791 23.8071 15.742 24.4325 15.9048 25.0579C16.0879 25.8851 16.2508 26.7122 16.4543 27.5393C17.7364 32.8048 19.0186 38.0905 20.3211 43.356C20.7078 44.8892 20.9317 46.4426 21.5219 47.9153C21.7254 49.6301 22.2545 51.2844 22.6616 52.9589C24.7781 61.7145 26.9151 70.4702 29.052 79.2056C29.2759 80.1135 29.0113 80.8599 28.3193 81.4248C27.607 82.03 26.793 82.2116 25.9382 81.7072Z" fill="#00627C"/>
<path d="M72.096 81.6669C72.7065 81.2836 72.9914 80.6985 73.1542 80.0126C74.5178 74.3436 75.9221 68.6948 77.306 63.0259C78.751 57.135 80.196 51.2643 81.6206 45.3734C82.7196 40.8543 83.8186 36.3353 84.9176 31.7961C85.5281 29.234 86.159 26.692 86.7899 24.1501C87.0545 23.101 86.5661 22.3546 85.7927 21.7493C86.6068 21.245 87.4005 21.3862 88.1128 21.9107C88.9269 22.5159 89.1507 23.3633 88.9065 24.3316C87.7872 28.9314 86.6678 33.5311 85.5485 38.1308C82.1701 51.9502 78.812 65.7696 75.454 79.5889C75.2505 80.4161 75.047 81.223 74.2329 81.6669C73.5409 82.03 72.8083 82.1712 72.096 81.6669Z" fill="#00627C"/>
<path d="M84.1238 25.0781C83.7575 27.0552 83.2284 28.9717 82.7603 30.9084C81.4374 36.3353 80.1145 41.742 78.812 47.1689C78.751 47.4513 78.6899 47.7136 78.5068 47.9153C77.6927 47.6127 76.8583 47.3303 76.0442 47.0277C76.6751 44.405 77.306 41.7824 77.9369 39.1597C79.1173 34.2574 80.3181 29.3752 81.5188 24.4729C81.5595 24.3316 81.5392 24.1702 81.5595 24.029C82.4346 24.3115 83.2487 24.7351 84.1238 25.0781Z" fill="#D69900"/>
<path d="M21.5219 47.9153C20.9317 46.4426 20.7078 44.8892 20.3211 43.356C19.0186 38.0905 17.7364 32.825 16.4543 27.5393C16.2508 26.7122 16.0879 25.8851 15.9048 25.0579C16.7595 24.7149 17.6143 24.372 18.4894 24.0492C18.8354 26.0666 19.4053 28.0437 19.8937 30.0208C21.2369 35.5485 22.6005 41.0763 23.9437 46.604C23.9844 46.7452 23.9641 46.9066 23.9844 47.0478C23.15 47.3505 22.3359 47.6329 21.5219 47.9153Z" fill="#D69900"/>
<path d="M62.897 32.3812C63.1819 30.0006 63.4465 27.8218 63.711 25.6631C63.8128 24.7956 64.3623 24.3518 65.1357 24.4729C65.8073 24.5737 66.1532 25.1588 66.0718 25.9456C65.6241 29.5769 65.1967 33.2285 64.7693 36.8598C64.6879 37.5256 64.403 38.0501 63.711 38.151C63.0394 38.2519 62.6324 37.8282 62.3882 37.2432C61.4113 34.9433 60.4548 32.6636 59.4982 30.3637C59.4168 30.162 59.3761 29.9199 59.0912 29.698C58.9487 30.747 58.8266 31.7154 58.7045 32.6838C58.562 33.8741 58.4196 35.0845 58.2568 36.2748C58.155 37.0212 57.6259 37.4651 56.9746 37.3844C56.3233 37.3037 55.8756 36.7993 55.957 36.0327C56.2012 33.6118 56.5065 31.1909 56.7914 28.77C56.9339 27.5192 57.0764 26.2684 57.2392 25.0377C57.3206 24.3922 57.4834 23.7869 58.2975 23.6861C59.1115 23.5852 59.4779 24.0895 59.7424 24.7553C60.7193 27.0955 61.6962 29.4357 62.6731 31.7759C62.6934 31.9172 62.7545 32.0584 62.897 32.3812Z" fill="#F02A64"/>
<path d="M40.5914 34.4591C40.7746 32.9259 40.9781 31.3724 41.1613 29.8392C41.3648 28.084 41.5683 26.3491 41.7922 24.5939C41.894 23.8071 42.4435 23.3633 43.1151 23.444C43.807 23.5247 44.2344 24.1702 44.153 24.9369C43.7053 28.5077 43.2779 32.0584 42.8301 35.6292C42.6877 36.7791 42.0161 37.5458 40.9781 37.7273C40.0623 37.8887 39.1668 37.3642 38.6987 36.3353C37.1927 33.0469 35.6867 29.7383 34.1806 26.4499C33.8347 25.6833 34.0382 25.0176 34.7098 24.7351C35.361 24.4325 35.9716 24.7149 36.3379 25.5017C37.6404 28.3463 38.9226 31.1707 40.2251 34.0153C40.3065 34.1767 40.3676 34.3381 40.449 34.4793C40.4897 34.4793 40.5507 34.4591 40.5914 34.4591Z" fill="#F02A64"/>
<path d="M30.4156 25.8044C31.2296 25.8447 31.657 26.1271 31.7588 26.7324C31.8605 27.3981 31.6163 27.8823 30.9447 28.084C29.9882 28.3665 29.0317 28.6086 28.0751 28.8305C27.6884 28.9112 27.5663 29.0726 27.6884 29.4559C27.9123 30.2023 28.1158 30.9488 28.2786 31.7154C28.3804 32.1794 28.6246 32.2399 29.052 32.1189C29.8864 31.8768 30.7005 31.6549 31.5553 31.4531C32.41 31.2514 33.0409 31.5338 33.2445 32.1794C33.448 32.8452 33.0409 33.4504 32.1658 33.7127C31.311 33.9548 30.4563 34.1968 29.6015 34.3784C29.1538 34.4793 29.0927 34.681 29.1945 35.0643C29.398 35.7906 29.6219 36.5169 29.7643 37.2432C29.8661 37.7072 30.0696 37.808 30.497 37.687C31.3314 37.4449 32.1658 37.223 33.0002 37.0212C33.9161 36.7993 34.4859 37.0616 34.7098 37.7879C34.9133 38.494 34.5266 39.0387 33.6108 39.2808C32.2676 39.6439 30.9244 39.9869 29.5608 40.3096C28.6653 40.5316 28.1362 40.2491 27.892 39.3615C26.9354 35.7503 25.9992 32.1189 25.0427 28.5077C24.8799 27.8823 25.0224 27.2972 25.5922 27.1157C27.2203 26.6113 28.9095 26.2078 30.4156 25.8044Z" fill="#F02A64"/>
<path d="M46.6156 30.2225C46.6156 28.4068 46.6156 26.6113 46.6156 24.7956C46.6156 23.7668 46.9819 23.4036 48.0402 23.3834C49.4445 23.3834 50.8284 23.3834 52.2326 23.3834C53.1078 23.3834 53.6369 23.8474 53.6369 24.5334C53.6369 25.2193 53.0874 25.6631 52.2326 25.6833C51.3168 25.6833 50.401 25.7035 49.4852 25.6833C49.0171 25.6631 48.9357 25.8851 48.956 26.2684C48.9764 27.0148 48.9764 27.7814 48.956 28.5279C48.9357 28.9717 49.0781 29.1533 49.5462 29.1331C50.462 29.0928 51.3779 29.1129 52.2937 29.1331C53.1078 29.1533 53.6166 29.5769 53.6369 30.2629C53.6573 30.969 53.1078 31.433 52.253 31.433C51.3372 31.433 50.4213 31.4531 49.5055 31.433C49.0781 31.4128 48.9357 31.5742 48.9357 31.9978C48.956 32.7846 48.956 33.5513 48.9357 34.3381C48.9153 34.7617 49.0781 34.9029 49.5055 34.9029C50.4213 34.8828 51.3372 34.8828 52.253 34.9029C53.1078 34.9231 53.6573 35.3871 53.6369 36.073C53.6166 36.7388 53.1078 37.1826 52.2937 37.2028C50.8487 37.223 49.4038 37.223 47.9588 37.2028C47.0633 37.2028 46.6563 36.7791 46.6563 35.9117C46.6156 33.9951 46.6156 32.1189 46.6156 30.2225Z" fill="#F02A64"/>
<path d="M77.2449 28.1849C77.2246 28.9515 76.553 29.5164 75.8407 29.3752C75.1894 29.2541 74.5382 29.1331 73.9276 28.9314C73.3985 28.77 73.2764 28.9515 73.1746 29.4155C72.4826 32.5022 71.75 35.5687 71.0377 38.6554C70.8545 39.4623 70.3457 39.8456 69.6537 39.7246C69.0025 39.6237 68.6972 39.1799 68.6769 38.5747C68.6769 38.2922 68.7786 37.9896 68.8397 37.687C69.5113 34.7819 70.1829 31.8768 70.8952 28.9717C71.0377 28.3665 70.8749 28.1849 70.305 28.1042C69.7148 28.0033 69.1043 27.8621 68.5344 27.7007C67.8424 27.499 67.5168 26.9543 67.6593 26.3289C67.8017 25.6833 68.4123 25.2798 69.1042 25.4412C71.5058 25.9859 73.8869 26.5306 76.2681 27.0753C76.8583 27.2166 77.2042 27.62 77.2449 28.1849Z" fill="#F02A64"/>
</g>
</svg>
