<svg width="10" height="18" viewBox="0 0 10 18" fill="none" xmlns="http://www.w3.org/2000/svg">
<path d="M2.986 17.971C2.986 17.8984 2.97045 17.8259 2.97045 17.7678C2.97045 15.1702 2.97045 12.5725 2.97045 9.97487C2.97045 9.81524 2.92379 9.7717 2.75272 9.7717C1.89736 9.78621 1.04199 9.7717 0.171073 9.7717C0.0311043 9.7717 0 9.74268 0 9.61207C0 8.65428 0 7.69649 0 6.73869C0 6.60809 0.0466564 6.57906 0.171073 6.57906C1.04199 6.57906 1.91291 6.57906 2.78383 6.57906C2.92379 6.57906 2.9549 6.55004 2.9549 6.41943C2.9549 5.57773 2.93935 4.73604 2.97045 3.89434C3.01711 2.86399 3.32815 1.93523 4.10575 1.16609C4.68118 0.600122 5.41213 0.280859 6.22084 0.106715C6.90513 -0.0238932 7.58942 -0.00938117 8.27372 0.0196428C8.78694 0.0341548 9.30016 0.0776908 9.81338 0.106715C9.93779 0.106715 10 0.135739 10 0.280859C9.98445 1.13707 10 1.99327 10 2.84948C10 2.98009 9.95334 2.9946 9.82893 2.9946C9.14463 2.9946 8.46034 2.96558 7.77605 3.02362C6.96734 3.08167 6.51633 3.50252 6.50078 4.24263C6.48523 4.98274 6.50078 5.72286 6.48523 6.47748C6.48523 6.60809 6.56299 6.59357 6.6563 6.59357C7.65163 6.59357 8.66252 6.59357 9.65785 6.59357C9.81338 6.59357 9.87558 6.60809 9.84448 6.78223C9.70451 7.72551 9.58009 8.6833 9.45568 9.62658C9.44012 9.75719 9.39347 9.80072 9.2535 9.80072C8.38258 9.78621 7.52722 9.80072 6.6563 9.80072C6.53188 9.80072 6.48523 9.81524 6.48523 9.94585C6.48523 12.6015 6.48523 15.2572 6.48523 17.9129C6.48523 17.942 6.48523 17.971 6.50078 18C5.34992 17.971 4.16796 17.971 2.986 17.971Z" fill="#1877F1"/>
</svg>
