<svg width="18" height="13" viewBox="0 0 18 13" fill="none" xmlns="http://www.w3.org/2000/svg">
<path d="M0.981205 5.6351C1.28438 5.62915 1.51479 5.77805 1.72702 5.96864C3.1762 7.24919 4.62538 8.52974 6.07456 9.81624C6.26253 9.98301 6.45656 10.126 6.72336 10.1557C7.0811 10.1915 7.36609 10.0604 7.60863 9.79837C9.13664 8.13068 10.6646 6.46895 12.1926 4.80126C13.5509 3.32416 14.9091 1.84706 16.2673 0.369966C16.6797 -0.0767369 17.2739 -0.124385 17.6923 0.256801C18.0985 0.626075 18.1046 1.20381 17.6983 1.65051C14.3513 5.29561 10.9981 8.94666 7.64501 12.6037C7.18418 13.104 6.62028 13.1338 6.12307 12.6751C4.20093 10.9002 2.2788 9.11938 0.356663 7.34448C0.0595505 7.07051 -0.0677833 6.74888 0.0352965 6.36174C0.132313 6.00438 0.374853 5.77209 0.738664 5.67084C0.81749 5.64701 0.902379 5.64701 0.981205 5.6351Z" fill="#9A9A9A"/>
</svg>
