<svg width="17" height="14" viewBox="0 0 17 14" fill="none" xmlns="http://www.w3.org/2000/svg">
<path d="M16.8633 3.73244C16.5916 3.37347 16.1777 3.19399 15.8141 2.94924C15.6887 2.86358 15.5424 2.8024 15.4086 2.72489C15.3459 2.68818 15.3166 2.6841 15.2916 2.76568C15.1202 3.29597 14.9446 3.82626 14.7607 4.35654C14.7398 4.42181 14.7607 4.4422 14.8108 4.47076C15.3208 4.7359 15.8015 5.04999 16.2697 5.37632C16.3575 5.43751 16.3826 5.42119 16.4118 5.32737C16.5372 4.9317 16.671 4.53602 16.8006 4.14035C16.8173 4.09548 16.8131 4.03837 16.8633 4.00574C16.8633 3.916 16.8633 3.82626 16.8633 3.73244Z" fill="#9F9F9F"/>
<path d="M5.694 4.03256e-05C5.46827 0.00411945 5.31361 0.126493 5.23001 0.379399C4.97502 1.14219 4.72421 1.90091 4.46922 2.66371C3.27789 6.2207 2.09492 9.77769 0.895222 13.3265C0.769817 13.6977 1.02899 14.0608 1.4052 13.9914C1.61838 13.9547 1.72707 13.8119 1.79395 13.6202C2.05311 12.833 2.31646 12.0498 2.57981 11.2625C3.76279 7.72998 4.94576 4.20154 6.12455 0.669016C6.24578 0.301895 6.04931 -0.0040388 5.694 4.03256e-05Z" fill="#9F9F9F"/>
<path d="M6.48404 2.54133C6.4715 2.59028 6.5133 2.59844 6.54256 2.61884C7.04 2.88398 7.56251 3.10017 8.11011 3.24702C8.19371 3.2715 8.22715 3.24294 8.25223 3.16544C8.42362 2.63923 8.595 2.11303 8.77475 1.5909C8.80819 1.49708 8.77475 1.48076 8.69533 1.46444C8.14773 1.33391 7.62103 1.15443 7.11942 0.901526C7.07344 0.877051 7.04 0.864814 7.0191 0.93008C6.84353 1.46037 6.66797 1.99065 6.4924 2.52094C6.48822 2.52502 6.48822 2.53317 6.48404 2.54133Z" fill="#9F9F9F"/>
<path d="M11.6674 1.7867C11.3664 1.74183 11.0696 1.73775 10.7728 1.72551C10.4802 1.71735 10.1876 1.70103 9.8992 1.66024C9.78634 1.64393 9.72782 1.66024 9.69019 1.7867C9.53553 2.29251 9.36415 2.79016 9.18858 3.29189C9.15096 3.40611 9.17186 3.42242 9.2889 3.43058C9.84904 3.47137 10.4134 3.47953 10.9777 3.48769C11.0446 3.48769 11.1031 3.49585 11.1323 3.40611C11.3079 2.87174 11.4876 2.3333 11.6674 1.7867Z" fill="#9F9F9F"/>
<path d="M4.75765 7.73405C4.74093 7.79116 4.79109 7.8034 4.82453 7.81972C5.32615 8.0767 5.84448 8.29289 6.40044 8.42343C6.46732 8.43974 6.50076 8.43566 6.52584 8.36224C6.69723 7.84011 6.86861 7.32206 7.04836 6.80402C7.07344 6.72651 7.05672 6.70612 6.9773 6.68572C6.44224 6.54295 5.92809 6.33492 5.43483 6.08609C5.37631 6.05754 5.33033 6.0249 5.30107 6.11872C5.12968 6.64493 4.95412 7.16706 4.77855 7.69326C4.76183 7.7055 4.76183 7.72182 4.75765 7.73405Z" fill="#9F9F9F"/>
<path d="M10.3298 8.76607C10.5597 8.80278 10.7812 8.83134 10.9986 8.87621C11.3539 8.94555 11.705 9.04753 12.0394 9.18214C12.1314 9.21885 12.1648 9.19438 12.1899 9.10872C12.3571 8.59883 12.5243 8.08486 12.6999 7.57905C12.7291 7.49747 12.7041 7.46891 12.6288 7.44036C12.1021 7.24048 11.5587 7.10995 11.0028 7.0406C10.9359 7.03245 10.9024 7.04468 10.8815 7.11403C10.7018 7.66063 10.5179 8.20723 10.3298 8.76607Z" fill="#9F9F9F"/>
<path d="M7.42039 8.61922C7.96381 8.68449 8.4905 8.70896 9.0172 8.71304C9.36415 8.71712 9.36415 8.71712 9.47283 8.39079C9.61495 7.96248 9.7529 7.5301 9.90338 7.10587C9.94518 6.99165 9.91592 6.97126 9.80306 6.97126C9.23456 6.97126 8.66607 6.95902 8.10175 6.88968C8.02651 6.88152 7.99307 6.89783 7.97217 6.97126C7.79242 7.51378 7.60849 8.06038 7.42039 8.61922Z" fill="#9F9F9F"/>
<path d="M14.443 2.3333C14.4388 2.28027 14.3761 2.28843 14.3385 2.27619C13.8996 2.12526 13.4523 2.01921 12.9967 1.93762C12.8754 1.91723 12.725 1.83972 12.6372 1.90091C12.5536 1.95802 12.5452 2.1171 12.5076 2.23132C12.3697 2.63923 12.2359 3.05122 12.0938 3.45914C12.0603 3.55295 12.0729 3.57743 12.1774 3.58967C12.7208 3.66309 13.2475 3.80178 13.7575 3.99758C13.8494 4.03429 13.887 4.02205 13.9163 3.92415C14.0751 3.4265 14.2465 2.92885 14.4096 2.43528C14.4263 2.40264 14.4346 2.37409 14.443 2.3333Z" fill="#9F9F9F"/>
<path d="M6.17889 3.46321C5.99497 4.00574 5.8194 4.5401 5.63966 5.07447C5.61876 5.13973 5.64802 5.16421 5.69818 5.19276C6.19561 5.44975 6.70559 5.67002 7.25319 5.80871C7.33261 5.82911 7.36605 5.8291 7.39531 5.73529C7.55415 5.23355 7.72554 4.73182 7.89274 4.23009C7.90528 4.1893 7.95127 4.14035 7.8593 4.11587C7.27409 3.9731 6.72231 3.74467 6.17889 3.46321Z" fill="#9F9F9F"/>
<path d="M11.2076 6.13912C11.8095 6.2207 12.3864 6.35939 12.9423 6.57558C13.005 6.60006 13.0301 6.5919 13.051 6.52663C13.2182 6.00859 13.3938 5.49462 13.5652 4.98065C13.5861 4.92354 13.5693 4.90314 13.515 4.88275C12.9799 4.67471 12.4282 4.5401 11.8597 4.47076C11.7928 4.4626 11.7552 4.47484 11.7343 4.54418C11.5629 5.07039 11.3873 5.60067 11.2076 6.13912Z" fill="#9F9F9F"/>
<path d="M13.5861 7.8809C13.398 8.44382 13.2182 8.99042 13.0343 9.54111C13.0134 9.60229 13.0259 9.63085 13.0803 9.6594C13.4439 9.8552 13.7867 10.0877 14.1337 10.3121C14.3845 10.4752 14.7147 10.3732 14.8192 10.0999C14.9571 9.73282 15.07 9.36162 15.1954 8.99042C15.2121 8.9374 15.1996 8.90884 15.1536 8.88029C14.6436 8.53764 14.1462 8.1746 13.5861 7.8809Z" fill="#9F9F9F"/>
<path d="M10.7979 4.40549C10.2545 4.3851 9.73618 4.38102 9.21366 4.3443C9.09244 4.33615 8.94613 4.25456 8.85835 4.34023C8.78311 4.41365 8.77057 4.55234 8.73295 4.66248C8.58664 5.09894 8.44452 5.53949 8.29821 5.98003C8.92523 6.04938 9.54807 6.04122 10.1667 6.05754C10.2336 6.05754 10.2545 6.03306 10.2712 5.97595C10.4426 5.46198 10.6182 4.93986 10.7979 4.40549Z" fill="#9F9F9F"/>
<path d="M15.5173 8.01144C15.6761 7.53418 15.8308 7.06916 15.9896 6.60006C16.0732 6.35531 16.0691 6.35531 15.8559 6.20846C15.4295 5.91885 15.0073 5.62107 14.5559 5.37224C14.4597 5.31921 14.4346 5.33145 14.4012 5.42935C14.2465 5.91885 14.0835 6.40426 13.9205 6.88968C13.8996 6.95086 13.8787 6.99573 13.9581 7.03652C14.5015 7.31391 15.0031 7.65655 15.5173 8.01144Z" fill="#9F9F9F"/>
</svg>
