<svg width="19" height="11" viewBox="0 0 19 11" fill="none" xmlns="http://www.w3.org/2000/svg">
<path d="M8.45288 0.0156047C5.47866 0.18787 2.67319 1.78045 0.437257 4.56482C-0.146337 5.29256 -0.146337 5.42264 0.440773 6.1574C2.67319 8.94529 5.48921 10.5344 8.47749 10.6996C11.856 10.8824 15.0517 9.28631 17.5654 6.15389C18.149 5.42615 18.149 5.29607 17.5619 4.56131C15.9306 2.52576 13.99 1.12654 11.8455 0.440995C11.1775 0.226542 10.3724 0.0718547 9.7396 0.0331828C9.05054 -0.00548904 8.90288 -0.00900466 8.45288 0.0156047ZM9.74663 1.65389C10.7556 1.84373 11.7259 2.53279 12.2533 3.42928C12.8861 4.51209 12.9529 5.8199 12.4326 6.92732C12.2287 7.35975 12.0318 7.641 11.6978 7.98553C9.81694 9.92264 6.61421 9.33201 5.52437 6.84646C5.13062 5.94998 5.12359 4.8531 5.50679 3.91795C5.87593 3.0074 6.68101 2.21287 7.59859 1.85076C8.29468 1.57654 8.99077 1.51326 9.74663 1.65389Z" fill="#D9D9D9"/>
<path d="M8.63218 3.35545C8.05913 3.4785 7.55288 3.83357 7.2646 4.31873C7.05015 4.67381 6.97984 4.93748 6.98335 5.35935C6.98335 5.76717 7.02202 5.9324 7.18374 6.27342C7.33491 6.58631 7.77085 7.02225 8.09077 7.17693C9.21929 7.72185 10.5306 7.16639 10.9384 5.97459C11.0544 5.63357 11.058 5.0992 10.9455 4.74412C10.6888 3.93201 9.94351 3.366 9.08921 3.33435C8.91694 3.32732 8.70952 3.33787 8.63218 3.35545Z" fill="#D9D9D9"/>
</svg>
