<svg width="14" height="14" viewBox="0 0 14 14" fill="none" xmlns="http://www.w3.org/2000/svg">
<path d="M11.7089 14C8.32198 14 4.93504 14 1.54774 14C1.54271 13.9788 1.5269 13.9748 1.50821 13.9716C0.71889 13.8348 0.0546575 13.0989 0.0586113 12.0916C0.0747858 8.06106 0.0650811 4.03053 0.0650811 0C3.46999 0 6.8749 0 10.2802 0C10.2812 0.0547032 10.2834 0.109042 10.2834 0.163745C10.2834 4.1527 10.2834 8.14129 10.2838 12.1302C10.2838 13.0197 10.8031 13.7093 11.6475 13.9478C11.6733 13.9548 11.7258 13.9384 11.7089 14ZM3.42039 2.12577C2.9179 2.12577 2.41505 2.12868 1.91257 2.12321C1.81264 2.12212 1.78748 2.14619 1.78784 2.24903C1.79216 3.26432 1.7918 4.27961 1.7882 5.2949C1.78784 5.39592 1.80546 5.43312 1.91688 5.43239C2.91754 5.42728 3.91856 5.42801 4.91923 5.43202C5.02454 5.43239 5.05258 5.40577 5.05222 5.29745C5.0479 4.28216 5.04826 3.26687 5.05186 2.25158C5.05222 2.15166 5.03137 2.12175 4.92821 2.12285C4.42572 2.12905 3.92288 2.12577 3.42039 2.12577ZM5.2003 7.49215C5.24523 7.49215 5.29016 7.49215 5.33509 7.49215C6.40404 7.49215 7.473 7.49069 8.54195 7.4947C8.64259 7.49506 8.67099 7.47136 8.66596 7.36888C8.65661 7.18253 8.65553 6.99508 8.66632 6.80872C8.67279 6.69384 8.63972 6.66868 8.52829 6.66905C6.98776 6.67342 5.44723 6.67196 3.9067 6.67196C3.21947 6.67196 2.53223 6.67379 1.84535 6.66977C1.7519 6.66905 1.72351 6.69166 1.72746 6.78866C1.73573 6.97976 1.7368 7.17159 1.7271 7.36268C1.72171 7.47136 1.75514 7.49543 1.85901 7.49506C2.97254 7.49069 4.08642 7.49215 5.2003 7.49215ZM5.19347 9.37904C6.31167 9.37904 7.43023 9.37758 8.54842 9.38159C8.64331 9.38196 8.66955 9.35862 8.66524 9.26234C8.65697 9.07598 8.6541 8.88817 8.66596 8.70218C8.6735 8.58037 8.63756 8.55558 8.52075 8.55594C6.30664 8.55995 4.09217 8.55886 1.87806 8.55886C1.85578 8.55886 1.83277 8.56141 1.81085 8.55849C1.74615 8.54938 1.72674 8.57527 1.72782 8.64128C1.73177 8.84186 1.73716 9.0428 1.72638 9.24265C1.72027 9.35862 1.75478 9.38232 1.86548 9.38196C2.97469 9.37722 4.08426 9.37904 5.19347 9.37904ZM5.18593 11.2656C6.30412 11.2656 7.42268 11.2641 8.54087 11.2681C8.64008 11.2685 8.67099 11.247 8.6656 11.143C8.65589 10.9567 8.65517 10.7692 8.6656 10.5829C8.67207 10.4691 8.6408 10.4421 8.52829 10.4425C7.10458 10.4468 5.68086 10.4454 4.25715 10.4454C3.4531 10.4454 2.64941 10.4472 1.84535 10.4432C1.75298 10.4428 1.72243 10.4633 1.72674 10.5614C1.73501 10.7525 1.73573 10.9443 1.72674 11.1354C1.72171 11.2426 1.75262 11.2689 1.85757 11.2685C2.96714 11.2641 4.07671 11.2656 5.18593 11.2656Z" fill="#9F9F9F"/>
<path d="M13.0564 9.48845C13.0564 10.3863 13.0593 11.2838 13.0554 12.1817C13.0528 12.759 12.5946 13.1995 12.0306 13.1787C11.5102 13.1594 11.0982 12.7225 11.0936 12.1729C11.0885 11.6033 11.0925 11.0336 11.0925 10.464C11.0925 9.22915 11.0946 7.99432 11.0889 6.75949C11.0882 6.63331 11.1248 6.61361 11.2377 6.61471C11.8081 6.62054 12.3785 6.61945 12.949 6.61507C13.0374 6.61434 13.0589 6.63841 13.0586 6.72703C13.055 7.6475 13.0564 8.56798 13.0564 9.48845Z" fill="#9F9F9F"/>
<path d="M3.40745 4.60856C3.17382 4.60856 2.94019 4.60418 2.70691 4.61075C2.61598 4.6133 2.59621 4.58303 2.59693 4.49587C2.60124 4.0174 2.60052 3.53893 2.59729 3.06046C2.59657 2.97877 2.60771 2.94267 2.70332 2.94376C3.17921 2.94923 3.65546 2.9485 4.13171 2.94412C4.21977 2.94339 4.24421 2.9671 4.24313 3.05718C4.23882 3.53565 4.2381 4.01412 4.24349 4.49259C4.24457 4.59251 4.21186 4.61294 4.12164 4.61075C3.8837 4.60455 3.64539 4.60856 3.40745 4.60856Z" fill="#9F9F9F"/>
</svg>
