<svg width="95" height="98" viewBox="0 0 95 98" fill="none" xmlns="http://www.w3.org/2000/svg">
<path d="M60.4673 44.9121C60.9286 47.9671 60.7658 50.9404 59.4634 53.7772C58.7579 55.3048 57.8896 56.6959 56.6414 57.8416C56.4244 57.3779 56.2344 56.9141 56.0174 56.4777C53.1412 50.4494 45.9778 48.54 40.5239 52.3588C38.5703 53.7227 37.3493 55.6321 36.5081 57.8416C33.2521 54.5683 32.0853 50.5585 32.5466 46.0304C32.5737 45.6486 32.628 45.2939 32.6823 44.9121C33.0079 43.9574 33.3335 43.0026 33.6591 42.0479C35.9926 37.2471 39.8456 34.5194 45.0824 33.7283C46.0321 33.701 46.9547 33.701 47.9044 33.6738C49.0711 33.9738 50.2921 34.1102 51.4318 34.5466C55.122 35.9651 57.7811 38.4746 59.4905 42.0207C59.8161 43.0026 60.1417 43.9574 60.4673 44.9121ZM46.5477 37.9563C43.8614 37.9563 41.7992 40.0567 41.7992 42.7299C41.7992 45.4849 43.8885 47.5853 46.6019 47.558C49.261 47.558 51.3503 45.4303 51.3503 42.7571C51.3775 40.0567 49.2882 37.9563 46.5477 37.9563Z" fill="#646C77"/>
<path d="M17.1889 85.5009C11.3279 80.1 13.3087 69.6527 20.7705 66.5431C24.2708 65.0701 27.6625 65.3429 31.0271 66.9795C31.8411 67.5796 32.6551 68.207 33.4692 68.8071C37.4036 73.0897 38.0005 77.836 35.5585 83.0459C35.0158 83.7824 34.446 84.5462 33.9033 85.2827C33.7948 85.3645 33.6862 85.4191 33.5506 85.5009C32.6823 81.9276 29.2091 79.2817 25.3833 79.2544C21.5845 79.2817 18.1114 81.9276 17.1889 85.5009ZM29.2905 73.117C29.3177 70.8529 27.5811 69.0253 25.4104 69.0253C23.2668 68.9981 21.5031 70.7984 21.476 72.9806C21.4489 75.2446 23.0769 76.9631 25.3019 76.9903C27.554 76.9903 29.2363 75.3537 29.2905 73.117Z" fill="#646D78"/>
<path d="M4.05608 44.9393C0.121678 41.4478 -0.475266 34.7103 2.69939 30.1277C5.79265 25.6815 11.4093 23.9357 16.4562 25.8724C21.476 27.8091 24.4336 32.8282 23.7824 38.3109C23.7552 38.5564 23.7552 38.7746 23.7552 39.0201C23.4296 39.9748 23.104 40.9296 22.7513 41.8843C22.1001 43.0026 21.5031 44.121 20.4992 44.9666C20.4178 44.7484 20.3364 44.5302 20.255 44.312C18.9526 40.9568 15.8322 38.8292 12.2505 38.8292C8.45176 38.7746 5.52131 40.9568 4.05608 44.9393ZM12.3048 28.5456C10.0255 28.5456 8.31609 30.2368 8.31609 32.5281C8.31609 34.683 10.1341 36.4833 12.2776 36.4833C14.3941 36.4833 16.212 34.6557 16.2392 32.5008C16.2392 30.3459 14.4755 28.5729 12.3048 28.5456Z" fill="#646D77"/>
<path d="M77.9415 71.453C78.8912 73.5261 79.5695 75.681 79.3796 77.9996C79.1354 80.9183 78.1314 83.5097 75.9336 85.5282C75.9336 85.4191 75.9336 85.31 75.9065 85.2281C74.9568 82.1185 71.8093 79.609 68.6889 79.3635C64.2932 79.0089 61.2271 81.4911 59.9246 84.4098C59.7618 84.7372 59.7347 85.1463 59.4362 85.3918C55.2034 81.1365 55.0134 74.1262 59.0292 69.5709C59.2463 69.3254 59.4905 69.0526 59.7076 68.8071C60.5216 68.207 61.3356 67.5796 62.1496 66.9795C65.0529 65.5884 68.0377 65.1519 71.158 66.1067C73.1388 66.7067 74.794 67.8251 76.2592 69.2436C76.829 69.98 77.3988 70.7165 77.9415 71.453ZM71.7007 73.0078C71.7007 70.7984 69.9642 69.0253 67.8206 68.9981C65.7313 68.9981 63.8319 70.8529 63.8048 72.9533C63.7776 75.1628 65.5685 76.9631 67.8206 76.9631C70.0184 76.9631 71.7007 75.2719 71.7007 73.0078Z" fill="#646D78"/>
<path d="M78.5927 25.2996C82.2015 24.754 85.4847 25.4632 88.3609 27.8091C93.4078 31.9007 93.9776 39.8112 89.5819 44.612C89.4462 44.7484 89.2834 44.8848 89.1206 44.9939C87.6825 40.9296 84.6436 38.7201 80.6006 38.7746C76.9647 38.8292 73.8172 41.2842 72.6775 44.9393C71.5922 44.1483 71.0495 42.9754 70.3983 41.857C70.0727 40.9568 69.7471 40.084 69.4215 39.1838C69.2858 37.6017 69.1501 36.0196 69.5029 34.4375C70.2898 30.946 72.2163 28.3001 75.3366 26.5271C75.5266 26.418 75.7437 26.2816 75.9336 26.1452C76.829 25.8724 77.6973 25.5724 78.5927 25.2996ZM76.9375 32.4463C76.9375 34.6557 78.7284 36.4833 80.8991 36.4833C82.9884 36.4833 84.8335 34.6285 84.8335 32.5008C84.8606 30.3459 83.0969 28.5729 80.9262 28.5456C78.6741 28.5183 76.9375 30.1822 76.9375 32.4463Z" fill="#646D78"/>
<path d="M38.3261 19.8714C36.5624 18.2347 35.5856 16.1616 35.1243 13.843C35.07 13.5703 34.9887 13.3248 34.9344 13.052C34.9344 12.0973 34.9615 11.1699 34.9615 10.2151C35.3957 8.16934 36.0469 6.23264 37.3493 4.56871C40.3883 0.64076 45.4894 -0.96861 50.1565 0.586205C54.932 2.1683 58.1609 6.55997 58.1881 11.579C58.1881 14.7432 57.157 17.5801 54.8506 19.8168C54.7692 19.6259 54.6878 19.4349 54.6064 19.244C53.2768 15.8343 50.0479 13.6521 46.412 13.7067C42.7761 13.7339 39.8456 15.998 38.3261 19.8714ZM42.6404 7.35101C42.6133 9.58776 44.377 11.3881 46.5477 11.4154C48.6641 11.4426 50.4821 9.6696 50.5363 7.4874C50.5906 5.33248 48.8269 3.47762 46.7105 3.45034C44.4584 3.42306 42.6675 5.14154 42.6404 7.35101Z" fill="#646D77"/>
<path d="M36.5081 57.8416C37.3493 55.6321 38.5703 53.7227 40.5239 52.3588C45.9778 48.54 53.1412 50.4494 56.0174 56.4777C56.2344 56.9414 56.4515 57.4051 56.6414 57.8416C56.5872 58.1962 56.2073 58.3053 56.0445 58.6054C55.2305 59.2055 54.3893 59.8056 53.5753 60.4057C51.486 61.4695 49.2882 62.1514 46.9275 62.2332C44.3227 62.3151 41.8806 61.6059 39.5743 60.4057C38.706 59.7783 37.8377 59.1509 36.9694 58.5235C36.8609 58.278 36.5624 58.1689 36.5081 57.8416Z" fill="#F02A64"/>
<path d="M72.6775 44.9393C73.8443 41.2842 76.9918 38.8292 80.6006 38.7746C84.6436 38.7201 87.6825 40.9296 89.1206 44.9939C88.2523 46.2759 86.9771 47.0124 85.6204 47.5853C81.0076 49.4947 76.8019 48.6764 73.0031 45.5394C72.8132 45.3758 72.6775 45.2121 72.6775 44.9393Z" fill="#017DA9"/>
<path d="M4.05608 44.9393C5.54844 40.9841 8.4789 38.7746 12.2776 38.7746C15.8593 38.7746 18.9526 40.9023 20.2821 44.2574C20.3635 44.4756 20.4449 44.6938 20.5263 44.9121C18.7626 46.9579 16.4834 47.9399 13.8785 48.3763C12.6304 48.5945 11.4094 48.4036 10.1612 48.349C9.21151 48.0217 8.23469 47.6944 7.28501 47.367C6.06399 46.7397 4.8701 46.085 4.05608 44.9393Z" fill="#C5E894"/>
<path d="M59.4634 85.4191C59.7618 85.1463 59.789 84.7644 59.9518 84.4371C61.2542 81.5184 64.3203 79.0089 68.716 79.3908C71.8092 79.6363 74.9839 82.1185 75.9336 85.2554C75.9607 85.3372 75.9607 85.4464 75.9607 85.5555C74.1699 87.7104 71.755 88.6924 69.0959 88.9924C65.6227 89.4016 62.5295 88.3105 59.8704 85.9919C59.6804 85.8282 59.4905 85.6646 59.4634 85.4191Z" fill="#FEC007"/>
<path d="M38.3261 19.8714C39.8185 15.9707 42.7489 13.7339 46.3849 13.6794C50.0479 13.6521 53.2497 15.807 54.5793 19.244C54.6607 19.4349 54.7421 19.6259 54.8235 19.8168C53.0055 21.9445 50.6177 22.8992 47.9315 23.3356C46.9818 23.5265 46.005 23.4447 45.0553 23.3083C42.4505 22.9264 40.1169 21.9172 38.3261 19.8714Z" fill="#FEC007"/>
<path d="M17.1889 85.5009C18.1114 81.9276 21.5845 79.2544 25.3833 79.2817C29.2091 79.2817 32.6823 81.9548 33.5506 85.5282C31.7326 87.6558 29.3448 88.6651 26.6857 88.9379C23.2126 89.3198 20.0922 88.3105 17.5145 85.9101C17.3788 85.801 17.2974 85.6373 17.1889 85.5009Z" fill="#017DA9"/>
<path d="M77.9415 71.453C77.3988 70.7165 76.829 69.98 76.2863 69.2436C78.8098 67.416 81.3332 65.6157 83.8295 63.7881C84.8606 63.0243 85.8917 62.2332 86.9499 61.524C88.0353 60.7875 88.985 60.0511 89.2834 58.5781C89.609 56.996 91.3999 56.2595 93.0008 56.7778C94.3032 57.1869 95.28 58.9054 94.9273 60.1874C94.4931 61.8241 92.9194 62.9697 91.4541 62.5606C90.6401 62.3424 90.1788 62.697 89.6362 63.1061C86.1359 65.6702 82.6085 68.2616 79.1083 70.8256C78.7284 71.0711 78.4299 71.4258 77.9415 71.453Z" fill="#C7DFEB"/>
<path d="M78.5927 25.2996C77.7244 25.5996 76.829 25.8724 75.9607 26.1725C74.5769 21.8899 73.1931 17.5801 71.7821 13.2975C71.6465 12.9156 71.5379 12.5065 71.4565 12.1246C71.3208 11.5517 71.1038 11.1153 70.4526 10.8698C69.313 10.4334 68.5261 9.01494 68.6617 7.92384C68.7974 6.58724 69.9099 5.41431 71.2666 5.14154C72.2705 4.92332 73.6815 5.60526 74.2784 6.6418C74.7668 7.51468 74.7668 8.52394 74.3056 9.39682C73.9257 10.106 73.98 10.7061 74.2242 11.4154C75.6623 15.8343 77.0732 20.2532 78.5113 24.6722C78.5113 24.8904 78.5384 25.0814 78.5927 25.2996Z" fill="#C7DFEB"/>
<path d="M33.9033 85.31C34.446 84.5735 35.0158 83.8097 35.5585 83.0732C37.3493 84.1098 38.9231 85.4464 40.5782 86.6466C42.966 88.365 45.3266 90.1108 47.6873 91.8566C48.1214 92.1839 48.5013 92.1566 48.9897 92.1021C51.0247 91.8566 52.5714 93.1113 52.5985 94.9935C52.6256 96.7119 51.1061 98.1031 49.3424 97.994C47.9858 97.9122 46.7647 96.6574 46.7105 95.2662C46.6833 94.8298 46.6019 94.5297 46.1949 94.257C42.0706 91.2837 37.9734 88.2832 33.9033 85.31Z" fill="#C7DFEB"/>
<path d="M7.28501 47.3943C8.23469 47.7216 9.21151 48.049 10.1612 48.3763C9.15724 50.6403 8.5603 53.0407 7.74628 55.3593C6.9594 57.6506 6.25392 59.9965 5.49418 62.3151C5.30424 62.8879 5.27711 63.4062 5.60271 63.9517C6.25392 65.0428 6.19966 66.1612 5.38564 67.1432C4.62589 68.0433 3.67621 68.5889 2.45519 68.2888C1.0985 67.9342 0.338749 67.0341 0.0402768 65.6975C-0.176794 64.6337 0.501552 63.2971 1.64117 62.7788C2.34665 62.4515 2.64512 61.9878 2.86219 61.3058C4.32742 56.6686 5.79265 52.0315 7.28501 47.3943Z" fill="#C7DFEB"/>
<path d="M34.9615 10.2424C34.9615 11.1971 34.9344 12.1246 34.9344 13.0793C30.1046 13.0793 25.2747 13.0793 20.4178 13.0793C19.7394 13.0793 19.2239 13.1611 18.7626 13.7885C18.0029 14.825 16.4562 14.9887 15.2624 14.334C14.177 13.7612 13.4444 12.3155 13.6886 11.279C14.0685 9.69687 15.0453 8.85127 16.4562 8.76944C17.3245 8.74216 18.1385 8.87855 18.6541 9.56049C19.1154 10.1333 19.6309 10.2424 20.3092 10.2424C25.2205 10.2151 30.0774 10.2424 34.9615 10.2424Z" fill="#C7DFEB"/>
<path d="M22.7513 41.857C23.0769 40.9023 23.4025 39.9476 23.7552 38.9929C26.7128 39.9476 29.6433 40.9023 32.6009 41.857C32.9536 41.9661 33.3063 42.1025 33.6862 42.0479C33.3606 43.0026 33.035 43.9574 32.7094 44.9121C29.8604 43.9846 27.0113 43.0572 24.1351 42.157C23.6738 41.9934 23.2397 41.7752 22.7513 41.857Z" fill="#C7DFEB"/>
<path d="M69.4215 39.1838C69.7471 40.084 70.0727 40.9568 70.3983 41.857C69.9099 41.7752 69.4757 41.9934 69.0416 42.157C66.1926 43.0845 63.3435 43.9846 60.4944 44.9121C60.1688 43.9574 59.8432 43.0026 59.5176 42.0479C60.5216 42.0479 61.417 41.6388 62.3396 41.3387C64.2661 40.7113 66.1654 40.0567 68.0648 39.4293C68.4989 39.2656 68.9602 39.1292 69.4215 39.1838Z" fill="#C7DFEB"/>
<path d="M36.9966 58.5235C37.8648 59.1509 38.7331 59.7783 39.6014 60.4057C38.7331 60.8421 38.4346 61.7423 37.892 62.4515C36.5353 64.2791 35.2057 66.1612 33.8762 68.0161C33.7134 68.2616 33.4692 68.4798 33.4692 68.8071C32.6551 68.207 31.8411 67.5796 31.0271 66.9795C32.9536 64.3336 34.853 61.6877 36.7795 59.0418C36.888 58.9054 36.9151 58.7145 36.9966 58.5235Z" fill="#C7DFEB"/>
<path d="M53.5753 60.4057C54.3893 59.8056 55.2305 59.2055 56.0445 58.6054C58.0795 61.4149 60.1146 64.1972 62.1496 67.0068C61.3356 67.6069 60.5216 68.2343 59.7076 68.8344C58.8122 67.0341 57.5097 65.5611 56.343 63.9517C55.4747 62.7515 54.7963 61.3604 53.5753 60.4057Z" fill="#C7DFEB"/>
<path d="M45.0553 23.3356C46.005 23.472 46.9818 23.5265 47.9315 23.3629C47.9315 26.7998 47.9044 30.2641 47.9044 33.701C46.9547 33.7283 46.0321 33.7283 45.0824 33.7556C45.0824 30.2641 45.0824 26.7998 45.0553 23.3356Z" fill="#C7DFEB"/>
<path d="M46.5477 37.9563C49.2882 37.9563 51.3775 40.0567 51.3775 42.7844C51.3775 45.4576 49.261 47.558 46.6291 47.5853C43.9157 47.5853 41.8264 45.4849 41.8264 42.7571C41.7992 40.0567 43.8614 37.9563 46.5477 37.9563Z" fill="#F5F5EB"/>
<path d="M29.2905 73.117C29.2634 75.3537 27.554 76.9903 25.3019 76.9631C23.0769 76.9358 21.4489 75.2446 21.476 72.9533C21.5031 70.7711 23.2668 68.9981 25.4104 68.9981C27.5811 69.0526 29.3177 70.8529 29.2905 73.117Z" fill="#F5F5EB"/>
<path d="M12.3048 28.5456C14.4755 28.5456 16.2392 30.3459 16.2392 32.5008C16.212 34.6557 14.3941 36.4833 12.2776 36.4833C10.1341 36.4833 8.31609 34.683 8.31609 32.5281C8.31609 30.2368 10.0255 28.5456 12.3048 28.5456Z" fill="#F5F5EB"/>
<path d="M71.7007 73.0078C71.7007 75.2719 70.0184 76.9631 67.7934 76.9631C65.5685 76.9631 63.7505 75.1628 63.7776 72.9533C63.8048 70.8529 65.677 68.9981 67.7934 68.9981C69.9641 69.0253 71.7007 70.8256 71.7007 73.0078Z" fill="#F5F5EB"/>
<path d="M76.9375 32.4463C76.9375 30.1822 78.647 28.5183 80.9533 28.5456C83.1241 28.5729 84.8606 30.3459 84.8606 32.5008C84.8335 34.6285 83.0155 36.4561 80.9262 36.4833C78.7284 36.4833 76.9375 34.683 76.9375 32.4463Z" fill="#F5F5EB"/>
<path d="M42.6404 7.35101C42.6675 5.14154 44.4584 3.42306 46.7105 3.47762C48.854 3.50489 50.5906 5.35976 50.5363 7.51468C50.4821 9.6696 48.6641 11.4426 46.5477 11.4426C44.3498 11.3881 42.6133 9.56049 42.6404 7.35101Z" fill="#F5F5EB"/>
</svg>
