<svg width="15" height="14" viewBox="0 0 15 14" fill="none" xmlns="http://www.w3.org/2000/svg">
<path d="M7.96458 4.66707C10.2291 4.66707 12.4937 4.66853 14.7582 4.66367C14.905 4.66318 14.9473 4.69139 14.9473 4.84701C14.9419 7.60492 14.9434 10.3633 14.9429 13.1212C14.9429 13.6907 14.6348 14 14.0682 14C9.98858 14 5.9085 14 1.82891 14C1.26034 14 0.952243 13.6917 0.952243 13.1232C0.952243 10.3653 0.953701 7.60686 0.948356 4.84895C0.94787 4.69722 0.98383 4.66221 1.13448 4.66269C3.41118 4.66902 5.68788 4.66707 7.96458 4.66707ZM7.95729 7.00042C6.4518 7.00042 4.94679 7.00188 3.44131 6.99751C3.31739 6.99702 3.27754 7.02134 3.28045 7.15313C3.29017 7.56601 3.29017 7.97938 3.28045 8.39227C3.27754 8.52795 3.31107 8.56394 3.44908 8.56296C4.42002 8.55616 5.39144 8.55956 6.36238 8.55956C8.38979 8.55956 10.4172 8.5581 12.4446 8.56296C12.5807 8.56345 12.6181 8.53135 12.6147 8.39373C12.6045 7.98716 12.604 7.57963 12.6147 7.17307C12.6186 7.02766 12.5758 6.99702 12.4363 6.99751C10.9435 7.00237 9.45063 7.00042 7.95729 7.00042ZM5.61693 11.6671C6.34489 11.6671 7.07334 11.6642 7.8013 11.67C7.91938 11.671 7.95291 11.6414 7.95048 11.5217C7.94271 11.0967 7.94368 10.6716 7.95 10.2466C7.95194 10.1333 7.91987 10.1056 7.80761 10.1056C6.34537 10.1095 4.88265 10.1095 3.42041 10.1056C3.30524 10.1051 3.279 10.1396 3.28094 10.249C3.28726 10.6741 3.28872 11.0991 3.27997 11.5242C3.27754 11.6487 3.31836 11.671 3.43207 11.67C4.16052 11.6647 4.88848 11.6671 5.61693 11.6671Z" fill="#9F9F9F"/>
<path d="M7.93979 3.10842C5.67573 3.10842 3.41118 3.10696 1.14711 3.11183C0.995008 3.11231 0.944468 3.08654 0.947384 2.91925C0.959047 2.22673 0.951272 1.53421 0.952729 0.841695C0.953701 0.321335 1.27249 0.000364738 1.791 0.000364738C5.89441 -0.000121579 9.9983 -0.000121579 14.1017 0.000364738C14.6212 0.000364738 14.9419 0.320848 14.9429 0.838777C14.9444 1.53713 14.939 2.23597 14.9468 2.93432C14.9482 3.07681 14.9108 3.11183 14.7694 3.11134C12.4927 3.10696 10.2165 3.10842 7.93979 3.10842Z" fill="#9F9F9F"/>
</svg>
