<svg width="60" height="98" viewBox="0 0 60 98" fill="none" xmlns="http://www.w3.org/2000/svg">
<path d="M60 15.5943C60 17.0212 60 18.4217 60 19.8487C60 44.4501 60 69.0781 60 93.6796C60 96.6656 58.7494 97.9604 55.8053 97.9604C51.819 97.9604 47.8066 97.9604 43.8204 97.9604C41.1889 97.9604 40.3552 97.3262 39.4954 94.763C38.1406 90.6143 34.1803 87.734 29.9595 87.7868C25.5824 87.8397 21.7264 90.7992 20.4498 95.0801C19.8505 97.0883 18.8344 97.9339 16.6719 97.9604C12.373 98.0132 8.1001 98.0132 3.80116 97.9604C1.35207 97.9339 0.0233047 96.5598 0.0233047 94.1552C0.0233047 69.0781 0.0233047 44.0009 0.0233047 18.9238C0.0233047 18.7917 0.0493584 18.6595 0.0493584 18.5274C0.62255 18.5274 1.2218 18.5538 1.79499 18.5538C2.60267 18.5803 3.12375 18.1311 3.28008 17.4176C3.46245 16.6248 3.35824 15.8585 2.4724 15.4357C1.69077 15.0658 0.883093 15.2507 0.101468 15.2243C0.0754138 11.2606 0.0233039 7.32331 0.0754122 3.35959C0.101466 1.50985 1.29996 0.347163 3.12375 0.10934C4.50462 -0.0756336 5.91155 0.0300655 7.31847 0.0300655C10.6013 0.0300655 13.8841 0.0300656 17.1669 0.0829152C18.9647 0.10934 19.9808 1.19276 20.4758 2.88394C21.3096 5.76425 23.0812 7.85181 25.7127 9.17305C31.132 11.8684 37.7758 8.96165 39.5475 3.09534C40.2249 0.849234 41.1889 0.0564903 43.4817 0.0564903C47.7024 0.0300655 51.9232 0.0300655 56.144 0.0564903C58.7233 0.0829151 60 1.457 60 4.07306C60 7.79896 59.9739 11.5249 59.9479 15.2243C59.4268 15.2243 58.9057 15.1715 58.3846 15.2243C57.2383 15.3036 56.6651 15.9378 56.6911 17.0741C56.7172 18.0518 57.3164 18.5803 58.4368 18.5803C58.6712 18.5803 58.8797 18.5539 59.1142 18.5803C59.6613 18.6331 59.8437 18.3953 59.8437 17.8404C59.8958 17.0741 59.7134 16.3077 60 15.5943ZM5.05176 52.3512C5.05176 61.1771 5.10387 70.0029 5.0257 78.8288C4.99965 81.2863 6.66712 82.7925 8.95988 82.7661C23.0031 82.7397 37.0202 82.7397 51.0634 82.7661C53.3562 82.7661 54.9976 81.2863 54.9976 78.8024C54.9455 61.177 54.9455 43.5517 54.9976 25.9264C54.9976 23.4689 53.4343 21.8305 50.9592 21.8569C47.6503 21.9098 44.3414 21.8834 41.0326 21.8834C30.3504 21.8834 19.6681 21.8834 8.98594 21.8834C6.48474 21.8834 5.07781 23.2839 5.07781 25.7414C5.05176 34.6466 5.05176 43.4989 5.05176 52.3512ZM40.0165 18.5538C40.5375 18.5538 41.0586 18.5538 41.5797 18.5538C42.5698 18.5274 43.169 18.0518 43.2732 17.1798C43.4035 16.3342 42.8564 15.3829 41.9966 15.2772C40.6157 15.1186 39.2088 15.0129 37.854 15.3564C37.0463 15.5678 36.6294 16.202 36.6815 17.0476C36.7336 17.9989 37.3329 18.501 38.2708 18.5538C38.844 18.5803 39.4433 18.5538 40.0165 18.5538ZM9.976 18.5538C10.4971 18.5538 11.0182 18.5538 11.5392 18.5538C12.6856 18.5538 13.363 17.9725 13.4412 17.0212C13.4933 16.2285 12.7117 15.2772 11.8258 15.2243C10.6795 15.1451 9.50702 15.1451 8.33458 15.2243C7.26636 15.3036 6.77133 16.0171 6.82344 17.1269C6.87555 18.0518 7.4748 18.5538 8.54302 18.5538C9.01199 18.5538 9.50702 18.5538 9.976 18.5538ZM19.9808 18.5538C20.5019 18.5538 21.023 18.5538 21.544 18.5538C22.6904 18.5274 23.3157 17.9989 23.3939 16.9684C23.446 16.1228 22.7425 15.2772 21.7785 15.2243C20.6322 15.1451 19.4597 15.1451 18.2873 15.2243C17.3754 15.2772 16.724 16.1756 16.7761 17.0476C16.8543 17.9989 17.4535 18.5274 18.4436 18.5538C18.9386 18.5538 19.4597 18.5538 19.9808 18.5538ZM49.9431 18.5538C50.4642 18.5538 50.9853 18.5538 51.5063 18.5538C52.5746 18.5538 53.1738 18.0518 53.252 17.1533C53.3301 16.0435 52.8351 15.33 51.7669 15.2243C50.6205 15.1186 49.4481 15.1451 48.2756 15.2243C47.3637 15.2772 46.6082 16.202 46.6342 16.9948C46.6603 17.9461 47.3898 18.5274 48.5101 18.5538C48.953 18.5538 49.4481 18.5538 49.9431 18.5538ZM29.9335 18.5538C30.5588 18.5538 31.158 18.5803 31.7833 18.5538C32.6431 18.5274 33.1903 18.0518 33.3205 17.2062C33.4508 16.3606 33.086 15.6207 32.2784 15.4093C30.7933 15.0129 29.2561 15.0129 27.771 15.4093C26.9633 15.6207 26.5986 16.3606 26.7288 17.2062C26.8591 18.0518 27.4062 18.5274 28.266 18.5538C28.8132 18.5538 29.3864 18.5538 29.9335 18.5538Z" fill="#F02A64"/>
<path d="M0.0754114 15.2243C0.883091 15.2507 1.66472 15.0658 2.44634 15.4357C3.33218 15.8585 3.4364 16.6248 3.25402 17.4176C3.0977 18.1311 2.57661 18.5803 1.76893 18.5538C1.19574 18.5274 0.596496 18.5274 0.0233039 18.5274C-0.00275028 17.4176 -0.0288052 16.3077 0.0754114 15.2243Z" fill="white"/>
<path d="M60 15.5943C59.7134 16.3342 59.8958 17.0741 59.8697 17.814C59.8697 18.3689 59.6613 18.6067 59.1402 18.5538C58.9057 18.5274 58.6973 18.5538 58.4628 18.5538C57.3425 18.5274 56.7432 18.0254 56.7172 17.0476C56.6911 15.9114 57.2383 15.2772 58.4107 15.1979C58.9318 15.1715 59.4529 15.1979 59.9739 15.1979C59.9739 15.33 59.9739 15.4621 60 15.5943Z" fill="white"/>
<path d="M5.05176 52.3512C5.05176 43.4989 5.05176 34.6201 5.05176 25.7678C5.05176 23.3103 6.45868 21.9098 8.95988 21.9098C19.6421 21.9098 30.3243 21.9098 41.0065 21.9098C44.3154 21.9098 47.6243 21.9626 50.9331 21.8834C53.4083 21.8305 54.9976 23.4953 54.9715 25.9528C54.8934 43.5781 54.9194 61.2035 54.9715 78.8288C54.9715 81.3127 53.3301 82.7925 51.0374 82.7925C36.9942 82.7661 22.977 82.7661 8.93383 82.7925C6.61501 82.7925 4.9736 81.3127 4.99965 78.8552C5.10387 70.0294 5.05176 61.1771 5.05176 52.3512ZM51.6627 52.4304C51.6627 43.7895 51.6627 35.175 51.6887 26.5341C51.6887 25.6885 51.5063 25.4243 50.6205 25.4243C36.916 25.4507 23.2115 25.4507 9.50702 25.4243C8.59513 25.4243 8.38669 25.715 8.38669 26.587C8.41275 43.816 8.41275 61.0449 8.38669 78.2739C8.38669 79.1459 8.59513 79.4366 9.50702 79.4366C23.2115 79.4102 36.916 79.4102 50.6205 79.4366C51.5063 79.4366 51.6887 79.1723 51.6887 78.3267C51.6366 69.7123 51.6627 61.0714 51.6627 52.4304Z" fill="#017DA9"/>
<path d="M40.0165 18.5538C39.4433 18.5538 38.844 18.5803 38.2708 18.5538C37.3068 18.5274 36.7336 17.9989 36.6815 17.0476C36.6294 16.202 37.0463 15.5678 37.854 15.3564C39.2088 15.0129 40.6157 15.1186 41.9966 15.2772C42.8564 15.3829 43.4035 16.3342 43.2732 17.1798C43.143 18.0518 42.5437 18.5274 41.5797 18.5538C41.0586 18.5538 40.5375 18.5538 40.0165 18.5538Z" fill="white"/>
<path d="M9.976 18.5538C9.48097 18.5538 9.01199 18.5538 8.51696 18.5538C7.44874 18.5274 6.8495 18.0254 6.79739 17.1269C6.71923 16.0171 7.21426 15.3036 8.30853 15.2243C9.45492 15.1451 10.6274 15.1451 11.7998 15.2243C12.6856 15.2772 13.4673 16.2285 13.4151 17.0212C13.363 17.9725 12.6596 18.5538 11.5132 18.5538C11.0182 18.5538 10.4971 18.5538 9.976 18.5538Z" fill="white"/>
<path d="M19.9808 18.5538C19.4597 18.5538 18.9386 18.5538 18.4175 18.5538C17.4275 18.5274 16.8022 17.9989 16.7501 17.0476C16.698 16.1756 17.3493 15.2772 18.2612 15.2243C19.4076 15.1451 20.58 15.1451 21.7525 15.2243C22.7425 15.3036 23.446 16.1492 23.3678 16.9684C23.2897 17.9725 22.6644 18.5274 21.518 18.5538C21.023 18.5538 20.5019 18.5538 19.9808 18.5538Z" fill="white"/>
<path d="M49.9431 18.5538C49.4481 18.5538 48.9791 18.5538 48.4841 18.5538C47.3637 18.5274 46.6603 17.9461 46.6082 16.9948C46.5821 16.202 47.3637 15.2772 48.2496 15.2243C49.396 15.1451 50.5684 15.1451 51.7408 15.2243C52.809 15.3036 53.3041 16.0435 53.2259 17.1533C53.1738 18.0518 52.5485 18.5538 51.4803 18.5538C50.9592 18.5538 50.4642 18.5538 49.9431 18.5538Z" fill="white"/>
<path d="M29.9335 18.5538C29.3864 18.5538 28.8392 18.5803 28.266 18.5538C27.4062 18.5274 26.8591 18.0518 26.7288 17.2062C26.5986 16.3606 26.9633 15.6207 27.771 15.4093C29.2561 15.0129 30.7933 15.0129 32.2784 15.4093C33.086 15.6207 33.4508 16.3606 33.3205 17.2062C33.1903 18.0518 32.6431 18.5274 31.7833 18.5538C31.158 18.5803 30.5327 18.5538 29.9335 18.5538Z" fill="white"/>
<path d="M51.6627 52.4304C51.6627 61.0714 51.6627 69.6858 51.6887 78.3267C51.6887 79.1723 51.5063 79.4366 50.6205 79.4366C36.916 79.4102 23.2115 79.4102 9.50702 79.4366C8.59513 79.4366 8.38669 79.1459 8.38669 78.2739C8.41275 61.0449 8.41275 43.816 8.38669 26.587C8.38669 25.715 8.59513 25.4243 9.50702 25.4243C23.2115 25.4507 36.916 25.4507 50.6205 25.4243C51.5063 25.4243 51.6887 25.6885 51.6887 26.5341C51.6366 35.175 51.6627 43.816 51.6627 52.4304ZM37.8018 49.4444C37.7497 48.2025 37.6976 46.8812 37.6195 45.56C37.5934 45.0315 37.7237 44.6351 38.0624 44.2123C39.0785 43.0232 40.0686 41.7812 41.0326 40.5393C42.1529 39.1388 41.7881 38.0025 40.0946 37.5269C38.5574 37.1041 37.0202 36.6813 35.483 36.2849C34.9098 36.1528 34.519 35.8621 34.2064 35.3336C33.3726 34.0388 32.5129 32.7704 31.627 31.502C30.637 30.0486 29.4385 30.0222 28.4745 31.4756C27.6147 32.744 26.7288 34.0124 25.8951 35.3072C25.5564 35.8357 25.1395 36.1528 24.5403 36.3113C23.0031 36.7077 21.4659 37.1305 19.9287 37.5269C18.3394 37.9496 17.9486 39.1123 18.9647 40.4072C19.9026 41.5963 20.8406 42.759 21.8306 43.9217C22.2996 44.4766 22.5341 45.0315 22.482 45.7978C22.3778 47.3833 22.2996 48.9424 22.2736 50.5279C22.2475 51.9548 23.2115 52.6418 24.5403 52.1662C25.9211 51.6905 27.302 51.2149 28.6568 50.66C29.5948 50.2636 30.4546 50.1843 31.4186 50.6336C32.4347 51.1092 33.5811 51.3734 34.5972 51.8491C36.8899 52.9325 38.1145 52.1133 37.8018 49.4444ZM30.0117 57.4776C25.1395 57.4776 20.2674 57.4776 15.3953 57.4776C14.0665 57.4776 13.4412 58.0061 13.4412 59.1159C13.4412 60.1201 14.2228 60.8335 15.3953 60.8335C25.1395 60.8335 34.8838 60.8335 44.628 60.8335C45.8005 60.8335 46.5821 60.1201 46.5821 59.1159C46.556 58.0061 45.9568 57.4776 44.628 57.4776C39.7559 57.4776 34.8838 57.4776 30.0117 57.4776ZM24.1755 70.9278C21.2575 70.9278 18.3394 70.9278 15.4213 70.9278C14.0665 70.9278 13.4151 71.4827 13.4412 72.6454C13.4412 73.7553 14.0665 74.2838 15.3953 74.2838C21.2575 74.2838 27.1457 74.2838 33.0079 74.2838C34.3106 74.2838 34.9098 73.7553 34.9098 72.619C34.9098 71.4563 34.3366 70.9278 33.0339 70.9278C30.0898 70.9278 27.1196 70.9278 24.1755 70.9278ZM35.8999 64.2159C32.9818 64.2159 30.0638 64.2159 27.1196 64.2159C25.869 64.2159 24.9832 64.8765 24.9832 65.8542C24.9571 66.832 25.869 67.5719 27.0936 67.5719C32.9297 67.5719 38.7919 67.5719 44.628 67.5719C45.9307 67.5719 46.5821 66.9905 46.5821 65.8807C46.5821 64.7444 45.9568 64.2159 44.6541 64.2159C41.736 64.2159 38.818 64.2159 35.8999 64.2159ZM17.5317 64.2159C16.7501 64.2159 15.9685 64.2159 15.1868 64.2159C14.0926 64.2423 13.4933 64.7708 13.4151 65.7485C13.363 66.7791 13.8841 67.4926 14.9263 67.5454C16.6459 67.6247 18.3654 67.6247 20.085 67.5454C21.1272 67.4926 21.6483 66.7791 21.5962 65.7485C21.544 64.7708 20.9448 64.2423 19.8245 64.2159C19.095 64.1895 18.3133 64.2159 17.5317 64.2159Z" fill="#07A8D3"/>
<path d="M30.0117 57.4776C34.8838 57.4776 39.7559 57.4776 44.628 57.4776C45.9568 57.4776 46.5821 58.0061 46.5821 59.1159C46.5821 60.1201 45.8005 60.8335 44.628 60.8335C34.8838 60.8335 25.1395 60.8335 15.3953 60.8335C14.2228 60.8335 13.4151 60.1201 13.4412 59.1159C13.4412 58.0061 14.0665 57.4776 15.3953 57.4776C20.2674 57.4776 25.1395 57.4776 30.0117 57.4776Z" fill="white"/>
<path d="M24.1755 70.9278C27.1196 70.9278 30.0898 70.9278 33.0339 70.9278C34.3366 70.9278 34.9098 71.4563 34.9098 72.619C34.9098 73.7553 34.3106 74.2838 33.0079 74.2838C27.1457 74.2838 21.2575 74.2838 15.3953 74.2838C14.0926 74.2838 13.4673 73.7553 13.4412 72.6454C13.4151 71.4827 14.0665 70.9278 15.4213 70.9278C18.3394 70.9278 21.2575 70.9278 24.1755 70.9278Z" fill="white"/>
<path d="M35.8999 64.2159C38.818 64.2159 41.736 64.2159 44.6801 64.2159C45.9829 64.2159 46.6082 64.7708 46.6082 65.8807C46.6082 66.9641 45.9568 67.5719 44.6541 67.5719C38.818 67.5719 32.9558 67.5719 27.1196 67.5719C25.869 67.5719 24.9832 66.832 25.0093 65.8542C25.0353 64.8765 25.8951 64.2159 27.1457 64.2159C30.0377 64.2159 32.9818 64.2159 35.8999 64.2159Z" fill="white"/>
<path d="M17.5317 64.2159C18.3133 64.2159 19.095 64.2159 19.8766 64.2159C20.9709 64.2423 21.5962 64.7708 21.6483 65.7485C21.7004 66.7791 21.1793 67.4926 20.1371 67.5454C18.4175 67.6247 16.698 67.6247 14.9784 67.5454C13.9362 67.4926 13.4151 66.7791 13.4673 65.7485C13.5194 64.7708 14.1186 64.2159 15.2389 64.2159C15.9945 64.1895 16.7501 64.2159 17.5317 64.2159Z" fill="white"/>
</svg>
