<svg width="84" height="77" viewBox="0 0 84 77" fill="none" xmlns="http://www.w3.org/2000/svg">
<path d="M84 7.40387C84 21.1756 84 34.9638 84 48.7356C83.7199 48.8344 83.8188 49.1144 83.7528 49.2956C82.5995 53.4634 79.3866 55.9838 75.0532 55.9838C57.6705 56.0003 40.2712 56.0003 22.8885 55.9838C17.7972 55.9838 14.0076 52.2279 13.9911 47.1376C13.9417 34.4037 13.9582 21.6698 13.9911 8.91941C14.0076 3.76325 17.8466 0.0237949 23.0038 0.0073215C26.7275 -0.00915187 30.4347 0.0073215 34.1584 0.0073215C47.7681 0.0073215 61.3942 0.0073215 75.0038 0.0073215C79.057 0.0073215 82.3688 2.39596 83.5881 6.11894C83.7364 6.56372 83.6869 7.04145 84 7.40387ZM20.9937 41.6026C21.0596 41.652 21.1255 41.685 21.1914 41.7344C21.3726 41.5037 21.5374 41.2566 21.7516 41.0425C24.6515 38.1432 27.5349 35.2274 30.4512 32.3445C33.1369 29.6759 36.7782 29.6594 39.4968 32.2951C40.5349 33.3 41.5564 34.3378 42.5779 35.3592C43.583 36.3641 43.583 36.3476 44.4728 35.2933C48.4271 30.549 52.3815 25.8046 56.3194 21.0603C57.1432 20.0719 58.0824 19.2647 59.3181 18.8858C61.9379 18.0951 64.1952 18.7375 65.9747 20.7802C68.924 24.1573 71.8238 27.5673 74.7402 30.9773C75.4322 31.8009 76.1407 32.6081 76.981 33.5801C76.981 33.1353 76.981 32.8882 76.981 32.6575C76.981 24.8656 76.981 17.0737 76.981 9.28183C76.981 7.5686 76.4373 7.02498 74.7402 7.02498C57.5716 7.02498 40.403 7.02498 23.2345 7.02498C21.5374 7.02498 20.9937 7.58507 20.9937 9.2983C20.9937 18.2433 20.9937 27.1719 20.9937 36.117C20.9937 37.9455 20.9937 39.774 20.9937 41.6026Z" fill="#017DA9"/>
<path d="M72.6806 61.2553C71.8238 64.0064 70.9835 66.675 70.1432 69.3437C69.929 70.0191 69.7313 70.6946 69.5171 71.37C68.1825 75.5872 64.0963 77.844 59.8289 76.7073C45.5272 72.8855 31.2421 69.0472 16.9404 65.2254C13.3321 64.2535 9.7237 63.298 6.11534 62.3261C1.60076 61.14 -0.953101 56.8075 0.33207 52.4091C3.00127 43.3488 5.75286 34.2884 8.45501 25.2445C8.48796 25.1292 8.53739 24.9974 8.68568 24.8821C8.70216 25.1622 8.71863 25.4257 8.71863 25.7058C8.71863 33.0858 8.6692 40.4659 8.73511 47.846C8.78454 53.0845 11.1077 57.1205 15.7212 59.7233C17.7972 60.8929 20.0545 61.2718 22.4271 61.2718C38.8213 61.2553 55.2319 61.2553 71.6261 61.2553C71.9721 61.2553 72.2852 61.2553 72.6806 61.2553Z" fill="white"/>
<path d="M31.4728 24.5032C27.6172 24.4868 24.4867 21.3403 24.4867 17.502C24.5032 13.6308 27.6996 10.4844 31.5716 10.5173C35.3942 10.5503 38.5577 13.7626 38.5082 17.5679C38.4588 21.4392 35.3283 24.5197 31.4728 24.5032Z" fill="#017DA9"/>
</svg>
