<svg width="100" height="100" viewBox="0 0 100 100" fill="none" xmlns="http://www.w3.org/2000/svg">
<circle cx="50" cy="50" r="49.5" fill="#F5F5EB" stroke="#D9D9D9"/>
<mask id="mask0_186_610" style="mask-type:alpha" maskUnits="userSpaceOnUse" x="0" y="0" width="100" height="100">
<circle cx="50" cy="50" r="50" fill="#D9D9D9"/>
</mask>
<g mask="url(#mask0_186_610)">
<path d="M51.3195 69.4492C49.009 70.5621 46.6986 71.7178 44.3667 72.8093C29.8836 79.7223 15.4004 86.6353 0.895862 93.5268C0.639144 93.6553 0.382427 93.7837 0.125709 93.9121C-0.302154 93.9121 -0.730016 93.9121 -1.15788 93.9121C-1.45738 93.6552 -1.90664 93.6338 -2.12057 93.27C-1.90664 93.0346 -1.7141 92.7777 -1.47878 92.5637C4.5113 86.5711 10.48 80.5784 16.4701 74.6071C16.684 74.3931 16.9621 74.2005 17.0905 73.8795C17.1333 73.9009 17.176 73.9009 17.2402 73.9009C17.9034 74.7998 19.6576 74.7784 20.5348 73.9009C21.4761 72.9592 21.5188 71.568 20.5989 70.5407C20.5989 70.4979 20.5776 70.4337 20.5776 70.3909C20.6203 70.3695 20.6845 70.3481 20.7273 70.3267C23.7651 67.3089 26.803 64.2698 29.8408 61.2521C30.1403 60.9524 30.0975 60.717 29.8194 60.4388C29.0706 59.7325 28.4288 58.9192 27.787 58.1059C25.4338 55.1096 23.7651 51.7708 22.6955 48.0896C21.797 44.9435 21.5188 41.7545 21.5616 38.5014C21.9895 37.0246 22.7596 36.4253 24.2786 36.4681C32.5363 36.6822 39.5747 39.6785 45.2652 45.714C45.0513 45.9494 44.8588 46.2062 44.6234 46.4202C39.9811 51.0645 35.3602 55.7089 30.7179 60.3318C30.29 60.7598 30.2686 60.9738 30.7179 61.3805C32.6005 63.1355 34.6328 64.655 36.8791 65.875C41.3717 68.3363 46.1851 69.5134 51.3195 69.4492ZM29.0492 65.9392C27.7443 65.9392 26.6746 67.0307 26.6746 68.3363C26.6746 69.6418 27.7656 70.7333 29.0492 70.7333C30.397 70.7333 31.4881 69.6418 31.4667 68.2934C31.4453 66.9879 30.3542 65.9178 29.0492 65.9392Z" fill="#FEB354"/>
<path d="M17.0905 73.8795C16.9621 74.1791 16.7054 74.3717 16.4701 74.6071C10.48 80.5998 4.5113 86.5925 -1.47878 92.5637C-1.69271 92.7777 -1.90664 93.0346 -2.12057 93.27C-2.54843 92.949 -2.67679 92.4353 -2.91212 92.0073C-2.91212 91.6434 -2.91212 91.2582 -2.91212 90.8943C-1.26484 87.3844 0.40382 83.8744 2.0297 80.3644C8.38346 66.7097 14.7372 53.0336 21.091 39.3789C21.2193 39.1006 21.3905 38.8224 21.5402 38.5442C21.4975 41.7973 21.7756 44.9863 22.6741 48.1324C23.7223 51.7922 25.391 55.1524 27.7656 58.1487C28.4074 58.962 29.0492 59.7753 29.798 60.4816C30.0761 60.7598 30.1189 60.9952 29.8194 61.2949C26.7816 64.3126 23.7437 67.3517 20.7059 70.3695C20.6631 70.4123 20.6203 70.4123 20.5562 70.4337C19.679 69.813 18.7591 69.5134 17.7323 70.0698C16.3417 70.7975 16.1064 72.2743 17.0905 73.8795ZM22.7383 58.2557C21.4119 58.2343 20.3208 59.2616 20.278 60.5672C20.2353 61.8941 21.2621 63.0071 22.5671 63.0499C23.9149 63.0927 25.0487 62.044 25.0701 60.6956C25.0915 59.3687 24.0646 58.2771 22.7383 58.2557Z" fill="#FEDC54"/>
<path d="M-2.91212 92.0073C-2.6554 92.4353 -2.54843 92.9704 -2.12057 93.27C-1.90664 93.6338 -1.45738 93.6766 -1.15788 93.9121C-1.73549 93.9121 -2.56983 94.1475 -2.84794 93.8479C-3.14744 93.5482 -2.91212 92.7349 -2.91212 92.1571C-2.91212 92.1143 -2.91212 92.0715 -2.91212 92.0073Z" fill="#FEFEFE"/>
<path d="M51.3195 69.4492C46.2065 69.5134 41.3717 68.3363 36.8791 65.8964C34.6328 64.6764 32.6005 63.1569 30.7179 61.4019C30.2686 60.9952 30.29 60.7812 30.7179 60.3532C35.3602 55.7303 40.0025 51.0859 44.6234 46.4416C44.8374 46.2276 45.0513 45.9708 45.2652 45.7354C47.6185 48.0254 49.3299 50.7649 50.6777 53.7398C52.6459 58.0417 53.4374 62.579 53.2449 67.2875C53.1807 68.3148 52.5389 69.0425 51.3195 69.4492Z" fill="#FE8659"/>
<path d="M46.8269 35.3766C46.9553 30.0902 50.8274 26.3662 55.5981 26.2378C57.3737 26.195 58.7001 25.4673 59.4917 23.8193C60.5613 21.6363 61.631 19.4747 62.8076 17.3558C64.2837 14.6805 66.7012 13.375 69.6534 12.9683C71.7285 12.6687 73.8037 12.3905 75.8574 12.048C77.3763 11.7912 78.7027 12.5831 78.9594 13.9742C79.2161 15.3868 78.2321 16.5853 76.649 16.8208C74.2529 17.1632 71.8783 17.5056 69.5037 17.9337C68.2629 18.1477 67.4071 18.9396 66.8295 20.0311C65.6743 22.257 64.6474 24.547 63.3852 26.7087C61.7593 29.5124 59.2136 31.0319 55.9618 31.0319C53.6299 31.0319 51.1483 33.2578 51.7687 35.9545C51.8971 36.4681 51.9399 37.0032 51.9399 37.5382C51.9613 38.8438 51.0628 39.8925 49.822 40.0209C48.5812 40.1493 47.4259 39.3146 47.1906 38.0733C46.9981 37.0888 46.9125 36.1043 46.8269 35.3766Z" fill="#017DA9"/>
<path d="M68.9046 40.7058C68.7763 38.7582 69.1614 36.939 70.445 35.398C72.0067 33.4932 74.2101 32.9581 76.4778 32.7013C77.6117 32.5729 78.6385 33.5574 78.8097 34.6917C78.9808 35.7833 78.339 36.9176 77.2694 37.3028C76.7131 37.4954 76.1355 37.6239 75.5793 37.7737C74.1032 38.1375 73.7395 38.6298 73.6967 40.1707C73.6753 41.2837 73.8037 42.3966 73.5684 43.5095C72.8196 47.2121 69.2897 49.5236 65.6101 48.7103C64.134 48.3892 63.4922 48.7103 62.8932 50.08C62.1658 51.7922 61.4384 53.5044 60.6897 55.2166C60.2404 56.2225 59.2777 56.7576 58.2509 56.6506C57.2668 56.5435 56.4324 55.8159 56.1543 54.8314C56.026 54.3177 56.0688 53.8254 56.2827 53.3546C57.117 51.407 57.9086 49.4166 58.8285 47.5117C60.1335 44.7294 63.2141 43.2741 66.2305 43.959C68.0061 44.3442 68.9046 43.6379 68.9046 41.8615C68.9046 41.4335 68.9046 41.0696 68.9046 40.7058Z" fill="#FEC007"/>
<path d="M30.1831 28.2924C30.1831 24.3116 33.2851 21.1654 37.1572 21.1226C38.9329 21.1012 39.8742 20.2879 40.1309 18.5115C40.3448 17.1204 40.5373 15.7292 40.7513 14.3167C40.9652 12.9255 42.1204 12.0052 43.4468 12.155C44.7304 12.3049 45.6931 13.4606 45.5219 14.8303C45.308 16.7137 45.0727 18.5972 44.6876 20.4378C44.0458 23.5625 41.1364 25.8526 37.9488 25.9168C37.6279 25.9168 37.307 25.8954 36.9861 25.9382C35.5314 26.1308 34.697 27.4791 35.1249 28.9559C35.5741 30.5183 34.9751 31.8024 33.5846 32.2305C32.2582 32.6371 31.0174 31.888 30.5254 30.3899C30.29 29.6836 30.1403 28.9559 30.1831 28.2924Z" fill="#F02A64"/>
<path d="M58.529 40.0209C57.2454 40.0423 56.1329 38.9722 56.1115 37.6667C56.0902 36.3611 57.1384 35.2482 58.4434 35.2268C59.7912 35.2054 60.9036 36.2755 60.9036 37.6239C60.9036 38.908 59.834 39.9995 58.529 40.0209Z" fill="#04A865"/>
<path d="M67.4499 60.4816C66.1663 60.4816 65.0753 59.3901 65.0753 58.0845C65.0753 56.779 66.1449 55.6875 67.4499 55.6875C68.7763 55.666 69.8887 56.779 69.8673 58.1273C69.8459 59.4329 68.7549 60.4816 67.4499 60.4816Z" fill="#F02A64"/>
<path d="M32.7502 14.5307C32.7716 15.8363 31.702 16.9278 30.397 16.9706C29.1134 16.992 27.9796 15.9219 27.9582 14.6377C27.9154 13.2894 29.0064 12.1764 30.3542 12.1764C31.6592 12.1764 32.7289 13.2466 32.7502 14.5307Z" fill="#ADE236"/>
<path d="M55.7907 15.8791C55.7693 17.1846 54.6996 18.2547 53.3946 18.2547C52.0682 18.2547 50.9558 17.1204 50.9986 15.7934C51.02 14.4879 52.1324 13.4392 53.4374 13.4606C54.7424 13.482 55.7907 14.5521 55.7907 15.8791Z" fill="#F02A64"/>
<path d="M72.6057 23.6909C73.9106 23.7123 74.9803 24.7824 74.9803 26.1094C74.9803 27.4363 73.8465 28.5279 72.5201 28.5065C71.2365 28.4636 70.1668 27.3507 70.1882 26.0452C70.2096 24.7396 71.3007 23.6695 72.6057 23.6909Z" fill="#017DA9"/>
<path d="M42.9976 33.7714C42.9976 35.077 41.9493 36.1685 40.6229 36.1899C39.2965 36.2113 38.1841 35.0984 38.2055 33.75C38.2269 32.4445 39.3179 31.3744 40.6229 31.3744C41.9065 31.3744 42.9762 32.4659 42.9976 33.7714Z" fill="#FEC007"/>
</g>
</svg>
