<svg width="32" height="32" viewBox="0 0 32 32" fill="none" xmlns="http://www.w3.org/2000/svg">
<path d="M7.33764 14.7089C5.71784 14.7089 4.0881 14.7089 2.4683 14.7089C0.957818 14.7089 0.0137637 13.7748 0.0137637 12.2544C0.00382634 9.46195 0.0137637 6.67948 0.0137637 3.88707C0.0137637 3.24113 -0.0359233 2.5952 0.0535134 1.95921C0.202575 0.846217 1.10688 0.0214121 2.22981 0.0114747C5.64828 0.00153732 9.06675 -0.00840009 12.4852 0.0114747C13.7572 0.0214121 14.6913 1.03503 14.6913 2.37658C14.7013 5.21868 14.7013 8.05084 14.6913 10.8929C14.6913 11.5488 14.7609 12.2047 14.6416 12.8605C14.4429 13.9636 13.5485 14.7089 12.4157 14.7188C10.7263 14.7188 9.03693 14.7089 7.33764 14.7089Z" fill="#1E2326"/>
<path d="M17.3049 7.3751C17.3049 5.73542 17.3049 4.10569 17.3049 2.46602C17.3049 0.915779 18.229 0.00153737 19.7793 0.00153737C23.0288 0.00153737 26.2684 0.00153737 29.5179 0.00153737C31.0384 0.00153737 31.9725 0.925717 31.9725 2.45608C31.9725 5.72549 31.9725 8.99489 31.9725 12.2643C31.9725 13.7847 31.0384 14.699 29.508 14.699C26.2485 14.699 22.9891 14.699 19.7296 14.699C18.229 14.699 17.3049 13.7748 17.2949 12.2643C17.2949 10.6445 17.3049 9.01477 17.3049 7.3751Z" fill="#1E2326"/>
<path d="M7.38732 17.3125C9.027 17.3125 10.6567 17.3125 12.2964 17.3125C13.7671 17.3125 14.7112 18.2566 14.7112 19.7273C14.7112 23.0066 14.7112 26.2959 14.7112 29.5753C14.7112 31.0559 13.7671 32 12.3063 32C9.027 32 5.73771 32 2.45837 32C0.967755 32 0.0336386 31.0659 0.0237012 29.5653C0.0137638 26.2959 0.0336386 23.0265 0.0137637 19.7571C0.00382633 18.2963 1.07707 17.2529 2.48818 17.3026C4.10798 17.3523 5.74765 17.3125 7.38732 17.3125Z" fill="#1E2326"/>
<path d="M24.6486 17.3125C26.2982 17.3125 27.9478 17.3125 29.5875 17.3125C31.0185 17.3125 31.9625 18.2466 31.9625 19.6776C31.9725 22.9967 31.9725 26.3158 31.9625 29.6349C31.9625 31.046 31.0185 31.9901 29.6173 31.9901C26.2982 32 22.9791 32 19.66 31.9901C18.2489 31.9901 17.3049 31.0559 17.3049 29.6349C17.2949 26.3059 17.2949 22.9669 17.3049 19.6379C17.3049 18.2267 18.2589 17.3026 19.67 17.3026C21.3295 17.3125 22.9891 17.3125 24.6486 17.3125Z" fill="#1E2326"/>
</svg>
