<svg width="98" height="98" viewBox="0 0 98 98" fill="none" xmlns="http://www.w3.org/2000/svg">
<path d="M0 95.7187C0 78.8822 0 62.0217 0 45.1852C0.767311 43.3864 2.13408 42.8108 4.02838 42.8588C7.33741 42.9547 10.6464 42.8588 13.9794 42.8588C16.665 42.8588 19.3506 42.8588 22.0602 42.8588C22.3479 42.8588 22.6357 42.8828 22.9234 42.8828C40.3078 42.8828 57.7162 42.8828 75.1006 42.8828C75.3883 42.8828 75.676 42.8588 75.9638 42.8588C78.6494 42.8588 81.335 42.8588 84.0206 42.8588C87.4974 42.8588 90.9743 42.8828 94.4512 42.8828C96.8011 42.8828 98 44.0579 98 46.3844C98 62.4294 98 78.4745 98 94.4955C98 94.8793 98 95.263 97.9041 95.6228C97.5204 97.2057 96.3215 97.9732 94.3313 97.9732C64.2383 97.9732 34.1453 97.9732 4.05236 97.9972C2.15806 98.0451 0.767311 97.4935 0 95.7187ZM36.735 75.5725C37.1187 76.0521 37.3105 76.3159 37.5023 76.5798C39.4446 79.146 41.3629 81.7363 43.3051 84.3025C44.0484 85.2858 44.9836 85.8854 46.2545 85.7175C48.7242 85.4057 49.7793 82.8155 48.2687 80.7289C46.6141 78.4265 44.9117 76.1481 43.1612 73.9176C42.5618 73.1501 42.7296 72.9343 43.5449 72.5985C47.3575 71.0156 49.4196 67.1062 48.8202 62.6693C48.3166 58.9998 44.9117 55.714 41.0991 55.2583C38.8211 54.9705 36.5192 55.1624 34.2173 55.1144C31.7954 55.0904 30.6445 56.2656 30.6445 58.688C30.6445 63.9884 30.6445 69.2887 30.6445 74.5651C30.6445 77.1074 30.6445 79.6737 30.6445 82.2159C30.6445 82.5997 30.6445 82.9834 30.7404 83.3671C31.1001 84.8781 32.4908 85.8614 34.0015 85.7175C35.5601 85.5736 36.735 84.3025 36.759 82.6716C36.759 80.4172 36.735 78.1147 36.735 75.5725ZM55.1265 70.44C55.1265 74.4692 55.1265 78.4745 55.1265 82.5037C55.1265 84.4944 56.3734 85.7415 58.3396 85.7655C60.3058 85.7895 62.2961 85.7895 64.2623 85.7655C66.0607 85.7415 67.3795 84.3984 67.3555 82.6716C67.3315 80.9928 66.0367 79.6976 64.2863 79.6497C63.447 79.6257 62.6318 79.6257 61.7925 79.6497C61.4089 79.6497 61.217 79.5777 61.217 79.122C61.241 77.4432 61.241 75.7403 61.217 74.0615C61.217 73.6538 61.3369 73.5099 61.7685 73.5099C62.6078 73.5338 63.423 73.5338 64.2623 73.5099C66.0607 73.4619 67.3795 72.1188 67.3555 70.416C67.3315 68.7371 66.0367 67.442 64.2863 67.394C63.447 67.37 62.6318 67.37 61.7925 67.394C61.4089 67.394 61.217 67.3221 61.217 66.8664C61.241 65.1875 61.241 63.4847 61.217 61.8058C61.217 61.3981 61.3369 61.2542 61.7685 61.2542C62.5358 61.2782 63.3032 61.2782 64.0705 61.2542C66.0127 61.2302 67.3795 59.9351 67.3555 58.1603C67.3315 56.4335 65.9887 55.1624 64.0944 55.1384C62.2721 55.1144 60.4497 55.1384 58.6513 55.1384C56.3014 55.1384 55.1265 56.3376 55.1265 58.664C55.1265 62.5973 55.1265 66.5066 55.1265 70.44ZM73.494 70.392C73.494 74.4452 73.47 78.4985 73.494 82.5517C73.494 84.4704 74.7649 85.7415 76.6831 85.7415C78.6973 85.7655 80.7115 85.7655 82.7017 85.7415C84.4282 85.7175 85.747 84.3505 85.747 82.6956C85.747 81.0167 84.4522 79.6976 82.7017 79.6497C81.9104 79.6257 81.0952 79.6017 80.3039 79.6497C79.7764 79.6737 79.5845 79.5298 79.6085 78.9541C79.6565 77.3712 79.6565 75.7643 79.6085 74.1814C79.5845 73.6298 79.8003 73.4859 80.3279 73.5099C81.1192 73.5578 81.9104 73.5338 82.7257 73.5099C84.4522 73.4379 85.771 72.1188 85.747 70.44C85.747 68.7611 84.4522 67.442 82.7017 67.394C81.8625 67.37 81.0472 67.37 80.208 67.394C79.7524 67.418 79.5845 67.2741 79.6085 66.7944C79.6325 65.8351 79.6085 64.8757 79.6085 63.9164C79.6085 63.053 79.3208 61.9497 79.7524 61.4221C80.208 60.8705 81.3589 61.3022 82.2222 61.2542C82.3181 61.2542 82.414 61.2542 82.5099 61.2542C84.3802 61.2062 85.723 59.9351 85.723 58.1843C85.723 56.4335 84.3563 55.1624 82.4859 55.1384C80.6396 55.1144 78.7932 55.1384 76.9469 55.1384C74.6929 55.1384 73.494 56.3616 73.494 58.64C73.494 62.5493 73.494 66.4827 73.494 70.392ZM12.253 70.416C12.253 74.3973 12.253 78.3785 12.253 82.3838C12.253 83.3911 12.5168 84.2785 13.2841 84.9501C14.2192 85.7895 15.3222 86.0053 16.4972 85.5017C17.7201 84.974 18.3675 83.9907 18.3915 82.6476C18.4155 79.8415 18.4155 77.0355 18.3915 74.2294C18.3915 73.6538 18.5114 73.4379 19.1348 73.4859C19.9021 73.5338 20.6694 73.5099 21.4368 73.4859C23.2351 73.4379 24.554 72.1188 24.53 70.392C24.506 68.7131 23.2112 67.418 21.4607 67.37C20.6694 67.3461 19.8782 67.3461 19.0629 67.37C18.6073 67.394 18.3675 67.2981 18.3915 66.7465C18.4155 65.0916 18.4155 63.4367 18.3915 61.7819C18.3915 61.3741 18.5114 61.2063 18.919 61.2302C19.6863 61.2542 20.4536 61.2542 21.2209 61.2302C23.1632 61.2063 24.53 59.9111 24.506 58.1363C24.482 56.3855 23.1392 55.1384 21.2449 55.1144C19.4226 55.0904 17.6002 55.1144 15.8018 55.1144C13.4519 55.1144 12.277 56.2896 12.277 58.64C12.253 62.5733 12.253 66.5066 12.253 70.416Z" fill="#F02A64"/>
<path d="M13.9794 42.8588C18.6552 37.3905 23.3311 31.9222 28.0069 26.454C31.9393 21.8491 35.8958 17.2682 39.8282 12.6873C40.116 12.3516 40.3318 12.0638 40.1879 11.5841C38.7252 6.83534 41.7705 1.41503 47.0697 0.215853C47.2136 0.191869 47.3815 0.191869 47.4534 0C48.4125 0 49.3717 0 50.3308 0C52.0093 0.551624 53.7118 1.05528 55.0306 2.32641C57.6203 4.77274 58.6513 7.72273 57.86 11.2243C57.7162 11.8959 57.8121 12.3276 58.2677 12.8552C66.7081 22.6645 75.1245 32.4739 83.541 42.2832C83.7088 42.475 83.8527 42.6909 84.0206 42.8828C81.335 42.8828 78.6494 42.8828 75.9638 42.8828C75.9398 42.8348 75.9158 42.7628 75.8679 42.7149C68.6504 34.3206 61.4568 25.9263 54.2633 17.5081C53.8796 17.0524 53.6159 17.1243 53.1603 17.3642C50.4267 18.7552 47.6452 18.7552 44.9117 17.3642C44.3841 17.1003 44.1204 17.1243 43.7367 17.58C41.2669 20.506 38.7492 23.384 36.2794 26.3101C31.5557 31.8263 26.8319 37.3665 22.1081 42.8828C19.3506 42.8588 16.665 42.8588 13.9794 42.8588ZM52.0573 9.18573C52.0573 7.50688 50.6905 6.13981 49.036 6.11583C47.3815 6.09185 45.9667 7.45891 45.9427 9.11378C45.9188 10.8166 47.3095 12.2317 49.012 12.2317C50.6665 12.2317 52.0573 10.8646 52.0573 9.18573Z" fill="#017DA9"/>
<path d="M36.759 64.516C36.759 63.4607 36.783 62.6213 36.759 61.8058C36.735 61.3981 36.8789 61.2542 37.3105 61.2542C38.2457 61.2782 39.1568 61.2302 40.092 61.2782C41.6986 61.3981 42.9215 62.7652 42.8975 64.3481C42.8735 65.907 41.6746 67.2501 40.116 67.3461C39.0369 67.418 37.6942 67.8018 36.9748 67.2022C36.2794 66.6745 36.8549 65.2835 36.759 64.516Z" fill="#F02A64"/>
</svg>
