<svg width="19" height="13" viewBox="0 0 19 13" fill="none" xmlns="http://www.w3.org/2000/svg">
<path d="M6.06829 12.2956C4.24495 12.2956 2.4216 12.2911 0.598261 12.2956C0.404476 12.2956 0.232712 12.2777 0.100586 12.1211C0.100586 8.24188 0.100586 4.35821 0.100586 0.47902C0.237116 0.32242 0.413285 0.304523 0.602666 0.304523C2.42601 0.308997 4.24495 0.304523 6.06829 0.304523C6.07269 0.376111 6.08591 0.4477 6.08591 0.514814C6.08591 4.37164 6.08591 8.22846 6.08591 12.0853C6.08591 12.1569 6.07269 12.2285 6.06829 12.2956Z" fill="#41479A"/>
<path d="M12.1241 12.2956C12.08 12.1927 12.0932 12.0853 12.0932 11.9779C12.0932 8.19267 12.0932 4.40296 12.0932 0.617722C12.0932 0.51034 12.08 0.402957 12.1241 0.300049C13.9474 0.300049 15.7664 0.304523 17.5897 0.304523C17.9861 0.304523 18.0962 0.41638 18.0962 0.819064C18.0962 4.47902 18.0962 8.13897 18.1006 11.7989C18.1006 12.1121 17.9597 12.3 17.6073 12.3C15.7796 12.2866 13.9518 12.2956 12.1241 12.2956Z" fill="#FE4B55"/>
</svg>
