<svg width="15" height="18" viewBox="0 0 15 18" fill="none" xmlns="http://www.w3.org/2000/svg">
<path d="M13.1259 5.67658C13.1109 7.08483 12.6648 8.33772 11.7327 9.39515C10.3946 10.8986 9.11165 12.4422 7.97403 14.106C7.6984 14.512 7.2223 14.5019 6.93163 14.096C6.11474 12.9483 5.30287 11.7957 4.38074 10.7232C3.91968 10.182 3.38846 9.70086 2.95746 9.13455C0.431637 5.83194 2.18067 1.10103 6.18491 0.153842C9.37727 -0.602903 12.5095 1.51197 13.0507 4.74443C13.1009 5.05515 13.1259 5.36586 13.1259 5.67658ZM9.93856 5.79184C9.94357 4.41367 8.83602 3.30611 7.45784 3.3011C6.09971 3.29609 4.98213 4.40364 4.97712 5.75175C4.9671 7.14497 6.06463 8.26254 7.44782 8.27257C8.81597 8.28259 9.93355 7.17002 9.93856 5.79184Z" fill="white"/>
<path d="M7.3977 18C6.02454 17.985 4.62631 17.8146 3.28321 17.2934C2.69185 17.0628 2.14058 16.7621 1.66448 16.3362C0.576972 15.3589 0.576972 14.0258 1.6745 13.0536C2.27088 12.5274 2.9725 12.2016 3.71421 11.946C3.83448 11.9059 3.85954 11.9861 3.90465 12.0413C4.63132 12.9283 5.29786 13.8655 5.95938 14.8076C6.20495 15.1584 6.52569 15.399 6.93664 15.5243C7.67835 15.7448 8.45013 15.4842 8.91119 14.8477C9.46747 14.081 10.0087 13.2992 10.6051 12.5574C10.7504 12.377 10.8958 12.2016 11.0461 12.0212C11.0862 11.9761 11.1063 11.921 11.1965 11.951C12.0785 12.2517 12.9104 12.6376 13.5318 13.3693C14.2335 14.1962 14.2285 15.2186 13.5168 16.0405C12.9355 16.712 12.1687 17.1029 11.3518 17.3936C10.0889 17.8396 8.78089 17.99 7.3977 18Z" fill="white"/>
<path d="M6.17488 5.7718C6.17989 5.06517 6.76123 4.49385 7.47288 4.49886C8.18452 4.50387 8.75082 5.08522 8.7408 5.79686C8.73579 6.49847 8.16447 7.06979 7.46285 7.0748C6.7462 7.0748 6.16987 6.49346 6.17488 5.7718Z" fill="white"/>
</svg>
