<svg width="11" height="16" viewBox="0 0 11 16" fill="none" xmlns="http://www.w3.org/2000/svg">
<path d="M4.67223 16C4.48634 15.9183 4.28253 15.9237 4.08872 15.8787C2.8204 15.584 1.808 14.9042 1.02984 13.866C0.974827 13.7926 0.96024 13.753 1.05485 13.6943C4.12956 11.7816 7.20261 9.86558 10.2761 7.94998C10.2969 7.93706 10.3194 7.92664 10.3603 7.90414C10.3603 7.96916 10.3603 8.01834 10.3603 8.06752C10.3603 8.98406 10.3628 9.90018 10.3598 10.8167C10.3515 13.185 8.81394 15.1952 6.53031 15.8258C6.2744 15.8962 6.0139 15.9441 5.74924 15.9692C5.72131 15.9717 5.68463 15.9562 5.67213 15.9996C5.33869 16 5.00525 16 4.67223 16Z" fill="#9F9F9F"/>
<path d="M5.67213 0.000833594C5.88219 0.0412629 6.09351 0.0766906 6.30274 0.122538C8.49468 0.600604 10.1314 2.45077 10.334 4.68646C10.3953 5.36168 10.3473 6.03939 10.3603 6.71627C10.3611 6.76711 10.349 6.80129 10.3015 6.83047C9.68338 7.2135 9.06652 7.59862 8.43883 7.99C8.37672 7.81369 8.32212 7.64447 8.2571 7.47942C8.19042 7.3102 8.10706 7.14765 8.00494 6.99719C7.95826 6.92883 7.94951 6.87965 7.99702 6.80421C8.21501 6.45785 8.3613 6.0819 8.42716 5.67719C8.43883 5.60508 8.46217 5.56841 8.54678 5.54965C8.77977 5.49838 8.92064 5.31458 8.92106 5.09493C8.92148 4.87527 8.78018 4.69063 8.54803 4.63895C8.46509 4.62061 8.44216 4.5856 8.42716 4.51266C8.14332 3.10305 7.13175 2.10733 5.73006 1.85433C4.02453 1.54673 2.28941 2.75628 1.98431 4.46765C1.96639 4.56726 1.94305 4.62561 1.82634 4.65187C1.61378 4.6998 1.48249 4.89028 1.48499 5.09826C1.48707 5.30582 1.62211 5.48546 1.83468 5.54132C1.91804 5.56299 1.96555 5.59008 1.97973 5.68261C2.04224 6.08273 2.19229 6.4516 2.40027 6.79712C2.43195 6.84964 2.47071 6.89007 2.42111 6.96218C2.23731 7.22893 2.11143 7.52402 2.02307 7.84328C1.96222 7.8362 1.92888 7.79369 1.89053 7.76451C1.30952 7.31687 0.728917 6.86798 0.148736 6.41909C0.0970532 6.37908 0.0416194 6.34823 0.0437034 6.26196C0.0607921 5.62759 -0.00797949 4.98864 0.110391 4.36011C0.502597 2.27321 1.71964 0.898197 3.7261 0.218402C4.02703 0.116286 4.34046 0.0625195 4.65681 0.030843C4.67848 0.028759 4.69724 0.0254246 4.70266 0C5.02609 0.000833594 5.34911 0.000833594 5.67213 0.000833594Z" fill="#9F9F9F"/>
<path d="M5.66713 2.80546C5.96055 2.85089 6.21396 2.96301 6.44987 3.11306C7.27763 3.63989 7.70026 4.62311 7.50228 5.55048C7.28805 6.5533 6.52364 7.26769 5.50833 7.41482C4.2992 7.58987 3.15092 6.76336 2.90126 5.53881C2.66035 4.35594 3.42809 3.13181 4.59262 2.83297C4.69807 2.80588 4.71725 2.82505 4.73725 2.92841C4.88688 3.69907 5.34494 4.19673 6.09559 4.42096C6.35234 4.49766 6.59825 4.35761 6.67494 4.10795C6.7508 3.86037 6.62368 3.61071 6.36359 3.52944C6.03307 3.42607 5.80134 3.22559 5.68755 2.89549C5.6788 2.87215 5.6763 2.84714 5.66713 2.80546Z" fill="#9F9F9F"/>
<path d="M4.12581 10.6763C4.0337 10.735 3.95201 10.788 3.86907 10.8396C2.78456 11.5161 1.69964 12.1913 0.616799 12.8703C0.520936 12.9303 0.484674 12.9324 0.437576 12.8165C0.195834 12.2222 0.0553734 11.6065 0.0503718 10.9659C0.0416191 9.85183 0.0470376 8.73773 0.0466208 7.62363C0.0466208 7.59946 0.0491214 7.5757 0.0516222 7.5286C1.41705 8.58352 2.76497 9.62509 4.12581 10.6763Z" fill="#9F9F9F"/>
<path d="M3.11633 7.6278C4.34421 8.61603 6.04224 8.62936 7.28888 7.63113C7.43851 7.89288 7.52146 8.17339 7.56147 8.46931C7.56981 8.53058 7.53813 8.55309 7.49728 8.57851C6.68203 9.08617 5.86636 9.59341 5.05235 10.1032C4.994 10.1398 4.95607 10.1353 4.9023 10.0936C4.24585 9.58299 3.58689 9.07534 2.92877 8.56684C2.89626 8.54184 2.86 8.52183 2.86584 8.46931C2.8971 8.1738 2.95795 7.88788 3.11633 7.6278Z" fill="#9F9F9F"/>
</svg>
