<svg width="19" height="18" viewBox="0 0 19 18" fill="none" xmlns="http://www.w3.org/2000/svg">
<path d="M7.79883 0C8.05869 0.0440431 8.32295 0.0836819 8.5784 0.132129C9.86446 0.387579 10.9964 0.951331 11.9697 1.82339C13.1589 2.88923 13.9252 4.21052 14.2159 5.77846C14.5947 7.81765 14.1587 9.68948 12.9299 11.3719C12.9078 11.3984 12.8902 11.4336 12.8682 11.4556C12.7669 11.5525 12.7845 11.623 12.8858 11.7243C14.511 13.3451 16.1362 14.9703 17.757 16.591C17.823 16.6571 17.8891 16.7232 17.9464 16.798C18.1754 17.0931 18.1446 17.5115 17.8803 17.7758C17.616 18.0357 17.2153 18.0709 16.9158 17.8507C16.8409 17.7934 16.7748 17.7274 16.7088 17.6613C15.0836 16.0405 13.4584 14.4153 11.8376 12.7901C11.7319 12.68 11.6658 12.6712 11.5425 12.7681C10.6176 13.4904 9.56937 13.9573 8.41103 14.1378C6.16483 14.4902 4.17849 13.9176 2.47402 12.4113C1.20558 11.2882 0.461251 9.86566 0.179375 8.20083C0.152949 8.05549 0.170567 7.90133 0.100098 7.7648C0.100098 7.33318 0.100098 6.89715 0.100098 6.46553C0.174971 6.329 0.157354 6.17484 0.18378 6.0295C0.386378 4.81832 0.848831 3.72164 1.61078 2.7571C2.70745 1.36534 4.12564 0.493283 5.86094 0.132129C6.09877 0.0836819 6.34541 0.0880862 6.57003 0C6.97523 0 7.38923 0 7.79883 0ZM7.22187 12.7505C10.371 12.7197 12.8462 10.218 12.8418 7.11737C12.8418 4.00352 10.3181 1.50187 7.22187 1.50187C4.12564 1.50187 1.58435 4.04756 1.60197 7.13058C1.61959 10.2224 4.09481 12.7241 7.22187 12.7505Z" fill="#D9D9D9"/>
</svg>
