<svg width="17" height="12" viewBox="0 0 17 12" fill="none" xmlns="http://www.w3.org/2000/svg">
<path d="M0.0605469 3.36437C0.125715 3.3311 0.160841 3.39025 0.202437 3.41568C2.62474 4.89235 5.04797 6.36764 7.46565 7.85171C7.86451 8.09667 8.23148 8.09944 8.63081 7.85494C11.055 6.37134 13.4842 4.89605 15.9116 3.41752C15.9546 3.39164 15.9971 3.3653 16.0599 3.32694C16.0599 3.38748 16.0599 3.42677 16.0599 3.46605C16.0599 5.43958 16.0618 7.41264 16.059 9.38616C16.0572 10.5901 15.259 11.5427 14.0767 11.753C13.9186 11.7812 13.7555 11.7881 13.5947 11.7881C9.90274 11.79 6.21082 11.7904 2.5189 11.789C1.39903 11.7886 0.513024 11.1642 0.173782 10.1469C0.132185 10.0217 0.134496 9.88393 0.0610091 9.76885C0.0605469 7.63495 0.0605469 5.49966 0.0605469 3.36437Z" fill="#9F9F9F"/>
<path d="M8.06371 0.000603655C9.91244 0.000603655 11.7612 0.000141472 13.6104 0.000603655C14.4807 0.000603655 15.1684 0.351863 15.6588 1.0761C15.7905 1.27068 15.8774 1.48698 15.9499 1.71068C15.9865 1.82299 15.956 1.87383 15.8603 1.93207C13.4065 3.42769 10.9547 4.92655 8.50232 6.42449C8.36043 6.51092 8.21716 6.65974 8.07388 6.6602C7.93106 6.66113 7.78594 6.51415 7.64451 6.42818C5.20372 4.94134 2.76339 3.45357 0.322605 1.96627C0.12479 1.84564 0.12479 1.84564 0.195967 1.6298C0.525965 0.631946 1.41197 0.00291459 2.50134 0.00152804C4.35562 -0.00124506 6.20989 0.000603655 8.06371 0.000603655Z" fill="#9F9F9F"/>
</svg>
