<svg width="19" height="18" viewBox="0 0 19 18" fill="none" xmlns="http://www.w3.org/2000/svg">
<path d="M0.899902 3.95155C0.899902 3.13357 0.899902 2.3156 0.899902 1.49762C0.899902 0.613482 1.5194 0 2.39752 0C4.03949 0 5.68146 0 7.32342 0C8.19553 0 8.81503 0.613483 8.81503 1.48559C8.82104 3.13357 8.82104 4.78757 8.81503 6.43555C8.81503 7.30165 8.19553 7.92114 7.32944 7.92114C5.68146 7.92114 4.02746 7.92716 2.37948 7.92114C1.51338 7.92114 0.899902 7.29563 0.899902 6.42954C0.899902 5.59953 0.899902 4.77554 0.899902 3.95155Z" fill="#D9D9D9"/>
<path d="M10.9803 3.95155C10.9803 3.13357 10.9803 2.3156 10.9803 1.49762C10.9803 0.613482 11.5998 0 12.4779 0C14.1198 0 15.7618 0 17.4038 0C18.2759 0 18.8954 0.613483 18.8954 1.48559C18.9014 3.13357 18.9014 4.78757 18.8954 6.43555C18.8954 7.30165 18.2759 7.92114 17.4098 7.92114C15.7618 7.92114 14.1078 7.92716 12.4598 7.92114C11.5937 7.92114 10.9803 7.29563 10.9803 6.42954C10.9803 5.59953 10.9803 4.77554 10.9803 3.95155Z" fill="#D9D9D9"/>
<path d="M0.899902 14.0259C0.899902 13.2079 0.899902 12.3899 0.899902 11.572C0.899902 10.6878 1.5194 10.0743 2.40354 10.0743C4.0455 10.0743 5.68747 10.0743 7.32944 10.0743C8.20155 10.0743 8.81503 10.6938 8.82104 11.5599C8.82706 13.2079 8.82706 14.8619 8.82104 16.5099C8.82104 17.376 8.20155 17.9955 7.32944 17.9955C5.68146 17.9955 4.02746 18.0015 2.37948 17.9955C1.52541 17.9955 0.905917 17.376 0.899902 16.5219C0.899902 15.6919 0.899902 14.8619 0.899902 14.0259Z" fill="#D9D9D9"/>
<path d="M14.9378 10.0804C17.1031 10.0743 18.8954 11.8486 18.8954 14.0139C18.9014 16.1971 17.1391 17.9895 14.9799 17.9955C12.7606 18.0075 10.9803 16.2453 10.9742 14.0379C10.9742 11.8607 12.7485 10.0864 14.9378 10.0804Z" fill="#D9D9D9"/>
</svg>
