<svg width="17" height="16" viewBox="0 0 17 16" fill="none" xmlns="http://www.w3.org/2000/svg">
<path d="M16.078 5.28265C15.9571 5.56397 15.9192 5.86822 15.835 6.15996C15.7729 6.37418 15.7187 6.59132 15.6729 6.80971C15.587 7.22023 15.144 7.6045 14.6218 7.2715C14.4246 7.14605 14.2217 7.02977 14.0253 6.9039C13.9499 6.85556 13.9295 6.87014 13.9262 6.95475C13.9157 7.21982 13.8995 7.48488 13.8895 7.74995C13.8682 8.31093 13.4073 8.5885 12.8967 8.34886C12.5204 8.17256 12.1586 7.96918 11.7923 7.77454C11.7573 7.75579 11.7273 7.72245 11.6685 7.7287C11.6685 7.96084 11.6693 8.19298 11.6681 8.42513C11.6664 8.73854 11.4734 8.9486 11.1917 8.94568C10.917 8.94276 10.7324 8.73729 10.7316 8.42888C10.7303 8.03336 10.7291 7.63784 10.7328 7.24232C10.7378 6.7101 11.2346 6.41252 11.7064 6.66092C12.0828 6.85931 12.4562 7.06394 12.828 7.27025C12.9301 7.32693 12.9759 7.3361 12.9817 7.19189C12.9943 6.88556 13.023 6.57965 13.0447 6.27332C13.0626 6.01867 13.1814 5.82862 13.4127 5.71818C13.6503 5.60482 13.8799 5.63524 14.0883 5.79153C14.3246 5.96866 14.5584 6.14912 14.8314 6.30458C14.9256 5.9324 15.0173 5.57147 15.109 5.21055C15.1244 5.15011 15.1365 5.08885 15.1544 5.02925C15.2194 4.81003 15.3949 4.67332 15.6108 4.67082C15.8104 4.66832 15.9725 4.79085 16.0509 5.00216C16.0555 5.01425 16.0688 5.023 16.0784 5.03342C16.078 5.11594 16.078 5.19929 16.078 5.28265Z" fill="#9F9F9F"/>
<path d="M16.078 1.59586C16.0213 1.67338 16.0288 1.77049 16 1.85676C15.7775 2.52277 15.1244 2.91912 14.4184 2.81159C13.7694 2.71282 13.2672 2.13017 13.2435 1.44874C13.2206 0.781902 13.7036 0.178412 14.3754 0.0346253C14.4029 0.0287904 14.4405 0.0446278 14.453 0.00211685C14.4946 0.00211685 14.5363 0.00211685 14.578 0.00211685C14.6301 0.047962 14.6822 0.047962 14.7343 0.00211685C14.7655 0.00211685 14.7968 0.00211685 14.8281 0.00211685C14.8381 0.0117027 14.8472 0.0279569 14.8589 0.029624C15.4774 0.128816 15.8537 0.493494 16.0288 1.08531C16.0421 1.12991 16.0175 1.19242 16.0784 1.22077C16.078 1.3458 16.078 1.47083 16.078 1.59586Z" fill="#9F9F9F"/>
<path d="M0.0800781 15.5624C0.129258 15.5328 0.133842 15.477 0.153847 15.4315C0.472263 14.7109 0.792346 13.9911 1.10326 13.2672C1.15161 13.1547 1.19287 13.148 1.29373 13.1947C2.1627 13.5994 3.03376 14.0003 3.9044 14.4013C3.93316 14.4146 3.96233 14.4238 3.98275 14.4592C2.80662 14.9727 1.6309 15.4861 0.455175 15.9996C0.403078 15.9996 0.350981 15.9996 0.298885 15.9996C0.225949 15.9267 0.153014 15.8537 0.0800781 15.7808C0.0800781 15.7083 0.0800781 15.6353 0.0800781 15.5624Z" fill="#9F9F9F"/>
<path d="M16.078 1.22077C16.0171 1.19284 16.0417 1.12991 16.0284 1.08531C15.8533 0.493494 15.477 0.128816 14.8585 0.029624C14.8472 0.0279569 14.8381 0.0117027 14.8276 0.00211685C15.2157 0.00211685 15.6041 0.00461749 15.9921 3.29748e-05C16.065 -0.000800574 16.0809 0.0137865 16.08 0.0875556C16.0755 0.465153 16.078 0.843168 16.078 1.22077Z" fill="#9F9F9F"/>
<path d="M0.0800781 15.7812C0.153014 15.8541 0.225949 15.9271 0.298885 16C0.0800781 16 0.0800781 16 0.0800781 15.7812Z" fill="#9F9F9F"/>
<path d="M14.578 0.00211685C14.6301 0.047962 14.6822 0.047962 14.7343 0.00211685C14.6822 0.00211685 14.6301 0.00211685 14.578 0.00211685Z" fill="#9F9F9F"/>
<path d="M10.5695 12.7829C10.3815 12.7817 10.1285 12.6587 9.91304 12.4424C9.21161 11.7381 8.50767 11.0358 7.80457 10.3331C6.45006 8.9786 5.09637 7.62367 3.74061 6.2704C3.41094 5.94157 3.29633 5.55897 3.45678 5.11761C3.70476 4.43535 4.57291 4.22404 5.11513 4.70625C5.15014 4.73751 5.1839 4.77002 5.21682 4.80336C7.26694 6.85347 9.31622 8.904 11.368 10.9524C11.6872 11.2713 11.8098 11.6385 11.6714 12.0744C11.5355 12.4987 11.1359 12.7817 10.5695 12.7829Z" fill="#9F9F9F"/>
<path d="M7.50075 12.9188C6.74764 13.248 6.01495 13.5673 5.28392 13.8903C5.21099 13.9224 5.15306 13.919 5.08137 13.8857C3.94649 13.3606 2.81037 12.8371 1.67341 12.3166C1.58505 12.2761 1.54921 12.2494 1.59839 12.1407C1.84929 11.588 2.09018 11.0304 2.33191 10.4736C2.36525 10.3973 2.38651 10.3556 2.4857 10.4052C4.13363 11.2304 5.78364 12.0515 7.43323 12.8734C7.45032 12.8825 7.46574 12.8955 7.50075 12.9188Z" fill="#9F9F9F"/>
<path d="M3.61641 7.55199C5.17098 9.10655 6.72555 10.6611 8.27928 12.2149C8.25427 12.234 8.22718 12.1936 8.20051 12.1803C6.43089 11.3 4.6621 10.4177 2.89164 9.53875C2.79995 9.49332 2.77369 9.46206 2.82079 9.35745C3.09377 8.75313 3.35676 8.14464 3.61641 7.55199Z" fill="#9F9F9F"/>
<path d="M8.48017 2.05306C8.47766 1.96012 8.53893 1.91553 8.61062 1.87677C8.8886 1.72548 9.16451 1.57086 9.44416 1.4229C9.51668 1.38456 9.56711 1.33496 9.60546 1.26328C9.74758 0.998208 9.89386 0.735223 10.0372 0.470988C10.0822 0.38805 10.121 0.295109 10.2327 0.292609C10.3536 0.289691 10.3936 0.390134 10.4407 0.476823C10.5803 0.731472 10.7232 0.984454 10.8566 1.24244C10.902 1.33038 10.9637 1.38789 11.0492 1.43332C11.3192 1.57711 11.5876 1.72381 11.8548 1.87343C12.0469 1.98138 12.0469 2.12392 11.8552 2.23144C11.5835 2.38315 11.3113 2.5336 11.0362 2.67948C10.9596 2.72032 10.9045 2.77158 10.8637 2.84869C10.7253 3.11 10.5824 3.36882 10.4403 3.62805C10.3932 3.71349 10.3561 3.81435 10.2327 3.81185C10.1185 3.80977 10.0822 3.71683 10.0372 3.63472C9.89345 3.37049 9.74758 3.1075 9.60504 2.84243C9.5667 2.77117 9.51627 2.72157 9.44375 2.68281C9.16451 2.53444 8.88902 2.37815 8.61062 2.22769C8.53851 2.18852 8.47933 2.14517 8.48017 2.05306Z" fill="#9F9F9F"/>
<path d="M8.3568 5.81737C8.36097 5.66233 8.45474 5.50854 8.64729 5.43144C9.10449 5.24806 9.56378 5.06843 10.0247 4.89505C10.274 4.80127 10.5394 4.92464 10.6295 5.16137C10.7182 5.39476 10.6149 5.65775 10.3732 5.75694C9.91262 5.94574 9.44958 6.12953 8.98155 6.29958C8.6698 6.41294 8.36138 6.18997 8.3568 5.81737Z" fill="#9F9F9F"/>
<path d="M6.17665 1.06656C6.18291 1.12616 6.16123 1.19076 6.13873 1.25452C5.98577 1.68464 5.83282 2.11475 5.67736 2.54402C5.56983 2.8416 5.32102 2.97372 5.05678 2.87703C4.80213 2.78367 4.69544 2.52319 4.79713 2.23269C4.953 1.78716 5.10888 1.34121 5.271 0.898182C5.35477 0.669373 5.57191 0.553926 5.80781 0.596854C6.01661 0.634364 6.17624 0.833582 6.17665 1.06656Z" fill="#9F9F9F"/>
<path d="M12.983 4.27406C12.9872 4.52537 12.7779 4.74376 12.5254 4.75043C12.2736 4.7571 12.0544 4.54913 12.0469 4.29656C12.039 4.03483 12.2499 3.8156 12.5108 3.81394C12.765 3.81227 12.9788 4.02066 12.983 4.27406Z" fill="#9F9F9F"/>
<path d="M8.30637 4.06942C8.3097 4.32949 8.10674 4.53912 7.84792 4.54246C7.5916 4.54579 7.37655 4.33824 7.37155 4.08317C7.36696 3.83227 7.58077 3.61222 7.83417 3.60722C8.0884 3.6018 8.30304 3.81185 8.30637 4.06942Z" fill="#9F9F9F"/>
<path d="M13.1435 9.89259C13.1418 10.1518 12.938 10.3535 12.6779 10.354C12.4195 10.354 12.2111 10.1502 12.2078 9.89342C12.2045 9.63544 12.4254 9.41705 12.6846 9.42205C12.9426 9.42705 13.1451 9.63461 13.1435 9.89259Z" fill="#9F9F9F"/>
</svg>
