<svg width="18" height="17" viewBox="0 0 18 17" fill="none" xmlns="http://www.w3.org/2000/svg">
<path d="M0 4.84992C0.0616733 4.75075 0.0528628 4.63434 0.0792942 4.52655C0.290745 3.70735 0.775321 3.06061 1.40527 2.50441C2.45812 1.57311 3.70921 0.991042 5.0528 0.585752C6.77965 0.0683603 8.54615 -0.117038 10.3435 0.0726719C12.132 0.262382 13.828 0.732346 15.3831 1.64209C16.2201 2.13362 16.969 2.7243 17.4888 3.55213C17.9425 4.27217 18.1275 5.04394 17.9073 5.8847C17.7046 6.64786 17.1848 7.06177 16.3787 7.07039C15.6562 7.07902 14.9381 7.07902 14.2157 7.06608C13.1408 7.04884 12.48 6.1822 12.7531 5.16467C12.8324 4.86286 12.8324 4.86286 12.5373 4.73782C11.2289 4.18162 9.87213 3.88412 8.44043 3.97898C7.3259 4.05659 6.26865 4.34978 5.25544 4.80249C5.15853 4.84561 5.18055 4.89304 5.19817 4.96202C5.2995 5.30264 5.36998 5.64325 5.25544 5.99249C5.0484 6.60905 4.61228 6.99278 3.9559 7.03159C3.09688 7.07902 2.23345 7.08764 1.37443 7.02297C0.7577 6.97554 0.268719 6.53144 0.110131 5.94075C0.074889 5.8071 0.0616733 5.66481 0 5.53978C0 5.31126 0 5.07844 0 4.84992Z" fill="#D9D9D9"/>
<path d="M8.99989 16.9957C6.85014 16.9957 4.70038 16.9957 2.55063 16.9957C2.07486 16.9957 1.87663 16.806 1.88103 16.336C1.88544 15.5125 1.85901 14.6847 1.90306 13.8612C1.96033 12.8221 2.24667 11.8476 2.74005 10.925C3.09247 10.2696 3.55062 9.69184 4.07044 9.16152C4.55942 8.66137 5.0484 8.15691 5.53738 7.65246C5.68716 7.49724 5.85896 7.41963 6.08363 7.42826C6.36997 7.43688 6.65631 7.42394 6.94265 7.43257C7.05718 7.43688 7.07921 7.39807 7.0748 7.29891C7.06599 7.1092 7.0704 6.91949 7.0748 6.72978C7.07921 6.42365 7.29947 6.19514 7.59462 6.19083C7.89418 6.1822 8.12325 6.38916 8.14528 6.6996C8.15849 6.90655 8.15409 7.11351 8.14968 7.32047C8.14528 7.41101 8.17611 7.43688 8.26862 7.43688C8.76641 7.43257 9.2642 7.43257 9.762 7.43688C9.86332 7.43688 9.87653 7.39807 9.87213 7.31615C9.86772 7.13075 9.86772 6.94967 9.87213 6.76427C9.88094 6.41503 10.0968 6.19083 10.414 6.19083C10.7311 6.19083 10.9426 6.42797 10.947 6.77289C10.947 6.94967 10.9558 7.13075 10.9426 7.30753C10.9338 7.41963 10.9778 7.44119 11.0792 7.43688C11.3787 7.42826 11.6783 7.43688 11.9734 7.43257C12.1628 7.42826 12.317 7.49293 12.4448 7.62659C13.1012 8.31644 13.7928 8.96749 14.4139 9.68753C15.3038 10.7223 15.85 11.9166 16.0439 13.2575C16.198 14.3225 16.1187 15.4004 16.1276 16.4697C16.132 16.8146 15.8897 17 15.5108 17C13.3346 16.9957 11.1673 16.9957 8.99989 16.9957ZM9.0043 15.0727C10.5461 15.0727 11.8104 13.8396 11.8148 12.3305C11.8192 10.8172 10.5461 9.56681 8.99989 9.57112C7.46246 9.57112 6.19376 10.8085 6.18935 12.3176C6.18495 13.831 7.45365 15.0727 9.0043 15.0727Z" fill="#D9D9D9"/>
<path d="M8.99989 14.0207C8.05277 14.0164 7.26863 13.2532 7.26863 12.3262C7.26863 11.3906 8.05717 10.6231 9.01311 10.6275C9.96023 10.6318 10.74 11.4035 10.7356 12.3305C10.7311 13.2575 9.94702 14.0207 8.99989 14.0207Z" fill="#D9D9D9"/>
</svg>
