<svg width="19" height="15" viewBox="0 0 19 15" fill="none" xmlns="http://www.w3.org/2000/svg">
<path d="M0.90411 6.54227C1.24219 5.96471 1.62723 5.41533 2.05452 4.89882C3.22841 3.48546 4.59013 2.30218 6.28053 1.55089C8.94291 0.372299 11.563 0.499079 14.1221 1.86549C14.3052 1.96409 14.3992 1.94531 14.54 1.79975C15.0518 1.26915 15.573 0.747944 16.1036 0.231433C16.5262 -0.181777 17.193 -0.0174323 17.3574 0.531948C17.4419 0.818378 17.3761 1.07663 17.1648 1.29263C16.916 1.54619 16.6624 1.79975 16.4089 2.05331C12.4411 6.02106 8.47335 9.98411 4.5103 13.9566C4.27552 14.1913 4.01257 14.3134 3.68858 14.2195C3.12981 14.0646 2.96546 13.379 3.38337 12.9564C3.89049 12.4399 4.407 11.9234 4.92351 11.4163C5.0409 11.3036 5.01273 11.266 4.89534 11.1862C3.31293 10.1344 2.03104 8.78675 1.03089 7.17147C0.983934 7.09634 0.941674 7.01182 0.899414 6.932C0.90411 6.80052 0.90411 6.67374 0.90411 6.54227ZM6.90973 6.51879C6.90504 7.42973 7.13982 8.10119 7.53894 8.60362C7.60468 8.68344 7.63755 8.70692 7.72206 8.61771C8.00849 8.31719 8.30431 8.02606 8.60013 7.73494C8.66118 7.6739 8.67996 7.63164 8.62831 7.54712C8.25736 6.91791 8.34188 6.1901 8.83491 5.69237C9.32795 5.19934 10.0605 5.11012 10.685 5.47638C10.7648 5.52333 10.8117 5.51863 10.8775 5.4529C11.1545 5.16647 11.4316 4.88473 11.7227 4.61239C11.8354 4.50909 11.8495 4.45274 11.7133 4.35883C10.7225 3.66389 9.67072 3.5418 8.58605 4.0724C7.49198 4.61239 6.96138 5.54211 6.90973 6.51879Z" fill="#D9D9D9"/>
<path d="M10.0792 12.731C9.91959 12.731 9.76464 12.7404 9.60499 12.731C9.29508 12.7122 9.07439 12.5479 8.96169 12.2662C8.849 11.9844 8.89126 11.7074 9.10726 11.482C9.50168 11.0735 9.9055 10.6744 10.3093 10.2752C12.2486 8.33597 14.1925 6.39201 16.1318 4.45274C16.5403 4.04423 16.9817 4.05362 17.3761 4.48092C17.8973 5.05377 18.3575 5.66889 18.766 6.33097C18.9351 6.60801 18.9492 6.88504 18.7754 7.15739C17.3949 9.32204 15.6247 11.05 13.2347 12.0736C12.2251 12.5009 11.1733 12.7216 10.0792 12.731Z" fill="#D9D9D9"/>
</svg>
