<svg width="102" height="98" viewBox="0 0 102 98" fill="none" xmlns="http://www.w3.org/2000/svg">
<path d="M45.9889 89.546C45.6428 91.5383 45.3498 93.5576 44.9238 95.5499C44.551 97.2461 43.4858 98 41.7549 98C38.9588 98 36.1893 98 33.3932 98C31.4759 98 30.4374 97.0846 30.0912 95.0922C29.6385 92.6691 29.1325 90.246 28.7597 87.7959C28.6532 87.069 28.307 86.8536 27.7212 86.719C23.1143 85.6689 19.2264 83.3535 16.0043 79.9342C14.2201 78.0495 12.7555 75.8956 11.6903 73.4725C10.918 71.6955 10.5719 70.6455 7.64263 70.7532C3.808 70.8878 1.01192 68.5724 0.159776 64.7761C0.133147 64.6954 0.0532588 64.6146 0 64.5338C0 62.1107 0 59.6876 0 57.2914C0.532588 55.2182 1.43799 53.4144 3.30204 52.2297C4.42048 51.5297 5.6188 51.072 6.95027 51.0451C8.7877 50.9912 9.6931 50.3451 10.1724 48.5412C11.1045 44.9872 12.6223 41.7564 14.9923 38.9563C15.6048 38.2294 16.2173 37.5294 16.9097 36.937C17.5754 36.3447 17.7618 35.6986 17.7618 34.837C17.7085 31.9292 17.8417 28.9946 17.7085 26.0868C17.5754 22.9906 20.1318 20.1097 24.1528 20.729C25.7772 20.9713 27.2951 21.4828 28.8396 21.9136C28.8929 23.2867 28.9461 24.6329 29.1858 26.006C29.7983 29.533 31.2895 32.6562 33.3134 35.537C33.2601 35.7255 33.2068 35.9139 33.1536 36.1024C32.5944 38.2294 31.8221 40.3294 31.7156 42.5641C31.1564 42.591 30.5972 42.5641 30.0379 42.6179C29.2124 42.6987 28.6798 43.3718 28.7065 44.2064C28.7597 45.068 29.2124 45.5526 30.0379 45.6603C30.3841 45.7142 30.7569 45.7142 31.1297 45.7411C30.7303 49.2412 30.5972 52.7143 30.8901 56.2413C31.1297 59.0145 31.5026 61.7338 32.115 64.4261C33.0471 68.5724 34.4851 72.584 36.3757 76.3803C38.1333 79.9342 40.3169 83.2727 42.82 86.342C43.7787 87.4728 44.6308 88.7652 45.9889 89.546ZM16.8031 55.999C16.6966 56.1336 16.6167 56.2683 16.5102 56.4029C14.5663 58.5568 14.7527 61.1414 17.0428 62.9184C19.1998 64.5877 22.4752 64.83 24.8186 63.4569C26.3897 62.5146 27.4283 61.2222 27.3484 59.2299C27.2685 57.3452 26.2033 56.1606 24.6588 55.3259C22.9812 54.4105 21.197 54.3298 19.3596 54.7067C19.3329 53.8451 19.3596 52.9566 19.2797 52.0951C19.1998 51.3143 18.7737 50.7758 18.0015 50.6412C17.2825 50.5335 16.5368 50.7758 16.4037 51.5028C16.1108 53.0105 15.7113 54.599 16.8031 55.999Z" fill="#F02A64"/>
<path d="M45.9889 89.546C44.6308 88.7652 43.7521 87.4728 42.7934 86.2882C40.2636 83.2189 38.1066 79.9073 36.3491 76.3264C34.4584 72.5302 33.0204 68.5455 32.0884 64.3723C31.4759 61.6799 31.1031 58.9337 30.8635 56.1875C30.5705 52.6605 30.7037 49.1873 31.1031 45.6872C31.5026 45.6603 31.902 45.6334 32.3014 45.6334C44.977 45.6334 57.6526 45.6334 70.3282 45.6334C70.6478 45.6334 70.9939 45.6603 71.3135 45.6065C72.1656 45.5257 72.6183 44.9872 72.6982 44.1526C72.7781 43.3718 72.1656 42.6718 71.3401 42.5641C71.0738 42.5372 70.8075 42.5372 70.5412 42.5372C66.68 42.5372 62.8453 42.5372 58.9841 42.5372C60.8748 41.5141 62.7654 40.5179 64.4431 39.1448C67.2924 36.7755 69.3429 33.8139 70.8874 30.4754C76.3997 31.2023 81.1131 33.5985 85.001 37.6101C87.4775 40.1679 89.2617 43.1564 90.3535 46.5488C90.673 47.545 91.1524 47.8142 92.0311 47.8142C94.3213 47.8142 96.6114 47.895 98.8749 47.5988C100.18 47.4373 101.032 48.0565 101.644 49.1335C102.283 50.2374 101.991 51.2605 101.325 52.2297C98.9015 55.5952 96.0256 58.476 92.6969 60.8991C91.9513 61.4376 91.6051 61.9761 91.6051 62.9453C91.6317 70.484 88.8356 76.7572 83.2434 81.7381C80.5805 84.1074 77.4649 85.642 74.0563 86.5574C73.2574 86.7728 72.9911 87.1767 72.8846 87.9036C72.4319 90.4344 72.0058 92.9653 71.4999 95.4692C71.1537 97.1384 70.0619 97.9731 68.3842 97.9731C65.5615 97.9731 62.7388 97.9731 59.9161 97.9731C58.1319 97.9731 57.0668 97.0846 56.7472 95.3076C56.2945 92.9114 55.8152 90.5421 55.3891 88.119C55.2826 87.4728 55.0696 87.2574 54.4571 87.2574C52.0338 87.2844 49.6105 87.2844 47.1873 87.2574C46.5748 87.2574 46.3618 87.5267 46.2552 88.0382C46.202 88.5498 46.0955 89.0613 45.9889 89.546Z" fill="#FF78A5"/>
<path d="M70.914 30.4754C69.3695 33.8408 67.3191 36.8024 64.4697 39.1448C62.7921 40.5179 60.8748 41.5141 59.0107 42.5372C56.2146 42.5372 53.4185 42.5372 50.6225 42.5372C49.1312 41.2987 47.6932 40.0063 46.5215 38.4448C46.202 38.0409 45.6428 37.6909 45.7493 37.0447C46.0688 37.1255 46.3884 37.1794 46.7079 37.2601C49.1578 37.8794 51.6077 37.9332 54.0843 37.3947C61.1943 35.8062 66.5202 29.1022 66.2539 21.3751C65.961 13.2711 59.1705 6.40557 51.155 6.27095C49.2111 6.24402 47.347 6.62096 45.483 7.10558C46.2286 5.70555 47.4536 4.68245 48.4921 3.52473C49.6638 2.17855 51.2083 1.31699 52.4599 0.0784978C58.0787 0.482353 62.8453 2.77087 66.6001 6.94404C72.5118 13.5403 74.0031 21.1598 71.207 29.6138C71.1004 29.91 71.0206 30.1792 70.914 30.4754Z" fill="#017DA9"/>
<path d="M52.4066 0.0784979C51.1817 1.31699 49.6105 2.20547 48.4388 3.52473C47.4003 4.68245 46.202 5.70555 45.4297 7.10558C45.2433 7.2402 45.0303 7.37482 44.8439 7.50944C44.6042 7.59021 44.3379 7.64406 44.0983 7.75175C35.7366 11.6557 32.5411 22.129 37.3078 30.1253C39.0919 33.087 41.5152 35.3485 44.8172 36.5332C45.0303 36.6678 45.2167 36.8024 45.4297 36.937C45.5096 36.9909 45.5895 37.0178 45.6694 37.0717L45.696 37.0447C45.6161 37.7178 46.1753 38.0409 46.4683 38.4448C47.64 40.0063 49.0779 41.2987 50.5692 42.5372C47.8264 42.5372 45.1102 42.5372 42.3673 42.5372C38.799 40.8948 35.7366 38.5794 33.2601 35.4832C31.2363 32.6023 29.745 29.4523 29.1325 25.9522C28.8929 24.606 28.8396 23.2329 28.7864 21.8598C28.9461 15.5865 31.1564 10.2287 35.71 5.94787C40.45 1.5593 46.0156 -0.433052 52.4066 0.0784979Z" fill="#017DA9"/>
<path d="M42.4206 42.5372C45.1634 42.5372 47.8796 42.5372 50.6225 42.5372C53.4185 42.5372 56.2146 42.5372 59.0107 42.5372C62.872 42.5372 66.7066 42.5372 70.5679 42.5372C70.8342 42.5372 71.1004 42.5102 71.3667 42.5641C72.1656 42.6718 72.8047 43.3718 72.7248 44.1526C72.645 44.9872 72.1922 45.5257 71.3401 45.6065C71.0206 45.6334 70.6744 45.6334 70.3548 45.6334C57.6792 45.6334 45.0037 45.6334 32.3281 45.6334C31.9286 45.6334 31.5292 45.6603 31.1297 45.6872C30.7569 45.6603 30.4108 45.6603 30.0379 45.6065C29.1858 45.4988 28.7331 45.0142 28.7065 44.1526C28.6798 43.318 29.2124 42.6449 30.0379 42.5641C30.5972 42.5102 31.1564 42.5372 31.7156 42.5103C35.2573 42.5372 38.8523 42.5372 42.4206 42.5372Z" fill="white"/>
<path d="M19.3329 54.6798C21.1704 54.3298 22.9545 54.3836 24.6322 55.299C26.1767 56.1336 27.2419 57.3183 27.3217 59.2029C27.4016 61.1953 26.3631 62.4876 24.792 63.43C22.4486 64.83 19.1732 64.5877 17.0162 62.8915C14.7527 61.1145 14.5396 58.5299 16.4836 56.376C16.5901 56.2413 16.6966 56.1067 16.7765 55.9721C18.2678 56.4567 18.8003 56.1875 19.3329 54.6798Z" fill="#FEFDFD"/>
<path d="M42.4206 42.5372C38.8523 42.5372 35.2839 42.5372 31.7156 42.5103C31.8221 40.2756 32.5944 38.1755 33.1536 36.0486C33.2068 35.8601 33.2601 35.6716 33.3134 35.4832C35.7899 38.5794 38.8523 40.8948 42.4206 42.5372Z" fill="#FF78A5"/>
<path d="M19.3329 54.6798C18.7737 56.1875 18.2678 56.4567 16.8031 55.999C15.7113 54.599 16.1108 53.0105 16.3771 51.5028C16.5102 50.7758 17.2292 50.5335 17.9748 50.6412C18.7737 50.7758 19.1998 51.3143 19.253 52.0951C19.3329 52.9566 19.3063 53.8182 19.3329 54.6798Z" fill="white"/>
<path d="M45.4563 36.937C45.5362 36.9909 45.6161 37.0178 45.696 37.0717C45.6161 37.0447 45.5362 36.9909 45.4563 36.937Z" fill="#2B5095"/>
<path d="M49.1046 17.4981C49.1046 16.0981 49.0779 14.6711 49.1046 13.2711C49.1312 12.4096 49.291 11.5749 50.3029 11.3057C51.3414 11.0095 52.2202 11.7634 52.2202 12.9749C52.2468 15.1558 52.2468 17.3366 52.2202 19.5174C52.1936 20.2713 52.4332 20.5405 53.1789 20.4597C53.9245 20.4059 54.6968 20.4328 55.469 20.4597C56.6141 20.5136 57.2532 21.1059 57.2532 22.0752C57.2532 23.0444 56.5874 23.6367 55.4424 23.6367C53.9778 23.6637 52.5131 23.6637 51.0751 23.6367C49.7969 23.6367 49.1845 23.0444 49.1312 21.7252C49.0779 20.2982 49.1046 18.8982 49.1046 17.4981Z" fill="#2B5096"/>
</svg>
