<svg width="18" height="14" viewBox="0 0 18 14" fill="none" xmlns="http://www.w3.org/2000/svg">
<path d="M0 12.1549C0 9.36451 0 6.5788 0 3.7884C0.0187906 3.79779 0.0422789 3.79779 0.0610695 3.81188C2.50385 5.44197 4.94663 7.07205 7.38941 8.69744C8.43698 9.39739 9.54563 9.40679 10.5885 8.71154C12.9984 7.10964 15.4036 5.50304 17.8135 3.89644C17.8699 3.85886 17.9168 3.80249 17.992 3.79309C17.992 3.82128 17.9967 3.83537 17.9967 3.85416C17.9967 6.50834 17.9967 9.16251 17.9967 11.8167C17.9967 11.9576 17.9779 12.0985 17.945 12.2348C17.743 13.0146 17.0948 13.489 16.2351 13.489C11.4153 13.489 6.59081 13.489 1.77102 13.489C1.71934 13.489 1.66767 13.489 1.61129 13.4844C0.859671 13.4421 0.277161 12.9864 0.0610695 12.2677C0.0469765 12.2301 0.0563718 12.1737 0 12.1549Z" fill="#D9D9D9"/>
<path d="M0 1.32683C0.0610695 1.30804 0.0516742 1.25166 0.0610695 1.21408C0.277161 0.500039 0.859671 0.0396691 1.61129 0.00208785C1.66297 -0.00260981 1.71464 0.00208785 1.77102 0.00208785C6.59081 0.00208785 11.4153 0.00208785 16.2351 0.00208785C17.0196 0.00208785 17.6397 0.401388 17.8887 1.07315C18.1611 1.80129 17.9262 2.55291 17.2639 2.99919C15.9063 3.91053 14.5392 4.81718 13.1769 5.72383C12.1387 6.41438 11.1053 7.10494 10.0671 7.79549C9.30605 8.30284 8.69535 8.30754 7.93903 7.80019C5.55732 6.21238 3.18031 4.62458 0.798601 3.04147C0.422789 2.79249 0.155023 2.46836 0.0422789 2.02678C0.0375812 1.99859 0.0375812 1.96571 0 1.96101C0 1.74961 0 1.53822 0 1.32683Z" fill="#D9D9D9"/>
</svg>
