<svg width="18" height="18" viewBox="0 0 18 18" fill="none" xmlns="http://www.w3.org/2000/svg">
<path d="M0 9.73667C0 9.24438 0 8.7521 0 8.25982C0.0457121 8.24575 0.0316468 8.20356 0.0351631 8.17191C0.0738425 7.80621 0.130104 7.44052 0.203946 7.08185C0.966986 3.47763 4.02618 0.615355 7.66908 0.0984567C7.86599 0.0703262 8.07345 0.0808752 8.25982 0C8.72748 0 9.19867 0 9.66634 0C9.67689 0.0386794 9.70854 0.0316468 9.73667 0.0316468C10.0109 0.0492284 10.2817 0.0879078 10.556 0.13362C14.343 0.784138 17.346 3.87498 17.9015 7.68666C17.9297 7.8906 17.9191 8.10158 17.9965 8.29498C17.9965 8.77671 17.9965 9.25493 17.9965 9.73667C17.9473 9.75073 17.9648 9.79293 17.9613 9.82458C17.9297 10.127 17.8875 10.4259 17.8277 10.7283C17.1139 14.445 14.0582 17.36 10.3098 17.9051C10.0953 17.9367 9.8738 17.9297 9.66634 18C9.19867 18 8.72748 18 8.25982 18C8.24223 17.9437 8.19301 17.9684 8.15433 17.9613C6.40672 17.782 4.83141 17.1702 3.45653 16.0766C1.58937 14.5927 0.467669 12.6728 0.0949404 10.3133C0.0668099 10.1199 0.0808752 9.91952 0 9.73667ZM8.25278 6.9412C8.25278 7.7183 8.2563 8.49893 8.24927 9.27603C8.24575 9.56085 8.34421 9.77886 8.54464 9.97578C9.62063 11.0447 10.6896 12.1172 11.7621 13.1897C11.9238 13.3514 12.0785 13.5202 12.2508 13.6714C12.6763 14.0547 13.3303 13.8508 13.4745 13.2952C13.5519 12.9928 13.4464 12.7466 13.2319 12.5357C12.1242 11.4315 11.0236 10.3239 9.91248 9.22329C9.78941 9.10373 9.7437 8.98418 9.7437 8.81188C9.75073 7.90467 9.74722 6.99746 9.74722 6.09025C9.74722 5.56984 9.7437 5.04942 9.74722 4.52549C9.74722 4.2899 9.67337 4.08595 9.49404 3.93475C9.25845 3.73432 8.98769 3.68861 8.70639 3.80817C8.41805 3.93124 8.2563 4.1598 8.25278 4.47978C8.24927 5.3026 8.25278 6.1219 8.25278 6.9412Z" fill="url(#paint0_linear_148_371)"/>
<defs>
<linearGradient id="paint0_linear_148_371" x1="-3.44933" y1="-2.85246" x2="20.178" y2="18.0978" gradientUnits="userSpaceOnUse">
<stop stop-color="#DA2D77"/>
<stop offset="0.619792" stop-color="#017DA9"/>
<stop offset="1" stop-color="#E7B306"/>
</linearGradient>
</defs>
</svg>
