<svg width="14" height="14" viewBox="0 0 14 14" fill="none" xmlns="http://www.w3.org/2000/svg">
<path d="M9.74411 0C9.93531 0.0602127 10.1375 0.0508895 10.3342 0.0769169C11.1108 0.178696 11.8599 0.370988 12.588 0.63709C12.6108 0.645636 12.6332 0.654959 12.6555 0.664671C13.173 0.89076 13.2806 1.14676 13.059 1.63157C12.9058 1.96643 12.7526 2.30129 12.5918 2.63304C12.4078 3.01297 12.2077 3.1027 11.7646 3.00792C11.1492 2.87623 10.5448 2.70025 9.91885 2.61013C8.84088 2.45513 7.78698 2.50446 6.79005 2.95664C6.10672 3.26664 5.48375 3.93869 5.22586 4.62822C5.28284 4.62822 5.33433 4.62822 5.38583 4.62822C6.34646 4.62822 7.30709 4.62822 8.26729 4.62822C8.6729 4.62822 8.84722 4.78788 8.84722 5.15887C8.84722 5.42769 8.84848 5.69651 8.84679 5.96533C8.84511 6.27222 8.65391 6.44898 8.32174 6.44937C7.18806 6.45014 6.05396 6.45209 4.92028 6.44665C4.78986 6.44587 4.74892 6.47345 4.75779 6.59543C4.77045 6.76325 4.76918 6.93301 4.75821 7.10083C4.75103 7.2096 4.79535 7.22592 4.90129 7.22553C6.0202 7.22203 7.1391 7.2232 8.25801 7.22359C8.67501 7.22359 8.84679 7.38014 8.84722 7.75967C8.84722 8.01956 8.84764 8.27906 8.84722 8.53894C8.84637 8.87536 8.66362 9.04551 8.30148 9.04551C7.28134 9.0459 6.26162 9.04551 5.24148 9.0459C5.08025 9.0459 5.0794 9.04667 5.13892 9.19002C5.41706 9.86207 5.81296 10.4553 6.47392 10.8698C7.00573 11.2031 7.60633 11.3565 8.23522 11.4303C9.21653 11.5453 10.1658 11.3814 11.1066 11.1444C11.34 11.0857 11.5746 11.0318 11.8106 10.9824C12.1955 10.902 12.4006 10.9879 12.5656 11.3192C12.7606 11.7112 12.9468 12.1078 13.1211 12.5079C13.2756 12.8626 13.1422 13.119 12.7379 13.2856C11.8743 13.6411 10.9694 13.8551 10.0299 13.9519C8.76913 14.082 7.54218 13.9484 6.35194 13.549C4.76707 13.0172 3.61989 12.0332 2.84961 10.6608C2.58075 10.1814 2.38787 9.67755 2.23466 9.15933C2.2068 9.06532 2.16291 9.0424 2.06245 9.04356C1.61675 9.049 1.17147 9.04628 0.72576 9.0459C0.371222 9.04551 0.185934 8.87497 0.184668 8.54904C0.183824 8.26663 0.182557 7.98382 0.18509 7.7014C0.187622 7.40151 0.375865 7.22708 0.703391 7.22475C1.07481 7.22203 1.44623 7.22164 1.81723 7.22592C1.90376 7.22708 1.93879 7.2131 1.93499 7.12375C1.92655 6.93262 1.92613 6.74072 1.93499 6.54959C1.93921 6.4583 1.9008 6.44781 1.81639 6.44859C1.45003 6.45248 1.08368 6.45092 0.717319 6.45014C0.374177 6.44937 0.186356 6.27611 0.18509 5.95912C0.183824 5.6767 0.183402 5.3939 0.18509 5.11148C0.1872 4.80303 0.374599 4.63055 0.712254 4.629C1.18244 4.62667 1.65305 4.62434 2.12323 4.63133C2.24099 4.63327 2.29248 4.60453 2.32836 4.49731C2.60819 3.66909 3.02055 2.90381 3.62242 2.2302C4.58178 1.15686 5.80916 0.490637 7.27838 0.191515C7.67977 0.109937 8.08454 0.0508895 8.49479 0.0252505C8.518 0.0236966 8.54544 0.0291352 8.55514 0C8.95189 0 9.34821 0 9.74411 0Z" fill="#9F9F9F"/>
</svg>
