<svg width="16" height="14" viewBox="0 0 16 14" fill="none" xmlns="http://www.w3.org/2000/svg">
<path d="M11.3333 3.33044C11.3333 4.84579 9.30278 7.54622 8.41111 8.65914C8.19722 8.92557 7.8 8.92557 7.58889 8.65914C6.69722 7.54622 4.66667 4.84579 4.66667 3.33044C4.66667 1.49037 6.15833 0 8 0C9.84167 0 11.3333 1.49037 11.3333 3.33044ZM11.5556 5.56183C11.6528 5.37033 11.7417 5.17883 11.8222 4.9901C11.8361 4.9568 11.85 4.92072 11.8639 4.88742L15.0861 3.59965C15.525 3.4248 16 3.74674 16 4.21855V11.7342C16 12.0062 15.8333 12.2505 15.5806 12.3531L11.5556 13.9601V5.56183ZM3.82222 3.83833C3.88889 4.22966 4.02222 4.62376 4.17778 4.9901C4.25833 5.17883 4.34722 5.37033 4.44444 5.56183V12.5391L0.913889 13.9518C0.475 14.1266 0 13.8047 0 13.3328V5.81716C0 5.54518 0.166667 5.30095 0.419444 5.19826L3.825 3.83833H3.82222ZM9.10556 9.21421C9.49167 8.7313 10.0972 7.94587 10.6667 7.07718V13.9962L5.33333 12.4725V7.07718C5.90278 7.94587 6.50833 8.7313 6.89444 9.21421C7.46389 9.9247 8.53611 9.9247 9.10556 9.21421V9.21421ZM8 4.21855C8.61389 4.21855 9.11111 3.72176 9.11111 3.10841C9.11111 2.49505 8.61389 1.99826 8 1.99826C7.38611 1.99826 6.88889 2.49505 6.88889 3.10841C6.88889 3.72176 7.38611 4.21855 8 4.21855Z" fill="#9F9F9F"/>
</svg>
