<svg width="15" height="11" viewBox="0 0 15 11" fill="none" xmlns="http://www.w3.org/2000/svg">
<path d="M0.0800781 9.59076C0.0800781 6.86188 0.0800781 4.13299 0.0800781 1.4041C0.127126 1.37031 0.119467 1.3119 0.130955 1.26522C0.311761 0.530458 0.94253 0.00329298 1.66767 0.00272029C5.27585 0.000143165 8.88403 -0.00300663 12.4922 0.00587012C13.1443 0.00730186 13.6203 0.3492 13.9217 0.957115C13.9969 1.10888 14.0147 1.27897 14.0801 1.43302C14.0801 4.15246 14.0801 6.87161 14.0801 9.59105C14.0505 9.59792 14.0538 9.62455 14.0494 9.64689C13.8916 10.4361 13.2201 11.0096 12.3554 10.9999C10.5608 10.9798 8.76559 10.9939 6.97066 10.9939C5.21212 10.9939 3.45357 10.9953 1.69502 10.9933C0.941162 10.9924 0.317779 10.479 0.127673 9.71647C0.117552 9.67409 0.129041 9.61825 0.0800781 9.59076ZM4.44978 8.55333C5.16507 8.55333 5.88036 8.55447 6.59565 8.55276C6.90338 8.5519 7.07871 8.36577 7.08063 8.04649C7.08117 7.96546 7.0809 7.88442 7.08063 7.80339C7.07625 6.8573 6.37901 6.11709 5.47252 6.10735C4.79388 6.09991 4.1147 6.09933 3.43606 6.10792C2.89747 6.1148 2.45927 6.34903 2.1376 6.80375C1.92807 7.09954 1.84464 7.43743 1.82686 7.80539C1.79541 8.4511 2.01478 8.57194 2.53668 8.55734C3.17374 8.53987 3.8119 8.55333 4.44978 8.55333ZM5.91072 3.96863C5.90963 3.12619 5.24904 2.43581 4.44978 2.4424C3.64915 2.44898 3.00306 3.12791 3.00005 3.96576C2.99704 4.80848 3.64997 5.49629 4.45416 5.49715C5.25807 5.49772 5.91154 4.8122 5.91072 3.96863ZM10.2793 6.10592C10.8075 6.10592 11.3357 6.10764 11.8639 6.10535C12.1344 6.1042 12.3273 5.91493 12.3306 5.65636C12.3338 5.39148 12.1385 5.19133 11.8625 5.19076C10.8152 5.18846 9.76809 5.1899 8.72073 5.18961C8.60858 5.18961 8.50437 5.21595 8.41465 5.29012C8.27186 5.40809 8.21251 5.6114 8.26858 5.79094C8.32657 5.97706 8.48413 6.10306 8.68107 6.10449C9.21391 6.10764 9.74649 6.10535 10.2793 6.10592ZM10.2982 7.6373C10.2982 7.63702 10.2982 7.63702 10.2982 7.63673C9.77001 7.63673 9.24181 7.63501 8.71362 7.6373C8.4379 7.63845 8.25244 7.82114 8.24998 8.08601C8.24752 8.3546 8.43817 8.55132 8.71554 8.5519C9.7629 8.55447 10.81 8.55304 11.8573 8.55276C11.9498 8.55276 12.0381 8.535 12.1183 8.48346C12.28 8.37952 12.3637 8.1765 12.321 7.99209C12.2726 7.78449 12.1071 7.6396 11.8965 7.63816C11.3636 7.63501 10.8308 7.6373 10.2982 7.6373ZM10.2777 3.66538C10.8012 3.66538 11.325 3.66596 11.8486 3.6651C12.1342 3.66453 12.3333 3.47124 12.3303 3.20093C12.327 2.9372 12.1295 2.74965 11.8505 2.74936C10.8124 2.74879 9.77439 2.74879 8.73605 2.74936C8.44364 2.74936 8.2508 2.93176 8.25053 3.2058C8.24998 3.47811 8.44529 3.66453 8.73441 3.66481C9.24865 3.66596 9.76317 3.66538 10.2777 3.66538Z" fill="#9F9F9F"/>
</svg>
