<svg width="12" height="7" viewBox="0 0 12 7" fill="none" xmlns="http://www.w3.org/2000/svg">
<path d="M-2.17055e-08 0.496564C0.0437107 0.456898 0.0437107 0.397401 0.0686884 0.344514C0.243531 -0.00586194 0.674395 -0.111636 0.96788 0.132966C1.01784 0.172631 1.06155 0.218907 1.10526 0.265183C2.70382 1.95756 4.29614 3.64333 5.89471 5.33572C5.97588 5.42166 6.01335 5.43488 6.10077 5.34233C7.70558 3.64333 9.31039 1.94434 10.9214 0.23874C11.1587 -0.0124724 11.4272 -0.0653592 11.6833 0.0800798C12.008 0.265184 12.1016 0.721333 11.8768 1.02543C11.8394 1.07171 11.8019 1.11799 11.7582 1.16426C10.0035 3.02191 8.24884 4.87957 6.50041 6.73722C6.16946 7.08759 5.83226 7.08759 5.50131 6.73722C3.77786 4.91262 2.06065 3.09463 0.337197 1.27003C0.193577 1.11798 0.0437107 0.965935 -3.23974e-08 0.741166C-2.89298e-08 0.661835 -2.54621e-08 0.582505 -2.17055e-08 0.496564Z" fill="#D9D9D9"/>
</svg>
