<svg width="15" height="18" viewBox="0 0 15 18" fill="none" xmlns="http://www.w3.org/2000/svg">
<path d="M6.87841 18C5.73298 17.0933 4.75816 16.0268 3.82719 14.9274C2.71589 13.6213 1.74594 12.2212 1.02457 10.6755C0.581018 9.7218 0.244703 8.73518 0.117975 7.69218C-0.130606 5.60619 0.454291 3.7645 1.91166 2.2C3.00347 1.03485 4.36822 0.325425 5.97669 0.0811189C8.83294 -0.346416 11.6258 0.940887 13.0881 3.35575C14.1506 5.11288 14.2968 6.97806 13.7558 8.91371C13.3415 10.403 12.6104 11.7514 11.7379 13.0293C10.5681 14.7442 9.179 16.2852 7.6339 17.6946C7.5023 17.8121 7.36582 17.9201 7.20497 18C7.09774 18 6.98564 18 6.87841 18ZM7.05387 2.99869C4.90925 3.00339 3.15944 4.69944 3.16919 6.76194C3.17893 8.81974 4.92388 10.5017 7.05875 10.5064C9.1985 10.5111 10.9581 8.81505 10.9532 6.75254C10.9483 4.68534 9.19362 2.99399 7.05387 2.99869Z" fill="#D9D9D9"/>
</svg>
