<svg width="12" height="16" viewBox="0 0 12 16" fill="none" xmlns="http://www.w3.org/2000/svg">
<path d="M7.44682 0C7.96992 0.476424 8.49511 0.950763 9.01405 1.43177C9.08908 1.50138 9.13451 1.49054 9.20954 1.44094C9.86853 1.00537 10.53 0.573126 11.1915 0.141302C11.2378 0.111291 11.2765 0.0633564 11.3591 0.0658573C11.3003 0.342208 11.2432 0.614391 11.1844 0.88574C10.8139 2.59136 10.4421 4.29657 10.0753 6.00302C10.0507 6.11806 10.0153 6.16058 9.88937 6.16016C7.19214 6.15599 4.49532 6.15641 1.79809 6.15933C1.68596 6.15933 1.64178 6.13307 1.61594 6.01553C1.17995 4.05398 0.737702 2.09326 0.297125 0.131715C0.290873 0.103371 0.292957 0.0729433 0.290039 0.0262596C0.820649 0.374303 1.3375 0.71276 1.85394 1.05163C2.05818 1.18543 2.26242 1.32006 2.46667 1.45345C2.50793 1.48054 2.54128 1.51889 2.59963 1.46512C3.13024 0.974939 3.66377 0.488095 4.19646 0C4.20688 0 4.2173 0 4.22772 0C4.74333 0.472672 5.25977 0.944094 5.77329 1.41885C5.84248 1.48304 5.87249 1.42469 5.91084 1.39009C6.38018 0.964935 6.8491 0.53978 7.31677 0.112541C7.35303 0.0796124 7.40555 0.057521 7.41514 0C7.42597 0 7.4364 0 7.44682 0Z" fill="#9F9F9F"/>
<path d="M3.22819 16C3.11565 15.9304 2.98269 15.9408 2.86056 15.9087C2.07819 15.7016 1.46005 15.2906 1.11826 14.5282C0.965285 14.1868 0.941943 13.8259 0.952781 13.4595C0.954448 13.3991 0.976122 13.3778 1.03573 13.3786C1.29582 13.3807 1.55633 13.3811 1.81643 13.3782C1.88354 13.3774 1.89229 13.4107 1.89187 13.4649C1.89062 13.5795 1.88812 13.6942 1.89521 13.8084C1.91605 14.1435 2.1403 14.3548 2.45916 14.3456C2.76594 14.3365 2.97644 14.1106 2.98144 13.7829C2.98561 13.5024 2.96893 13.2219 3.03521 12.9443C3.31614 11.7639 4.63621 11.1332 5.7216 11.6668C5.7983 11.7047 5.8529 11.7076 5.93293 11.6676C7.15338 11.0553 8.64225 11.9623 8.66684 13.3299C8.66976 13.4857 8.66476 13.6421 8.66934 13.7984C8.67851 14.1235 8.90943 14.349 9.2258 14.3456C9.53216 14.3423 9.74974 14.1172 9.75807 13.7929C9.76099 13.6837 9.76266 13.5741 9.75807 13.4649C9.75516 13.3949 9.78183 13.377 9.84811 13.3778C10.0928 13.3811 10.3375 13.3849 10.5817 13.3765C10.6851 13.3728 10.6938 13.4132 10.6993 13.5012C10.7805 14.8408 9.84477 15.6153 8.91735 15.8737C8.74145 15.9229 8.56222 15.9583 8.38424 16C8.12373 16 7.86322 16 7.60312 16C7.5927 15.9575 7.5556 15.9683 7.52768 15.9637C6.88578 15.8545 6.32057 15.5978 5.88375 15.0997C5.81956 15.0267 5.79288 15.0751 5.75453 15.118C5.4019 15.5136 4.95841 15.7578 4.45197 15.8937C4.29567 15.9354 4.13644 15.965 3.97805 16C3.72796 16 3.47828 16 3.22819 16Z" fill="#9F9F9F"/>
<path d="M7.41555 0C7.40555 0.057521 7.35345 0.0791955 7.31718 0.112541C6.84993 0.53978 6.38059 0.964935 5.91125 1.39009C5.87291 1.42469 5.8429 1.48304 5.77371 1.41885C5.26018 0.944094 4.74375 0.472672 4.22814 0C5.29061 0 6.35308 0 7.41555 0Z" fill="#FCFCFC"/>
<path d="M3.97805 16C4.13602 15.965 4.29567 15.9358 4.45197 15.8937C4.95882 15.7578 5.4019 15.5136 5.75453 15.118C5.79288 15.0751 5.81956 15.0263 5.88375 15.0997C6.32057 15.5978 6.88536 15.8545 7.52768 15.9637C7.5556 15.9683 7.5927 15.9575 7.60312 16C6.39477 16 5.18641 16 3.97805 16Z" fill="#FBFBFB"/>
<path d="M3.13066 7.09467C3.81799 7.09467 4.50533 7.09717 5.19266 7.09217C5.29853 7.09134 5.34105 7.11218 5.33146 7.22639C5.32187 7.33934 5.29103 7.4869 5.34688 7.55984C5.40941 7.64112 5.55613 7.554 5.66783 7.55942C5.84415 7.56776 6.02255 7.5515 6.19678 7.58943C6.30098 7.61236 6.33308 7.57735 6.32307 7.47439C6.31474 7.38686 6.32932 7.29683 6.31932 7.2093C6.30765 7.10592 6.35183 7.09259 6.44228 7.09259C7.83279 7.0955 9.22288 7.0955 10.6134 7.09217C10.7105 7.09175 10.7347 7.11676 10.7338 7.21263C10.7288 7.78034 10.7376 8.34804 10.7288 8.91533C10.7118 10.0387 9.7985 10.9961 8.69227 11.0599C7.51892 11.1278 6.50981 10.3179 6.34558 9.18168C6.32099 9.01037 6.31682 8.83906 6.32349 8.66774C6.32682 8.57938 6.29098 8.54978 6.21428 8.53686C5.96628 8.4956 5.7191 8.48601 5.46859 8.51936C5.35689 8.53436 5.31979 8.56937 5.32563 8.68358C5.34146 8.99745 5.30812 9.30548 5.20016 9.60475C4.85837 10.5509 3.90594 11.1574 2.91183 11.0569C1.88937 10.954 1.06824 10.1641 0.94236 9.14709C0.880254 8.64482 0.928605 8.13797 0.917351 7.63362C0.914016 7.49315 0.923603 7.35185 0.914433 7.2118C0.907764 7.11259 0.941943 7.09134 1.03614 7.09217C1.73473 7.09675 2.43249 7.09467 3.13066 7.09467Z" fill="#9F9F9F"/>
</svg>
