<svg width="100" height="100" viewBox="0 0 100 100" fill="none" xmlns="http://www.w3.org/2000/svg">
<circle cx="50" cy="50" r="49.5" fill="#F5F5EB" stroke="#D9D9D9"/>
<mask id="mask0_187_667" style="mask-type:alpha" maskUnits="userSpaceOnUse" x="0" y="0" width="100" height="100">
<circle cx="50" cy="50" r="50" fill="#D9D9D9"/>
</mask>
<g mask="url(#mask0_187_667)">
<path d="M14.8688 84.2601C11.4455 80.8422 8.0437 77.4028 4.62046 73.985C4.40651 73.77 4.21395 73.5121 4 73.2756C4 72.9532 4 72.6307 4 72.3083C4.96279 71.0185 6.16092 69.9652 7.31626 68.8474C7.87254 68.3315 8.62137 68.396 9.19904 68.9119C9.56276 69.2344 9.90509 69.5783 10.2474 69.9007C12.6437 72.3083 15.0613 74.7158 17.4576 77.1234C18.1637 77.8543 18.8697 78.6066 19.5757 79.3375C17.9497 80.7562 16.4948 82.3684 14.9758 83.8946C14.9116 83.9806 14.9116 84.1526 14.8688 84.2601Z" fill="#F02A64"/>
<path d="M17.479 77.1449C15.0827 74.7373 12.6651 72.3298 10.2688 69.9222C10.6111 69.9007 10.7609 69.6213 10.9748 69.4278C12.173 68.2455 13.2641 66.9558 14.5693 65.881C16.4092 64.3333 17.3292 62.2911 18.1423 60.1201C19.426 56.6377 20.6455 53.1339 21.5869 49.544C22.2929 46.9 23.8548 44.9869 25.9729 43.3532C29.2036 40.8811 32.3915 38.3446 35.5152 35.7436C37.0129 34.4968 38.6603 34.2174 40.5217 34.4108C42.0835 34.5828 43.624 34.7118 45.1858 34.8622C45.9775 34.9267 46.7691 34.9912 47.5607 35.0557C47.3682 35.2707 47.1756 35.5071 46.983 35.7006C43.2175 39.4839 39.4519 43.2672 35.7078 47.0505C35.451 47.3084 35.2157 47.5664 35.2157 47.9963C35.2585 49.7375 35.2371 51.4787 35.2585 53.1983C35.2585 54.7675 35.2585 56.3583 35.2371 57.9275C35.2371 58.3574 35.3868 58.7013 35.6008 59.0453C36.8631 61.0229 38.9812 61.3023 40.6714 59.6686C41.3989 58.9593 42.1049 58.2284 42.811 57.519C44.6082 55.7134 46.3198 53.7787 48.6091 52.532C49.037 52.532 49.3151 51.9516 49.8072 52.2095C48.5449 53.2628 47.304 54.3376 46.1272 55.4984C42.6612 58.9378 39.2808 62.4201 36.371 66.3754C34.9589 68.31 33.0761 69.7718 30.7868 70.6101C28.3478 71.4914 25.8659 72.3513 23.3841 73.1251C21.6511 73.684 20.1106 74.4794 18.9125 75.8981C18.4846 76.371 18.1209 76.9299 17.479 77.1449Z" fill="#FBD6C2"/>
<path d="M17.479 77.1449C18.1209 76.9514 18.506 76.371 18.9125 75.9196C20.1106 74.5009 21.6511 73.7055 23.3841 73.1466C25.8659 72.3513 28.3264 71.5129 30.7868 70.6316C33.0761 69.7933 34.9589 68.3315 36.371 66.3969C39.2594 62.4416 42.6612 58.9378 46.1272 55.5199C47.304 54.3591 48.5449 53.2843 49.8072 52.231C50.663 51.6936 51.583 51.3497 52.5458 51.0917C54.1505 50.6833 55.7551 50.3824 57.3811 50.9413C58.4509 51.3067 59.5207 52.575 59.5421 53.4993C59.5635 54.3806 58.729 55.7349 57.9588 56.0788C56.6323 54.4666 54.4714 54.1442 52.7384 55.2835C51.8612 55.8638 51.2193 56.6807 50.4705 57.4116C49.5077 58.3789 49.5291 59.5397 50.4491 60.5285C50.984 61.0874 51.4974 61.6463 52.0323 62.2052C50.4705 63.7959 48.9086 65.4081 47.3254 66.9988C46.0631 68.267 45.0361 69.7288 43.9663 71.1475C43.41 71.8139 42.8324 72.4803 42.2975 73.1896C41.998 73.5766 41.5059 73.8345 41.4203 74.3934C41.1635 74.3934 40.971 74.5224 40.7784 74.6728C39.3235 75.9841 37.6333 76.8439 35.7933 77.4673C33.3115 78.2842 30.851 79.1225 28.3906 79.9609C27.1283 80.3908 26.1227 81.2291 25.2027 82.1535C24.7534 82.6049 24.3683 83.1208 23.812 83.4647C23.598 83.2712 23.3627 83.0993 23.1701 82.8843C21.972 81.7235 20.7739 80.5413 19.5971 79.359C18.8911 78.6066 18.185 77.8758 17.479 77.1449Z" fill="#FECCAB"/>
<path d="M41.4417 74.3719C41.5273 73.813 42.0194 73.5551 42.3189 73.1681C42.8538 72.4803 43.4314 71.8139 43.9877 71.126C44.3942 71.5344 44.8221 71.5559 45.357 71.3195C46.7049 70.6961 48.0956 70.7176 49.4435 71.341C49.9998 71.5989 50.3635 71.4914 50.7914 71.0615C59.5848 62.2052 68.3997 53.3488 77.2145 44.514C77.6424 44.084 77.728 43.6971 77.4713 43.1597C76.8508 41.8699 76.808 40.5157 77.4071 39.2044C77.7066 38.5381 77.6852 38.0437 77.1717 37.5492C78.1345 36.6249 79.1187 35.7221 80.0815 34.7978C81.9429 36.6464 83.8043 38.4951 85.6443 40.3437C86.115 40.8166 86.115 41.3325 85.6657 41.827C85.5159 41.9774 85.3661 42.1279 85.2164 42.2784C72.9997 54.5526 60.783 66.8268 48.5663 79.101C47.4965 80.1758 47.304 80.1758 46.2342 79.101C44.6082 77.5533 43.0249 75.9626 41.4417 74.3719Z" fill="#017DA9"/>
<path d="M80.0601 34.8193C79.0973 35.7436 78.1131 36.6464 77.1503 37.5707C76.8936 37.3343 76.6369 37.1193 76.3801 36.8829C74.7113 35.2492 73.0425 33.594 71.395 31.9388C70.0043 30.5201 68.5922 29.0798 67.2016 27.6396C66.8378 27.2742 66.4955 27.3171 66.0676 27.5321C64.7839 28.1555 63.4146 28.2415 62.1523 27.6396C61.2965 27.2312 60.8686 27.4676 60.3123 28.048C52.2035 36.2165 44.0733 44.3635 35.9645 52.532C35.7505 52.7469 35.4938 52.9619 35.2585 53.1768C35.2585 51.4357 35.2585 49.6945 35.2157 47.9748C35.2157 47.5449 35.451 47.2869 35.7078 47.029C39.4733 43.2457 43.2389 39.4624 46.983 35.6791C47.197 35.4641 47.3682 35.2492 47.5607 35.0342C50.5775 32.0248 53.5942 28.9938 56.6109 25.9844C58.7718 23.8133 60.9114 21.6422 63.0509 19.4926C63.6927 18.8692 64.1634 18.8262 64.7625 19.4281C69.876 24.5442 74.968 29.6817 80.0601 34.8193Z" fill="#0295BC"/>
<path d="M19.5971 79.359C20.7953 80.5413 21.972 81.702 23.1701 82.8843C23.3841 83.0778 23.598 83.2712 23.812 83.4647C24.1543 83.8301 24.4966 84.1956 24.839 84.5825C25.5022 85.3349 25.5022 86.1302 24.8176 86.8611C23.9618 87.7424 23.106 88.6238 22.2287 89.4621C21.5013 90.15 20.7311 90.193 20.0464 89.5051C18.3134 87.7854 16.6018 86.0227 14.8688 84.2816C14.9116 84.1526 14.9116 84.0021 14.9972 83.9161C16.5162 82.3684 17.9711 80.7777 19.5971 79.359Z" fill="#C60042"/>
<path d="M35.2371 53.1768C35.4724 52.9619 35.7291 52.7684 35.9431 52.532C44.0733 44.385 52.1821 36.2165 60.2909 28.048C60.8472 27.4676 61.2965 27.2527 62.1309 27.6396C63.3932 28.2415 64.7625 28.1555 66.0462 27.5321C66.4955 27.3171 66.8378 27.2742 67.1802 27.6396C68.5708 29.0798 69.9829 30.4986 71.3736 31.9388C70.582 33.551 70.2397 35.2062 71.1169 36.8829C71.395 37.4203 71.3094 37.7212 70.9029 38.1296C68.3569 40.6662 65.8323 43.2242 63.2862 45.7607C63.0937 45.9542 62.8797 46.1047 62.6872 46.2766C62.5802 46.0832 62.4732 45.9112 62.3662 45.7177C59.6918 41.0746 53.5728 40.3007 49.9998 44.213C47.7961 46.6206 47.4323 49.4795 48.5663 52.5105C46.277 53.7357 44.5654 55.6919 42.7682 57.4975C42.0621 58.2069 41.3561 58.9593 40.6287 59.6471C38.9384 61.2593 36.8203 61.0014 35.558 59.0238C35.344 58.6798 35.1943 58.3359 35.1943 57.906C35.2371 56.3368 35.2157 54.7461 35.2371 53.1768Z" fill="#07BDED"/>
<path d="M57.4667 56.8742C60.3123 56.3797 62.8797 53.5423 63.2434 50.5758C63.436 49.0711 63.1579 47.6739 62.7086 46.2551C62.9011 46.0832 63.1365 45.9327 63.3076 45.7392C65.8537 43.2027 68.3783 40.6447 70.9243 38.1081C71.3308 37.6997 71.4164 37.3988 71.1383 36.8614C70.2397 35.1847 70.6034 33.5295 71.395 31.9173C73.0639 33.5725 74.7327 35.2062 76.3801 36.8614C76.6155 37.0978 76.8936 37.3343 77.1503 37.5492C77.6638 38.0437 77.7066 38.5381 77.3857 39.2044C76.7866 40.5157 76.8294 41.8484 77.4499 43.1597C77.7066 43.6971 77.621 44.084 77.1931 44.514C68.3783 53.3488 59.5635 62.2052 50.77 71.0615C50.3421 71.4914 49.9784 71.5989 49.4221 71.341C48.0742 70.7176 46.6835 70.6961 45.3356 71.3195C44.8007 71.5559 44.3728 71.5344 43.9663 71.126C45.0147 69.6858 46.0631 68.2455 47.3254 66.9773C48.8872 65.3866 50.4705 63.7744 52.0323 62.1837C52.2891 61.9472 52.5458 61.7323 52.8026 61.4958C54.3644 59.9696 55.9263 58.4219 57.4667 56.8742Z" fill="#006C89"/>
<path d="M57.4667 56.8742C55.9049 58.4219 54.3644 59.9481 52.8026 61.4958C52.5672 61.7323 52.2891 61.9687 52.0323 62.1837C51.4974 61.6248 50.984 61.0659 50.4491 60.507C49.5291 59.5182 49.5077 58.3574 50.4705 57.3901C51.1979 56.6592 51.8612 55.8423 52.7384 55.262C54.45 54.1227 56.6323 54.4666 57.9588 56.0573C57.9588 56.4442 57.5737 56.5732 57.4667 56.8742Z" fill="#EEEEED"/>
</g>
</svg>
