<svg width="40" height="40" viewBox="0 0 40 40" fill="none" xmlns="http://www.w3.org/2000/svg">
<circle cx="20" cy="20" r="20" fill="white"/>
<path d="M21.6752 11.0106C21.958 11.0106 22.2373 11.0106 22.5201 11.0106C22.5802 11.06 22.6368 11.0705 22.6969 11.0106C22.8277 11.0106 22.9549 11.0106 23.0857 11.0106C23.1281 11.0776 23.1918 11.0423 23.2448 11.0423C23.7786 11.067 24.3089 11.0952 24.8356 11.1799C27.0521 11.5432 28.6217 13.1765 28.901 15.4058C28.9293 15.6387 28.9187 15.8785 29 16.1008C29 18.6653 29 21.2297 29 23.7942C28.947 23.8154 28.9682 23.8648 28.9646 23.9001C28.9399 24.2634 28.901 24.6232 28.8232 24.9759C28.4733 26.6198 27.5612 27.8191 25.9987 28.4893C25.1538 28.8491 24.2559 28.9303 23.3509 28.9585C21.449 29.0185 19.5506 29.0008 17.6487 28.9832C16.7048 28.9726 15.7574 28.9761 14.8347 28.7468C13.3535 28.3835 12.2506 27.544 11.593 26.1577C11.2183 25.371 11.0804 24.5209 11.0557 23.6567C10.9814 21.2474 10.9814 18.8346 11.0557 16.4218C11.0734 15.8362 11.137 15.2542 11.2925 14.6862C11.7132 13.1624 12.6359 12.0759 14.1136 11.4797C14.9373 11.1482 15.8034 11.067 16.6801 11.0388C16.7366 11.0353 16.8073 11.0741 16.8568 11.0035C17.0901 11.0035 17.327 11.0035 17.5603 11.0035C17.7441 11.0811 17.935 11.0176 18.1224 11.0353C18.4194 11.0353 18.7198 11.0388 19.0168 11.0353C19.084 11.0353 19.1582 11.0635 19.2148 11C19.7415 11 20.2718 11 20.7985 11C21.0884 11.067 21.3818 11.067 21.6752 11.0106ZM20.0278 27.3782C20.5015 27.3782 20.9788 27.3817 21.4525 27.3782C22.4741 27.3641 23.4958 27.3993 24.5068 27.2371C25.8467 27.0254 26.7658 26.2952 27.1617 24.9724C27.3385 24.3833 27.3562 23.7731 27.3774 23.1663C27.4304 21.5402 27.4163 19.9105 27.4057 18.2843C27.3986 17.3707 27.4057 16.457 27.2749 15.5505C27.0698 14.1183 26.1719 13.1482 24.7614 12.8308C24.1392 12.6897 23.5029 12.6791 22.8736 12.665C21.2899 12.6332 19.7061 12.6368 18.1224 12.6509C17.2245 12.6615 16.3266 12.6368 15.4392 12.8026C14.0924 13.053 13.2086 13.822 12.8586 15.1624C12.6995 15.7798 12.6854 16.4147 12.6712 17.0426C12.6323 18.4995 12.6323 19.9563 12.6465 21.4167C12.6571 22.422 12.6323 23.4309 12.7773 24.4327C12.9187 25.4028 13.3394 26.2141 14.1878 26.7538C14.7817 27.1312 15.4534 27.2653 16.1427 27.3076C17.4331 27.3958 18.7304 27.3782 20.0278 27.3782Z" fill="#017DA9"/>
<path d="M19.2112 11.0106C19.1547 11.0705 19.0769 11.0423 19.0133 11.0459C18.7163 11.0494 18.4158 11.0459 18.1189 11.0459C18.1224 11.0353 18.1224 11.0247 18.1224 11.0141C18.483 11.0106 18.8471 11.0106 19.2112 11.0106Z" fill="#151515"/>
<path d="M21.6752 11.0106C21.3818 11.067 21.0884 11.067 20.795 11.0106C21.0884 11.0106 21.3818 11.0106 21.6752 11.0106Z" fill="#017DA9"/>
<path d="M18.1189 11.0106C18.1189 11.0212 18.1189 11.0317 18.1153 11.0423C17.928 11.0247 17.7371 11.0882 17.5532 11.0106C17.7441 11.0106 17.9315 11.0106 18.1189 11.0106Z" fill="#3C3C3C"/>
<path d="M22.5201 11.0106C22.5802 11.06 22.6368 11.0705 22.6969 11.0106C22.6368 11.0106 22.5802 11.0106 22.5201 11.0106Z" fill="#6F6F6F"/>
<path d="M20.0102 24.6267C17.4472 24.6126 15.3756 22.5384 15.3862 19.9986C15.3968 17.4447 17.4755 15.3776 20.0243 15.3882C22.5873 15.3988 24.6553 17.4694 24.6447 20.0163C24.6376 22.5702 22.5555 24.6408 20.0102 24.6267ZM17.0194 19.9986C17.0159 21.653 18.3451 22.99 20.0031 22.997C21.6717 23.0041 23.015 21.6742 23.0186 20.0092C23.0221 18.3548 21.6929 17.0179 20.0349 17.0109C18.3699 17.0003 17.023 18.3337 17.0194 19.9986Z" fill="#017DA9"/>
<path d="M25.9103 15.1977C25.9103 15.7974 25.4331 16.2771 24.8321 16.2771C24.2417 16.2771 23.7574 15.7974 23.7539 15.2118C23.7503 14.6122 24.2276 14.1289 24.8285 14.1254C25.4295 14.1218 25.9103 14.598 25.9103 15.1977Z" fill="#017DA9"/>
</svg>
