<svg width="40" height="40" viewBox="0 0 40 40" fill="none" xmlns="http://www.w3.org/2000/svg">
<circle cx="20" cy="20" r="20" fill="white"/>
<path d="M20.9485 18.5878C21.4418 17.8361 22.076 17.29 22.8982 16.9904C24.2724 16.4971 25.6349 16.5676 26.9445 17.196C27.9194 17.6658 28.4186 18.535 28.6946 19.5451C28.9119 20.332 28.9824 21.1425 28.9883 21.9588C29 24.2374 28.9941 26.5161 29 28.7888C29 28.9415 28.953 28.965 28.8121 28.965C27.6904 28.9591 26.5687 28.9591 25.4529 28.965C25.2767 28.965 25.2591 28.9063 25.2591 28.7536C25.2649 26.7392 25.2649 24.7249 25.2591 22.7105C25.2591 22.1761 25.2238 21.6417 25.0535 21.1307C24.8245 20.4201 24.337 20.0325 23.5971 19.9562C23.2388 19.921 22.8806 19.9444 22.5341 20.0502C21.7589 20.2851 21.3948 20.8723 21.2303 21.6123C21.1246 22.0763 21.1011 22.5519 21.1011 23.0276C21.1011 24.9304 21.0953 26.8332 21.107 28.7418C21.107 28.965 21.0424 29.0002 20.8427 28.9944C19.7504 28.9826 18.6581 28.9885 17.5716 28.9944C17.4131 28.9944 17.3661 28.9591 17.3661 28.7947C17.3719 24.9187 17.3719 21.0485 17.3661 17.1725C17.3661 17.0081 17.4072 16.967 17.5716 16.967C18.6346 16.9728 19.6976 16.9728 20.7546 16.967C20.9073 16.967 20.9543 17.0081 20.9485 17.1608C20.9426 17.6423 20.9485 18.118 20.9485 18.5878Z" fill="#017DA9"/>
<path d="M11.2995 22.9748C11.2995 21.0485 11.2995 19.1223 11.2936 17.2019C11.2936 17.0198 11.3347 16.9728 11.5168 16.9728C12.615 16.9846 13.7132 16.9787 14.8114 16.9728C14.97 16.9728 15.0346 16.9904 15.0346 17.1784C15.0287 21.0485 15.0287 24.9245 15.0346 28.7947C15.0346 28.9591 14.9935 29.0002 14.829 29.0002C13.7191 28.9944 12.6033 28.9944 11.4933 29.0002C11.323 29.0002 11.2936 28.9533 11.2936 28.7947C11.2995 26.8567 11.2995 24.9187 11.2995 22.9748Z" fill="#017DA9"/>
<path d="M15.3223 13.1497C15.3282 14.3418 14.3592 15.3343 13.1788 15.3402C11.9925 15.3461 11 14.3536 11 13.1614C11 11.9869 11.969 11.012 13.1494 11.0002C14.3357 10.9826 15.3165 11.9516 15.3223 13.1497Z" fill="#017DA9"/>
</svg>
