<svg width="30" height="30" viewBox="0 0 30 30" fill="none" xmlns="http://www.w3.org/2000/svg">
<circle cx="15" cy="15" r="15" fill="#3885AE"/>
<path d="M8 20.7078C8 20.4371 8 20.1668 8 19.8961C8.04267 19.88 8.02553 19.8416 8.02808 19.8124C8.07477 19.2591 8.15392 18.7102 8.302 18.1759C9.1511 15.1141 11.0255 12.9866 13.8981 11.7857C14.7626 11.4243 15.6722 11.2339 16.6063 11.1868C16.7536 11.1794 16.7949 11.1364 16.7879 10.9856C16.7744 10.6925 16.7825 10.3979 16.7847 10.104C16.7861 9.89343 16.8062 9.68508 16.8875 9.4883C17.0604 9.06861 17.4642 8.89499 17.8778 9.06413C18.0539 9.1362 18.2031 9.25008 18.3362 9.38599C19.3969 10.4707 20.4572 11.5557 21.5171 12.6415C21.7137 12.8428 21.8512 13.081 21.9336 13.3536C21.9555 13.426 21.9486 13.5078 22 13.5702C22 13.7475 22 13.9249 22 14.1019C21.9632 14.1119 21.9737 14.1456 21.9683 14.1706C21.8913 14.5272 21.714 14.8225 21.4624 15.079C20.4389 16.1226 19.4191 17.17 18.3964 18.2143C18.3129 18.2998 18.2246 18.3827 18.1291 18.4529C17.5488 18.8771 16.9564 18.6374 16.8146 17.9231C16.8084 17.8914 16.8054 17.8585 16.8022 17.826C16.7646 17.4351 16.7876 17.0427 16.7872 16.6513C16.7872 16.5386 16.7686 16.4994 16.6486 16.5095C16.2536 16.5431 15.8597 16.5785 15.468 16.6439C13.8328 16.9165 12.3447 17.5505 11.0029 18.5433C10.1512 19.1732 9.41335 19.923 8.77543 20.7773C8.54127 21.0913 8.22504 21.0704 8.02881 20.7328C8.02298 20.7224 8.00985 20.716 8 20.7078Z" fill="#FEFEFE"/>
</svg>
