<svg width="24" height="15" viewBox="0 0 24 15" fill="none" xmlns="http://www.w3.org/2000/svg">
<path d="M23.9994 11.4081C23.8567 11.6959 23.7455 11.9992 23.4969 12.2273C23.0027 12.6791 22.3711 12.7935 21.7658 12.4985C21.4233 12.3314 21.0956 12.1335 20.7647 11.944C19.743 11.3605 18.7239 10.7726 17.7009 10.1923C17.573 10.1197 17.5126 10.0471 17.5133 9.88775C17.5203 7.98189 17.519 6.07602 17.5145 4.17016C17.5145 4.03586 17.5557 3.96454 17.6733 3.89707C18.9648 3.15747 20.2609 2.42622 21.5377 1.66156C22.5124 1.07811 23.7288 1.58253 23.9582 2.64277C23.9621 2.66076 23.9852 2.67425 24 2.68968C23.9994 5.59538 23.9994 8.50173 23.9994 11.4081Z" fill="white"/>
<path d="M8.10088 0.00180524C9.89687 0.00180524 11.6929 -0.00269297 13.4888 0.00309017C14.8402 0.00758816 15.8644 0.816584 16.1446 2.08823C16.1915 2.30221 16.2037 2.52132 16.2037 2.7398C16.2043 5.61337 16.2069 8.48695 16.2031 11.3612C16.2011 12.7491 15.3382 13.8106 14.0151 14.0561C13.8326 14.0902 13.6424 14.094 13.4554 14.094C9.88659 14.0959 6.31775 14.0972 2.74956 14.0947C1.40209 14.094 0.377831 13.3139 0.0706827 12.0622C0.0173494 11.8418 0 11.6169 0 11.3894C0.00128514 8.50044 -0.000642571 5.6108 0.00128514 2.72181C0.00257028 1.14172 1.12707 0.0101586 2.71293 0.00373287C4.50892 -0.0033354 6.3049 0.00180524 8.10088 0.00180524Z" fill="white"/>
</svg>
